<?xml version="1.0" encoding="UTF-8"?>
<svg id="Layer_2" data-name="Layer 2" xmlns="http://www.w3.org/2000/svg" viewBox="0 0 247.01 176.83">
  <g id="Layer_1-2" data-name="Layer 1">
    <g>
      <path d="M0,106.03c.66-.73.79-1.94,1.64-2.51,1.95-1.32,6.5-.33,8.58.49.58.23,2.92,1.61,3.25,1.42,1.01-2.69,2.79-3.61,5.54-4.01.18-2.17,1.19-4.55,3.17-5.61-.56-.59-.27-1.9-.11-2.71,1.56-7.85,5.42-16.64,7.73-24.49,2.75-9.35,4.84-18.91,5.69-28.64.28-3.18.26-6.39.58-9.55l.38.29c-.19,14.8-3.33,29.03-7.66,43.07-1.87,6.05-5.32,13.87-6.34,19.9-.09.52-.12,1.03-.09,1.55l.92-.52c3.88-14.87,11.27-29.06,14.07-44.19,1.96-10.62,1.94-21.4,2.19-32.15.14-5.97-.09-11.97.6-17.91l.15-.24,1.17-.08-.39,9.45c4.77-1.57,8.77-4.97,12.35-8.39h.77c0,.88-4.34,4.53-5.23,5.19-2.37,1.76-5.14,3.27-7.86,4.39l-.22,11.35c7.83-3.76,14.4-9.59,20.2-15.97,1.03-.19,1.28.26.72,1.11-2.07,3.15-8.34,8.38-11.49,10.69-1.36.99-2.99,1.85-4.29,2.85-.22.17-.4.19-.32.54,3.04,1.09,6.08,2.8,9.39,1.58,4.01-1.47,5.42-6.16,5.7-10.02l1.1-.22c.48,2.8-.69,6.56-2.5,8.76-4.15,5.07-10.22,3.32-15.14.5l-3.33,1.57c-.34,6.43-.31,12.91-1.01,19.34-.65,5.94-1.6,12.38-2.54,18.29-.86,5.44-2.14,10.76-3.35,16.13-.43.73-1.22.74-1.38-.11.74-4.46,2.42-9.08,2.97-13.53.04-.3.26-1.29-.14-1.39l-10.81,32.79c1.13-.17,2.53.26,3.53.81.6.33,2,1.67,2.44,1.8.57.16,2.63-2.28,2.97-2.81,1.69-2.58,1.75-5.41,2.53-8.28,1.01-3.7,1.94-7.12,6.59-6.01,2.02.48,1.96,1.33,3.31-1.07,1.66-2.96,2.32-7.47,6.69-7.41,2.68.04,10.39,4.89,12.55,6.76,1.66,1.44,3.13,3.26,4.43,5.02l.5-1.42c1.04-1.78,2.37-.3,3.59.43,2.23-.68.12-1.77-.29-3.01-.25-.75-.56-2.05.35-2.46.38-.17.87,0,1.15-.39-1.98-1.93,0-3.93,2.32-3.76.02-2.23-.72-1.17-1.98-1.21-1.44-.05-2.06-.91-1.84-2.31.13-.83.68-1.16.91-1.87-.76-.48-1.53-1.48-2.07-2.27-5.66-8.18-1.55-20,3.36-27.63s13.07-9.42,20.71-3.76c1.36,1.01,2.56,2.49,4.13,3.2,2.54,1.15,4.82.26,7.37.16,9.06-.35,12.47,8.67,10.81,16.4-2.05,9.51-9.36,15.71-18.74,17.53l-.45.34c.3,3.33.73,6.67.95,10,.16,2.49.29,5.04.4,7.51.05,1.13-.2,2.85,0,3.86.12.62,2.02,1.98,2.6,2.61,2.55,2.72,5.12,7.3,5.13,11.09,0,1.41-1.41,3.18-2.91,2.99l1.74,3.47c.3.23.63-2.54,2.07-2.86,2.66-.59,2.3,3.92,2.66,4.01l2.62-2.2c1.01-.89,6.21-3.26,6.7-1.14.28,1.23-2.49,4.7-2.28,4.88,4.15-.74,2.96,2.17,1.74,4.63,1.04.2,2.1.16,3.03.74,2.26-1.93,4.43-3.9,7.51-4.39,1.88-.3,3.48.17,5.29.17-.73-.57-1.2-2.52-.59-3.19.81-.89,2.38.44,2.52.3-2.26-4.95-.29-12.51,4.65-15.12,1.09-.58,1.72.26,1.72,1.33v7.81c.83-.22,1.43-.54,2.33-.28.45-.25.49-3.26.6-4.03.92-7.05,2.45-14.03,3.23-21.08.32-2.93.54-5.89.62-8.83-7.72-2.45-14.68-6.93-17.66-14.78-2.96-7.8-.57-21.54,10.04-20.84,1.84.12,3.65.96,5.42,1.14,5.27.53,5.71-1.42,9.54-3.72,6-3.6,11.69-2.59,15.93,2.94,4.08-.27,5.47.45,3.93,4.57-.42,1.11-.8,1.34-.37,2.78,3.32.43,6.14,2.4,4.12,5.98-.57,1.01-2.53,2.35-2.7,2.9-.16.49-.17,2.27-.1,2.82.12.87,1.81,2.02,2.42,2.78,1.76,2.2,2.34,5.22-.94,6.2-.51.15-2.56.33-2.62.66,1.82,3.77.91,6-3.56,4.71-1.23,1.27.28,1.74.75,2.9.93,2.28-.53,3.19-2.6,3.47-.26.29,1.27,1.15,1.44,1.55.32.76-.07,2.05-.69,2.59s-2,.45-2.11.79c-.29.91,1.15.46,1.32.99.1.29,0,.72.03,1.04h-.97c-.16.16.18,2.58.97,2.24,1.31-.91,2.98-1.48,4.3-2.27,4.16-2.49,10.3-10.15,14.99-4.3,1.36,1.69,2.44,6.6,4.93,6.66,1.11.03,2.58-.47,3.8-.15.38.1,1.55,1.15,1.79,1.49,1.12,1.57.66,2.67.91,4.3.14.91.83,1.9.92,2.84.77-.31,1.13-.82,2.04-.95,3.55-.48,4.62,2.5,6.16,5,1.09-3.23,2.15-6.53,4.18-9.32.57-.78,3.17-3.88,4.22-3.13.56,1.72.45,3.96.37,5.8-.06,1.41-.22,3.2-.41,4.61-.25,1.88-.78,3.74-1.1,5.6.8.64,1.54.82,2.06,1.78l.99,2.57c.09-2.09,3.56-8.13,5.7-8.12.59,0,.88.46.83,1.03-.11,1.19-.97,3.22-1.22,4.57-.17.93-.4,2.08-.47,3s.19,2.71-.04,3.44c-.08.25-.28.37-.54.32-.44-1.37-.49-2.91-.4-4.35.14-2.13,1.01-4.16,1.07-6.26-2.45,2-3.8,5.14-4.29,8.25-.18,1.14-.15,2.13-.23,3.24-.03.34.04.63-.3.86-.48.09-.24-.36-.29-.67-.29-1.7-1.02-7-2.26-8.02-1.82-1.48-4.2.23-5.44,1.65-2.14,2.43-2.74,5.41-2.13,8.58-1,.41-2.45-.03-3.34.23-.45.13-1.14,1.28-1.85,1.33-.22.37,1.36,2.2,1.71,2.59,5.03,5.61,12.39,6.57,19.46,4.98,2.74-.62,8.17-3.63,9.22.34,1.3-.23,7.71.11,8.15,1.47.07.2.22,1.17-.25,1.03-.58-.17-1.41-.76-2.12-.97-2.14-.63-4.23-.18-6.39-.68-5.01,4.8-11.27,7.93-17.95,9.74-5.04,1.37-10.28,2.14-15.52,1.95.68,2.57,1.63,5.11,2.18,7.75.36,1.74,1.28,5.99.37,7.44-.22.35-.78.75-1.14.98-2.85,1.83-10.76,3.19-13.95,2.25-.3-.09-.51-.41-.88-.47-2.61-.48-7.21.87-6.56-3.49.39-2.59,2.24-3.61,3.09-5.78,1.53-3.87-1.06-4.39-3.17-6.85-.93-1.08-1.63-2.35-2.43-3.53-2.84.45-5.79.71-8.66.54-1.36-.08-3.2-.6-4.44-.6-.32,0-.66.01-.88.29-1.36,1.71,3.77,10.64.51,14.01-2.76,2.85-12.81,3.84-16.59,3.26-.79-.12-1.18-.79-1.6-.91-1.58-.46-3.95.65-4.12-2.25-.21-3.78,3.09-4.19,4.61-6.79,1.84-3.14-.95-6.21-1.99-9.14-1.38-3.89-1.18-7.34.98-10.89-2.14-4.66-2.72-9.54-2.42-14.64-1.84-1.26-2.04,2.12-3.39.85l-.48-9.45c-.45-.12-.32.11-.44.24-1.87,2.15-2.5,6.34-2.26,9.11.12,1.28.74,2.47.77,3.76-.43-.21-.63-.83-.78-1.25-1.12-3.2-.63-7.04.58-10.13-2.89,3.52-3.46,8.22-1.74,12.45.35.85.98,1.38.97,2.21-.35.35-2.37-.72-2.77-.99-.36-.24-.38-.8-.89-.74-.77,1.29,2.23,3.4,2.12,3.95-.16.78-2.34-.34-2.81-.47-4.14-1.08-6.78-.45-10.03,2.3-.84.71-3.96,3.98-3.97,4.92s1,.94,1.68,1.04c3.93.59,9.49.19,13.46-.39,1.11-.16,4.78-1.23,5.42-1.14,1.04.14.65.96-.27,1.26-4.02,1.32-16.53,2.45-20.32,1.01-3.05-1.15.11-3.57.63-5.36-5.84-.15-2.72-1.32-2.2-4.04.55-2.87-3.49.39-4.15.5l-.39-.23c-.39-1.52,3.97-4.9,3.66-6.83-2.37-.12-4.68,1.66-6.37,3.18-.58.52-1.12,1.96-2.12,1.36-.8-.48-.24-4-1.61-4.33-1.05.18-1.42,3.78-1.95,4.42-.21.24-.48.21-.76.2-.36-.08-1.01-4.91-2.13-5.62l-4.74-.76c-.28,3.56-1.54,6.91-3.05,10.09,1.6,3.14,3.21,6.39,3.76,9.93.72,4.63-1.43,8.3.15,13.16.93,2.84,3.6,3.58,4.4,6.21.74,2.44-.03,3.69-2.38,4.49-1.38.47-2.41.16-3.74.31-.73.08-1.72.56-2.53.57-.7,0-1.28-.32-2.1-.19-.55.09-.9.49-1.55.57-2.04.26-8.52-1.5-10.28-2.66-4.79-3.17-.88-9.33-1.42-13.82-.24-2.01-2.12-4.06-3.2-5.71-1.55-.03-3.05.44-4.59.58-1.64.14-3.34-.03-4.98.23-1.63,2.15-3.7,3.12-4.66,5.76-.68,1.87-.96,5.87-.2,7.71.26.61.94,1.19,1.29,1.79.69,1.2,1.89,4.06.64,5.15-.37.32-2.95,1.14-3.49,1.16-.86.03-2.23-.41-3.05-.34-.33.03-.79.4-1.23.48-1.68.29-3.18-.43-4.59-.36-.59.03-.84.55-1.34.57-2.33.08-6.48-1.11-7.91-3.08-1.11-1.54-.99-3.65-.89-5.49.2-3.84,1.28-7.61,2.32-11.27-3.71.05-7.4.02-11.09-.39-6.9-.77-16.12-4.06-22.63-2.17-1.19.35-5.27,2.66-5.05.17.24-2.67,5.8-5.32,8.05-6.04,6.52-2.08,14.08-2.67,19.43-7.39.47-.42,2.32-2.25,2.2-2.74-.29-1.19-3.57-4.06-4.8-4.48-3.95-1.35-5.66,2.87-7.97,5.04-.65.61-1.81,1.79-2.49.59s-1.09-3.09-1.85-4.51c-2.9-5.38-9.74-10.62-16.14-9.9-2.63.3-1.48,2.96-3.38,3.86v-1.93ZM37.14,134.57h4.73c-1.73-2.72-2.88-5.82-3.09-9.06.56-.09.32.12.41.45.22.78.27,1.62.5,2.4.41,1.4,1.72,5.02,2.75,5.93.66.58,2.8.28,3.67-.01l2.21-4.51c-.42-2.42-1.21-4.75-1.06-7.26.04-.69.47-3.08.78-3.61.14-.24.5-.36.77-.34-.08,1.67-.48,3.23-.38,4.92.11,1.84,1.35,5.23,1.15,6.74-.1.72-1.67,3.1-2.07,4.11-1.61,4.03-2.91,10.88-2.95,15.2,0,.61.66,3.58,1.55,2.98.52-3.53,4.53-7.03,6.37-2.31,2.05-2.88,4.52-2.29,5.6.96.87-1.19,1.48-3.4,3.35-3.27.6.04,1.07.51,1.66.57-1.21-3.26-1.21-6.76,0-10.03-2.24.35-4.44.27-6.6-.44-1.26-.41-2.22-1.18-3.4-1.71l-.03-.74c2.58,1.91,6.48,3.09,9.7,2.45.35-.07.64-.09.53-.52-2.37-.21-5.98-1.19-7.9-2.62-.73-.54-.88-1.29.16-.74,2.36,1.23,3.84,2.35,6.7,2.56,1.26.09,1.43.07,2.45-.59,5.16-3.31,5.54-11.09,4.71-16.6-.13-.84-1.33-4.59-1.27-4.84.19-.78,1.01-.61,1.36.11.7,1.43.7,3.75,1.09,5.28.07.27-.12.54.31.45,1.54-1.52,3.17-3.09,4.31-4.96.96-1.57,3.18-6.55,2.92-8.24-.14-.89-1.43-1.72-2.02-2.42-1.05-1.25-2.06-2.59-2.61-4.14-.2-.56-.89-2.45-.07-2.6.84.26.84,1.5,1.2,2.24,1.59,3.33,4.65,5.45,6.31,8.74,1.36-1.11,2.18-2.08,4.14-1.93l-.38-1.16.75.02.89,1.9c.62-.81,1.05-1.86,2.22-1.93.1-.1-.74-1.45.12-1.72,1-.31.3,1.24.66,1.52l1.51-1c.11-2.23-2.67-2.51-3.53-3.45-.4-.44-.68-1.66-1-2.28-1.4-2.69-2.91-4.89-5.23-6.87.26-1.54,2.27.37,2.85.95.35.35,1.4,1.91,1.63,2.03.29.15.26-.11.33-.24.21-.41.53-1.19.69-1.63,1.88-5.36,2.16-12.81,1.98-18.48-.02-.55-.27-1.07-.2-1.63.56-.16.56.92.59,1.25.29,3.89-.12,8.15-.37,12.04,3.49.89,7.23,1.33,10.76.39.07-5.03-.54-10.04-1.15-15.02-1.88.23-6.74.88-8.34.15-.68-.31-.38-.85.33-.93,1.3-.15,2.91.1,4.26.02,6.29-.36,14.35-3.22,18.52-8.11,1.85-2.17,3.88-5.6,3.95-8.49-4.11,1.13-7.56,4.4-11.89,4.8-1.79.16-4.41-.08-6.05-.84-.68-.31-1.73-1.52-2.26-1.32-.46.17-.95,2.58-1.24,3.22-3.12,7.09-14.54,5.84-13.86-1.71.29-3.19,3.77-5.69,6.85-5.69h2.99c-.74-.8-1.6-1.1-2.28-2.06-2.06-2.9-1.56-8.16,1.86-9.84,6.46-3.18,10.38,7.92,4.65,11.21-4.17,2.39-10.08-.3-12.79,4.38-4.05,7,8.05,11.43,11.88,3.97.71-1.38.46-4.72,2.04-5.09,1.73-.4,1.24.75,1.71.9.66-.13,1.2-.25,1.89-.16.62.08,1.43.68,1.56.69.12,0,1.45-.76,2.15-.89,2.35-.42,3.79-.91,6.03-1.87,1.78-.76,3.18-1.81,5.32-1.62.75.07,1.44.48,2.22.38.37-2.45.3-5.4-.67-7.71-.38-.91-1.25-2.87-2.41-2.51-.06.63.06,1.23.58,1.65l1.15-.1c-.82,2.59-3.1-.52-2.09-2.1l1.13-.12c-1.62-2.04-4.19-3.42-6.85-3.39-1.64.02-3.54.64-5.21.6-4.22-.09-6.18-3.36-9.41-5.25-7.66-4.47-14.14-1.06-18.03,6.15-.18.34-.74,1.28-.78,1.55-.08.57.62.89.91,1.33,1.91,3-.22,7.95-4.13,7.06l-.18.13c-.91,3.7-1.35,8.17.19,11.78,1.77,4.16,6.24,6.18,6.8,10.95.27,2.32-1.28,7.31-2.57,9.29-3.04,4.65-8.44,4.87-12.97,7.19.26,2.25,2.65,5.28.11,7.15-2.67,1.96-5.13-1.54-4.87-4.1-2.27,1.78-4.56,3.64-6.27,5.98,1.78.69,1.93,4.36-.14,4.78-1.37.28-2.01-.51-2.94-1.31-.33.91-1.97,2.08-1.71,3.13.29,1.15,2.29,2.44,1.1,4.27-1.04,1.6-3.84-.58-4.02-.46l-3.68,6.05c2.84,3.04.99,7.55-2.79,3.4l-3.78,3.42c-.13,1.44.61,3.82-1.45,4.09-1.7.22-2.19-1.6-2.98-1.46-.27.05-3.16,1.24-3.28,1.37-.28.32-.34,1.57-.87,2.21-.89,1.08-2.85,1.01-3.94.28-.91-.61-.44-.99-1.95-.77-2,.29-1.18.69-1.84,1.83-.49.85-1.51.93-2.37.66-1.35-.43-.61-1.36-2.77-.39-1.31.58-3.19,1.96-3.98,3.16-.11.16-.4.51-.13.64,3.16-1.53,6.32-2.19,9.85-1.93l14.17,2.51c-.59-1.2-.94-3.01-.97-4.35,0-.34-.02-.74.39-.86.28,1.74.21,3.62,1.21,5.15.46.38,2.6.37,3.33.43.26.02.48.19.57.2ZM180.59,128.4v-2.8c0-.44.32-1.93.44-2.45.18-.73.41-1.59,1.01-2.08l.47.31c-1.16,4.68-.97,10.23,1.22,14.59.46.92.96,1.81,1.78,2.47,1.13-3.26,6.93-2.36,6.66,1.35l2.51-.77c.12.56-.19.3-.42.44-1.4.83-2.22,1.59-3.94,1.85-.23.03-2.36-.14-1.81.4,1.89.66,3.97.25,5.78-.48.63-.25,1.08-.77,1.74-.86.61.62-2.57,1.68-2.94,1.79-1.19.35-2.62.71-3.82.33.78,2.44-.45,4.18-1.13,6.34l1.13.61c.14-.77,1.28-1.09,1.99-.93,1.17.26,1.58,1.8,2.17,1.9,1.02-.7,1.71-1.8,3.09-1.76,2.55.08,3.37,4.11,4.07,6,1.57-.29,5.76-1.26,5.88-3.19.08-1.34-.57-4.46-.87-5.89-.7-3.26-1.79-6.44-3.35-9.38-.41-.77-2.28-3.52-2.35-4.02-.04-.3,0-.34.29-.29l.87.38c.47-2.79,1.19-5.52.96-8.39-.09-1.16-.7-2.7-.73-3.72-.02-.72.53-.84.94-.34.3.37.91,3.59.96,4.25.24,3.05-.32,5.96-1.16,8.87l1.92,3.3c1.06.66,3.97-2.08,4.64-2.89,1.1-1.33,1.27-2.4,1.88-3.92.12-.29-.11-.52.43-.42-.16,2.48-1.5,4.6-3.38,6.17l-2.21,1.55c9.34-.17,19.01-2.22,26.92-7.32.98-.63,4.23-2.95,4.62-3.87.83-1.96-2.68-.82-2.76-.46-.07.3.49.9-.12,1.24-.29-.19-.7-.86-.99-.92-.12-.02-2.29.56-2.39.63-.49.33.41,1.42-.46,2.05-.97.7-2.1-.37-2.56-1.17l-3.15.1c-.32,2.59-1.71,2.98-3.95,2.03-1.78-.75-1.3-1.97-1.82-2.42-.22-.19-1.97-.55-2.51-.77-.96-.4-1.88-.95-2.8-1.44-.41,1.23-.83,3-2.42,3.01-1.46-.85-1.19-2.59-1.16-4.08.01-.68.41-1.07.02-1.74-.09-.15-1.57-1.77-1.69-1.8-1.4.65-2.72.98-3.57-.66s-.01-2.77.59-4.23c-.05-.23-2.3-3.76-2.48-3.91-.14-.11-.34-.2-.39,0-.35,3.26-4.28,3.09-4.78-.05-.38-2.38,2.09-3.57,2.08-4.2-.13-.77-4.99-5.6-5.41-5.11.48,1.65.09,4.02-1.88,4.4-3.27.62-2.95-5.18-1.87-6.91-.28-.45-5.05-2.16-5.81-2.3-1.02-.19.16,1.35.26,1.87.4,2.15-.46,4.16-2.92,3.9-3.21-.34-2.94-4.8-2.71-7.13-4.9-1.6-7.58-5.27-8.16-10.36-1.33-11.78,6.98-15.31,7.67-25.4.05-.79.13-4.7-.03-5.19-.14-.43-.98-.29-1.47-.46-3.22-1.11-2.94-5.81.31-6.82-1.24-7.29-7.85-14.84-15.84-11.11-4.83,2.25-5.62,5.52-11.99,4.93-2.55-.24-4.88-1.61-7.5-1.28-6.32.81-8.96,10.27-7.48,15.57,1.88-.99,4.45-.37,6.41.25,1.47.47,3.42,1.45,4.13,2.85.77.12,1.3-1.54,3.12-.28.23.16.43.63.53.64s.93-.61,1.74-.58c.62.02.95.37,1.36.4.74.06,2.33-1.02,2.6.2h.28c.35-.87,1.11-.61,1.83-.87,1.14-.4,2.99-1.46,4.06-.34.84.87,1.17,3.51,2.31,4.96,3.52,4.46,11.65,3.2,10.78-3.06-.36-2.59-3.25-4.35-5.68-4.55-1.62-.13-3.03.44-4.44.4-.63-.02-2.62-1.2-3.24-1.6-2.85-1.85-3.22-6.83-.91-9.32,1.17-1.27,4.15-2.45,5.7-1.44,2.83,1.84,3.24,6.87,1.14,9.44l-2.01,1.85c.27.6,3.54.11,4.52.29,7.25,1.31,7.51,10.35.57,11.17-5.1.6-7.62-2.74-9.45-6.94-1.69.56-3.2,1.79-4.94,2.38-4.69,1.59-9.3.8-13.67-1.3-1.39-.67-5-3.13-6.26-3.2-.32-.02-.32-.03-.28.28.22,1.84,2.25,5.51,3.39,7.04,4.26,5.73,13.31,9.55,20.27,10.41,2.08.26,4.17.11,6.24.42.6,1.47-2.72.66-2.89,1.27-.04,1.36-.41,2.68-.57,4.03-.6,4.91-.69,9.94-.57,14.84.06,2.47-.11,5.12.86,7.43.21.1.76-.75.84-.9.37-.74-.37-2.13-.5-3.11-.05-.4-.08-.8-.05-1.2,1.08-.09,1.12,3.17,1.65,3.28.96-.1,2.38-1.94,2.79-.49-3.52,2.21-5.53,5.91-8.09,9.05.03.15,1,1.07,1.2,1.14.52.19,1.13-.51,1.11.81,0,.42-.27.82-.19,1.26l1.16-.19v1.16c.49-.26.87-.26,1.35,0,.24-.3-1.13-1.68.77-1.54.12.54-.26,1.13-.19,1.62.05.39.55.82.68,1.26.11.36-.06,1.34.38,1.16.13-.05,1.55-.95,1.65-1.05.67-.72,1.14-2.49,1.95-3.45.57-.67,1.68-1.46,2.3-2.14,1.28-1.42,2.24-2.88,2.79-4.73.84-.61.96.3.82,1.01-.62,3.12-2.45,3.94-4.3,5.92-2.27,2.43-.2,6.71,1.3,9.13,2.23,3.6,5.5,6.76,9.61,8.04ZM177.89,43.14c.35-.76,1.3-2.67.06-3.05-.34-.1-1.89-.18-1.7.34.65.66.81,1.73,1.21,2.46.12.22-.01.33.43.24ZM91.65,45.27c.03-.8.45-1.31,1.15-1.65,1.2-.58,2.25.49,3.29-.76-2.35-3.05-6.09-.58-7.04,2.41s.75,7.18,4.34,6.75c.14-.12-1.52-2.12-1.7-2.45-.61-1.13-1-2.64-.47-3.87.12-.29.35-.32.43-.43-.1,2.79,3.24,1.43,2.41-.38-.65-1.42-1.79-.43-2.41.38ZM74.57,42.76c-.35,0-2.67,6.09-2.59,6.44.14.58,1.79.32,2.29,0,1.99-1.24,2.51-5.09.3-6.45ZM162.07,53.37c3.28.43,5.24-2.9,4.78-5.84-.31-1.92-2.15-4.62-4.4-3.91-1.87.59,1.3,1.75,1.36,1.94l-.14.48c-1.58-.04-1.39,2.15.04,2.15.27,0,.51-.13.66-.14.48-.02.29,1.11.19,1.55-.38,1.64-1.96,2.29-2.49,3.77ZM177.89,47.58c-3.56,1.51-2.86,5.41.77,6.17.31-2.02-.26-4.2-.77-6.17ZM180.02,53.17c.55.56,2.36-2.25,2.27-3.14-.13-1.43-1.74-2.32-3.05-2.46.25,1.87.97,3.67.77,5.59ZM115.38,53.56c-1.24-.23-2.02-.29-2.31,1.16.24.22,2.79-.77,2.31-1.16ZM112.68,53.95c-1.18-.5-2.35.51-1.73,1.73.95-.12,1.24-1.07,1.73-1.73ZM109.33,55.14c-.49.05-2.04.68-1.49,1.42s2.1.02,2.43-.49c.28-.42-.57-.96-.94-.93ZM138.34,56.07c-.36-.63-1.31-.58-1.93-.58.12.89,1.33.82,1.93.58ZM141.04,58.19l-.38-1.84c-.81-.25-1.67-.54-2.32.2l1.68,1.21,1.02.42ZM104.96,58c.93.05,1.97.01,2.7-.67-.66-1.76-2.9-1.09-2.7.67ZM141.62,56.65c.06.51-.15,1.28.1,1.73.12.22,2.48,1.38,2.7,1.35.33-.04.25-.23.1-.48-.75-1.25-1.29-2.37-2.89-2.61ZM101.68,58c.39-1-2.33-1.48-2.31-.87l2.31.87ZM104.55,57.97c.33-1.77-1.39-1.24-2.09-.26-.16.72,1.72.52,2.09.26ZM147.97,60.68c.49-1.34.36-2.2-1.2-2.47-2.44,1.47-.92,2.44,1.2,2.47ZM151.62,60.66c.54-.47-.33-1.74-1.02-1.81-1.18-.11-1.84.8-2.04,1.84.25.25,2.76.23,3.05-.03ZM155.44,58.79c-.28.1-.67.93-.22,1.13l1.26-.67c.11-.47-.7-.58-1.04-.46ZM154.33,59.37c-.13-.23-1.39-.62-1.71-.31-.52.23-.22.84-.09,1.26.18.29,2.25-.15,1.8-.95ZM178.09,66.1c2.08-.42,4.92.3,4.42-2.78-.22-1.38-1.71-2.42-2.59-3.38-.45-.08-.25.2-.28.48-.2,1.95-.55,3.99-1.55,5.69ZM175.77,71.11c3.29.92,3.28-.76,1.83-3.08.05.61-2.11,2.76-1.83,3.08ZM76.21,70.73c.38-1.03-1.12-2.19-1.65-1.16-.3.57,1.11,1.35,1.65,1.16ZM48.62,77.09c2.57-.18,5.27-1.06,7.33-2.6-3.14-2.44-6.44-1.18-7.33,2.6ZM77.18,76.51c-.06-.54.43-1.49.11-1.94-.43-.61-2.15.06-1.83,1.04.18.31,1.49,1.12,1.72.9ZM173.94,74.4l-1.18,2.87.22.4c2.4-.15,2.71-1.83.96-3.27ZM161.08,77.26c.19-.38.46-1.31-.1-1.49l-7.79-1.19-.18,1.43c.04.18.18.2.32.27.37.19,3.06.71,3.65.79.63.09,3.79.38,4.1.19ZM56.67,75c-.42.07-1.54.99-2.06,1.23-1.27.6-2.83,1.11-4.21,1.39-.56.11-1.21-.14-1.59.34,2.2,1.27,5.01,15.7,6.07,15.72,1.2-.83,2.22-1.93,3.39-2.78.66-.48,4.52-2.67,4.59-2.95l-1.22-10.09c-.82-.59-4.14-3-4.98-2.86ZM161.11,77.48h-4.34c-.77,0-2.48-.79-3.36-.89l-.37.24-.63,6.7-2.04,12.38c2.62,1.19,6.07,1.49,8.94,1.07.37-.05.73.4.84-.31.42-2.71-.31-6.44,0-9.27l.97-9.93ZM48.62,77.86c-.35-.07-.48.17-.66.4-.71.89-1.19,2.5-2.04,3.55-.44.54-2.51,2.11-2.48,2.48l8.36,12.29c.41-.06,2-1.76,2.13-2.14.22-.66-1.21-3.72-1.5-4.66-1.23-3.98-1.98-8.14-3.81-11.92ZM76.02,80.18l.35-1.81c-.41-.97-1.48-.28-1.96.25-.58.65,1.4,1.79,1.61,1.56ZM62.52,78.25l1.25,9.64,2.2-1.09c-.14-1.09-.18-2.15-.18-3.25,0-.67.26-1.21.19-1.9-.15-1.45-2.34-2.64-3.46-3.4ZM171.91,79.21v2.89l1.62-.36c.53-1.28-.38-2.26-1.62-2.53ZM192.94,84.42c-1.05-4.11-4.83-5.55-8.09-2.58-.24,1.4,6.84,3.3,8.09,2.58ZM44.18,82.3c-2.73-1.48-5.51-1.03-6.17,2.31,1.63.07,3.64-.35,5.01-1.26.24-.16.28-.46.45-.61.18-.15.66-.07.71-.44ZM66.56,82.11v2.99c0,.21.44,1.35.71,1.43.43-.08,2.11-.4,2.14-.85-.44-.93-1.01-1.92-1.7-2.7-.14-.16-.96-1.1-1.15-.87ZM179.09,86.01c-.02,1.2.1,2.3-.07,3.5-.14.97-1.24,3.49-.77,4.09l13.24,4.15c.31-.24,2.05-4.7,2.3-5.43.31-.91.96-2.52,1.05-3.39.15-1.52-.93-2.51-1.52-3.84-3.56.09-6.59-.49-9.52-2.57l-4.72,3.48ZM71.3,82.88c-.94.19.56,3.41,1.23.91l-1.23-.91ZM43.61,100.05c.34-.07.48.17.66.4.33.41,1.63,3.26,1.94,3.26l5.09-6.8-8.17-12.11c-.72-.42-1.73.34-2.57.54-.95.22-1.94.25-2.91.27-.84,2.17-.96,4.51-1.67,6.72-.37,1.16-1.34,2.61-1.56,3.47-.19.76,1.53,3.21,2.08,3.92,1.35,1.74,3.51,3.6,5.28,4.94.46.35,2.24,1.8,2.67,1.72l1.28-2c-.74-1.41-2.09-2.63-2.12-4.33ZM178.26,86.95c-1.03-.4-1.94.67-2.87.95-.32.38.9.58.97,1.26.13,1.32-2.52,2.43.67,3.73.61-.05,1.6-5.15,1.23-5.94ZM99.56,95.61v-8.01l-.4-.21c-3.39,1-7.18.47-10.59-.26-.43,3.07-1.28,6.04-2.32,8.95l1.97,4.5c2.92.99,4.67,3.62,4.98,6.59,2.11.29,4.24-.32,6.36-.37l.1-10.62c-.17-.26-.28-.08-.44-.06-1.46.16-2.95.75-4.57.85s-3.67,0-5.22-.4c-.27-.07-.6,0-.68-.38,3.68.57,7.22.48,10.8-.58ZM193.13,98.89c1.7-3.15,3.23-6.5,3.78-10.04-.04-.05-1.04-.51-1.2-.55-.38-.11-.21.05-.28.24-.61,1.7-.89,3.61-1.57,5.38-.32.84-1.84,3.53-1.85,4.13,0,.44.7.82,1.12.83ZM173.67,89.08c-.19.31.2,1.42.64,1.32l.79-1.35-.55-.35c-.16.13-.84.31-.88.38ZM202.97,92.52c.26-1.93-1.39-4.12-3.47-3.66-.45.52,2.52,3.77,3.47,3.66ZM197.29,102.06c.85.79,1.6,2.05,2.67,2.61.4-.08,4.24-5.8,4.31-6.48.02-.22-1.01-4.01-1.13-4.19-.35-.54-2.18-1.6-2.78-2.23-.39-.41-1.74-2.64-1.95-2.68l-.61.21c-.81,2.29-1.47,4.67-2.46,6.9-.34.77-1.87,2.64-1.25,3.37.55.65,2.37,1.73,3.19,2.49ZM212.24,114.9v-2.8c0-2.25,2.78-6.53,4.82-7.53.64-.32,2.26-.56,2.48-.99.38-.76,1.08-5.59,1.19-6.72.21-2.07.19-4.19.19-6.27-.29.08-.47.39-.62.64-.57,1.01-1.45,3.37-1.84,4.52-.58,1.72-.89,3.52-1.4,5.25-.5.08-.4-.08-.38-.48.06-1.29.97-4.21,1.45-5.5.69-1.84,1.89-3.52,2.41-5.4-3.97,3.27-5.51,8.69-6.75,13.5-.31.04-.44.02-.67-.19-.48-.45-1.77-3.58-2.45-4.5-.91-1.24-2.08-2.18-3.72-1.86-.64.12-2.4,2.98-2.4,3.56s1.26,1.89,1.24,3.28c-.04,1.95-3.4,3.8-3.34,4.4.2.44,1.36,2.73,1.79,2.63.85-1.01,1.79-1.97,2.61-2.99.35-.43.66-1.16,1-1.51.73-.76.94-.22.57.57-.68,1.43-2.98,3.29-3.54,4.57-.17.39-.16.51-.06.91s2.64,4.79,2.92,4.83c.74.12,1.57-1.54,2.14-1.91l2.38-.04ZM62.51,90.02c-.41-.29-3.21,1.81-3.68,2.25-.05,1.97,1.92,5.84,4.17,3.74,1.63-1.52-.07-4.27-.49-5.98ZM106.88,104.48c-.75-3.73-3.21-6.54-5.69-9.25-.26.18-.27.39-.3.67-.21,1.89.3,4.16.21,6.19-.03.58-.51,2.9-.31,3.18.13.18.94.36,1.25.68.4.41.28,1,.78,1.24.14-1.1,1.3-1.62,2.32-1.54-.26-.92-.8-1.76.58-1.93l.31.95.84-.19ZM179.82,96.29c-.13.88,0,2.32,0,3.28,0,.87,1.26,2.16,2.22,2.23,2.04.15,2.48-1.84,1.92-3.48-.74-2.16-1.83-1.98-3.84-2.51-.11.02-.3.44-.31.48ZM30.25,98.93c-2.35-1.9-4.74-4.21-7.77-1.97-1.94,1.43-2.03,3.56-2.59,5.7-1.89-.11-4.79.99-5.33,2.98-.32,1.18,1.87,2.39,2.62,3.19,2.4,2.58,3.81,5.34,5.13,8.58.26.08.39-.07.57-.18,1.01-.61,2.56-3.16,3.75-4.16,4.43-3.73,8.34-.34,10.9,3.57.3,0,3.36-4.21,3.57-4.73.13-.33-.11-.25-.26-.31-.96-.35-2.17-.45-3.21-.85-1.47-.56-5.27-2.47-6.25-3.58-2-2.27-1.53-5.51-1.12-8.24ZM160.14,97.54c-2.38-.07-4.83.18-7.19-.24-.84-.15-1.63-.61-2.47-.64-.24.19-.66,3.14-.74,3.71-.09.66-.52,3.6-.32,3.93.42.35.94.51,1.45.67,1.38.46,6.98,1.47,8.1.96.34-.16,2.09-2.67,2.12-3.09.09-1.31-1.23-3.76-.96-5.3ZM33.95,96.77c-3.79,1.49-4.69,7.37-1.93,10.13,1.17,1.17,7.16,3.87,8.79,3.95.97.05,1.89-.68,1.45-1.66l-6.38-3.94c.4-.04.73,0,1.1.15,1.78.69,3.91,2.72,5.78,3.49l.95-1.32c.08-.14.07-.25,0-.39-.16-.3-3.1-2.4-3.68-2.9-2.52-2.17-4.6-4.5-6.09-7.52ZM51.63,98.9c-.28.06-1.98,2.31-2.01,2.63.28.93,1.48,1.24,2.34.99,1.51-.44.29-3.75-.33-3.62ZM193.67,101.05c-.07-.12-2.24-1.45-2.46-1.5-.24-.06-.31-.16-.49.11-.55.84-.71,3.83-.27,4.7.55,1.07,2.22,1.23,2.85.2.25-.42.57-3.15.36-3.51ZM204.13,101.4c-.38-.06-.55.25-.76.49-.41.45-2.57,3.35-2.63,3.75l.7,1.17c.15.11,2.78-1.86,2.98-2.32.42-.92-.2-2.15-.29-3.08ZM155.51,114.9v-3.57c0-.1.71-1.63.84-1.86.54-1,1.61-1.81,2.24-2.77,0-.46-1.99-.25-2.41-.29-2.4-.24-4.72-.89-7.04-1.35.11,1.49-.97,7.97,0,8.77.41.34,6.13,1.29,6.36,1.07ZM46.62,105.65l-1.65,2.77c3.07,2.36,4.3-.98,1.65-2.77ZM91.44,105.65c-1.75-.02-1.65,2.38-.86,3.43,1.8-.23,1.39-2.19.86-3.43ZM105.93,108.92c1.08-.57,1.34-2.56,0-2.89v2.89ZM101.08,106.23l-.56-.02c.21.54-.4,2.34.11,2.5,1.37.41.78-1.76.45-2.48ZM104.35,106.64c-1.27-.73-2.49,3-.35,2.59,1.27-.25.81-2.32.35-2.59ZM88.66,106.8c-1.09.5-1.78,2.08-.94,3.05,2.08.69,1.48-1.91.94-3.05ZM78.53,107.96c-.12,2.19-1.1,4.37-2.09,6.32-.1.25-.04.37.16.53.42.32,2.84,1.1,3.51,1.31,3.89,1.22,9.32,2.29,13.37,2.08.69-.04,3.2-.27,3.54-.7.32-.4,1.1-2.56,1.27-3.16.65-2.22.83-4.58,1.2-6.86-.11-.29-.35-.29-.62-.29-1.71,0-3.74.94-5.57.58-.45.86-.43,1.42-1.34,1.98-1.69,1.04-2.88.86-4.44,1.35-.32.1-.82.77-1.31,1-.78.37-2.8.24-3.7.07-.76-.14-2.23-1.13-2.65-1.78-.48-.75-.32-2.19-1.35-2.41ZM199.89,107.18c-.82,1.52-2.36,2.06-1.53,4.13.99,2.47,3.2.96,3.81-.91l-2.28-3.21ZM84.43,108.16c-.45.15-.4,2.12-.27,2.55.25.87,1.76.58,2.17-.05.28-.91-1-2.8-1.9-2.51ZM82.5,108.55c-.45.38-1.35.73-1.28,1.42.02.51,1.26,1.17,1.63,1.06.6-.18.22-2.57-.34-2.48ZM159.95,112.01c-.32-1.33-1.74-3.1-2.89-1.44l2.89,1.44ZM158.6,114.9v-2.8c-.39-.42-1.01-.63-1.56-.4-.42,1.8-1.01,3.48,1.56,3.2ZM160.33,115.48c-.06-.6,1.1-2.16.29-2.51-.64-.27-.78,1.07-.8,1.48,0,.15.1,1.47.51,1.03ZM161.11,116.64c.96.17,2.41-.38,2.04-1.55-.07-.23-.6-.88-.79-.95-.34-.13-.82,1.19-1.1,1.4l-.15,1.1ZM150.73,122c5.39,1.47,11.1,1.99,16.51.29.53-.17,3.44-1.32,3.31-1.87-1.52-1.75-2.19-4.06-2.7-6.28l-.69,1.14c-2.23,1.86-6.67,4.67-8.29.62-.92.33-1.7.14-2.59-.12-1.16-.34-1.19-.31-2.41-.48-1.58-.22-3.15-.55-4.73-.77,0,2.56.71,5.1,1.58,7.48ZM96.66,118.18c-5.2.94-11.16.11-16.2-1.45-1.55-.48-2.99-1.22-4.52-1.65-1.02,2.59-3.2,4.28-4.94,6.29l.33.46c5.08,2.84,11.74,5.61,17.71,4.83,2.5-.33,5.75-4.67,6.9-6.8.14-.26.85-1.54.74-1.67ZM40.52,115.48c-.39-.3-1.91,2.02-2.05,2.41,0,.6,2.24,2.08,2.73,1.06s-.35-2.48-.68-3.47ZM206.61,117.58c.14-.17-1.03-1.99-1.32-1.71-.56,1.76-.95,3.63,1.44,3.88l.25-.07c.8-.97.1-1.41-.73-1.98l.35-.12ZM151.07,122.62c2.39,5.95,6.47,8.15,12.83,7.71,3.67-.25,8.12-1.7,10.7-4.36l-3.79-4.68c-1.2.32-2.13,1.03-3.34,1.43-5.32,1.75-11.06,1.14-16.4-.1ZM96.66,121.46c-.25-.04-.25-.05-.4.12-.61.68-1.23,1.89-1.92,2.67-3.63,4.13-9.19,6.87-14.47,8.2-.37.43,3.08,4.47,2.93,5.56l3.63.62-.28.73-3.19-.54c.43,3.9-3.39,10.45,1.03,12.96.37.21,3.1,1.26,3.22,1.12-.06-2.34,2.67-6.61,5.12-4.06.23.24.93,1.65,1.25,1.36.38-1.54,1.8-2.9,3.52-2.46.68.18,1.22,1.39,1.59,1.3.64-1.15,1.78-2.08,3.19-1.93l-1.44-2.32c-1.22-2.86-1.25-5.83-.87-8.87-1.48,1.44-5.07.96-4.2-1.6.69-2.03,4.44-2.97,4.54-3.54-.44-3.31-1.96-6.3-3.24-9.33ZM88.95,127.05c-4.41.65-9.53-.74-13.58-2.53-1.5-.66-2.89-1.59-4.36-2.29.36,1.31-.83,5.65-.29,6.56.33.56,5.41,2.74,6.22,2.85,2.27.31,9.31-2.65,11.37-3.97.24-.16.56-.31.64-.61ZM210.5,122.42c-.15.92-.53,3.1.2,3.75,1.22,1.08,2.01-1.18,1.69-2.27-.16-.55-1.43-1.1-1.89-1.49ZM33.38,122.62l-2.42,1.34c.95,2.49,3.36.93,2.42-1.34ZM166.88,135.75c-5.15-1.32-10.15-3.34-13.69-7.44-.83-.96-1.49-2.36-2.22-3.18-.42-.47-.89,1.15-1,1.49-.52,1.65-.49,3.15-.44,4.87,2.17-.04,6.27,1.01,5.06,4-.38.94-2.18,1.53-3.13,1.4,1.54,2.46,2.17,4.63.66,7.31-.29.52-1.68,1.75-1.42,2.13l3.46,1.36c-.13-.72.19-.58.77-.67,3.95-.6,5.42,1.15,5.79,4.91,1.82-.06,6.84-1.39,7.54-3.17.27-.68.23-1.97.19-2.72-.21-3.41-2.27-6.77-1.57-10.29ZM25.47,126.09l-3.86,1.06c1.25,1.83,3.88,1.22,3.86-1.06ZM156.86,129.95c2.94,2.22,7.02,3.92,10.65,4.69s4.73.81,7.67-1.33c1.79-1.3,3.03-2.96,4.45-4.61l-4.5-2.38c-4.76,4.27-12.21,5.63-18.26,3.64ZM228.57,126.5c-.71.2.26,1.22.91,1.09.93-.19.4-1.46-.91-1.09ZM221.88,127.44c-.62-.89-3.09-1.2-2.1.27.51.76,1.31.45,1.89.61.2.05.42.38.73.45,1.1.24,1.76-1.52.73-1.71-.43-.08-1.39-.16-1.26.38ZM17.17,128.4c-.36-.1-1.66.12-1.54.67.76.92,1.79.63,1.54-.67ZM181.74,134.95l-1.22-5.69c-.53-1.06-2.19,1.82-2.63,2.32-.48.54-1.04,1.02-1.54,1.55l-3.28,2.21c2.9-.03,5.82.17,8.67-.39ZM76.21,132.07l-5.69-2.89-1.06,3.17.4.22,6.36-.51ZM99.12,132.1c-.55.09-2.56,1.51-2.82,2.02-1.29,2.5,2.89,2.88,3.55-.3.17-.81.37-1.9-.74-1.71ZM150.25,132.1c-.96.26.34,3.32.83,3.73,1.55,1.3,4.1-.75,2.42-2.61-.55-.6-2.48-1.32-3.24-1.12ZM187.48,137.12c-.81.18-1.57,1.27-1.2,2.08.73,1.57,3.62,2.04,5.01,1.16,1.17-2.58-1.6-3.73-3.82-3.24ZM149.14,147.31c-.4-.09-.44.21-.62.44-.8,1.01-1.2,2.38-.73,3.61l1.35-4.05ZM151.65,148.08c-.6,0-1.12-.81-1.65-.41-.41.31-1.7,3.61-1.44,3.88l1.94-.08,1.15-3.38ZM159.95,152.32c-.21-1.61-1.22-4.6-3.21-4.63-.57,0-2.23,1.11-2.68,1.54-.56.52-2.37,2.85-1.11,3.24,1.99.62,4.94.02,7-.15ZM103.8,151.93c2.02-.41-.38-4.94-1.54-4.05.95,1.26,1.44,2.45,1.54,4.05ZM153.58,148.08c-1.43.4-2.24,2.06-2.12,3.47l2.12-3.47ZM100.47,148.49c-1.45,1.06-.79,2.91-.63,4.42.31.46,3.19.11,3.2-.68,0-.22-.75-2.45-.93-2.75-.32-.52-.95-1.19-1.64-1ZM49.91,148.89c-1.41.12-2.95,2.9-2.81,4.26.67.82,4.61,1.89,5.09.9s-.87-5.29-2.28-5.17ZM95.85,148.89c-1.42.35-1.69,3.22-1.21,4.2.32.65,3.93.62,4.07-.28.1-1.39-1.21-4.33-2.86-3.92ZM63.06,154.03c-.04-1.66-.24-5.26-2.67-4.71-.98,1.26-1.66,2.92-1.27,4.55.16.22,3.69.56,3.94.15ZM93.19,154.06c.29-1.2-1.12-4.74-2.43-4.82-1.41-.09-2.6,2.84-2.38,4.03l4.81.79ZM57.86,154.23c0-2.05-1.91-6.89-4.11-3.63-.82,1.22-.26,2.1-.22,3.47.24.33,4.07.56,4.33.16ZM63.67,149.62c-.12.13.32,3.19.42,3.54.17.58,1.02.13,1.06-.15.01-.09-.13-1.5-.17-1.7-.06-.32-.94-2.1-1.31-1.68ZM190.77,149.65c-.84.16-2.15,2.57-2.4,3.4-.1.33-.38,1.3-.06,1.5.81.12,3.02.32,3.45-.43.22-.37.67-2.77.57-3.2-.13-.59-.9-1.4-1.56-1.27ZM196.36,149.65c-1.59.26-4.18,3.99-3.05,5.67.43.3,5.68-.16,5.91-.48.53-.74-1.37-5.44-2.86-5.19ZM187.29,149.84c-1.04.74-1.85,3.12-1.18,4.21.92,1.51,1.24-1.1,1.43-1.63.26-.72.57-1.45.95-2.12l-1.19-.45Z"/>
      <path d="M0,39.09c4.47,1.43,9.1-.42,12.12-3.8.1-7.33-.02-14.64-.15-21.96,0-.46-.2-.88-.21-1.33-.06-3.95.06-7.92,0-11.87h1.35l.39,19.96c.25,12.95.47,25.85.76,38.79.02,1.09.97,3.57-.97,3.28-.53-.38-.52-10-.56-11.4-.01-.46-.2-.88-.21-1.33-.12-4.02.03-8.05-.19-12.06l-3.47,2.22c-2.62,1.4-6.09,1.98-8.88.86v-1.35Z"/>
      <path d="M0,117.41c2.17-1.05,4.8-1.21,7.1-.44.85.28,1.86,1.07.42.94-1.83-.17-5.81-1.14-6.91.98-1.35,2.61,3.8,5.3,5.94,5.29.09.44.06.91-.47.95l-6.08.19v-1.16l1.93-.29c-.01-.55-1.48-1.08-1.93-1.25v-5.21Z"/>
      <path d="M222.85.13c.05,1.7-.07,3.42,0,5.12.55,16.56,1.84,33.11,5.28,49.31,3.22,15.2,10.56,36.53,6.98,51.66-.73,3.08-2.88,8.83-4.46,11.55-.75,1.3-2.22,2.14-2.94,3.43-.56,1.01-.57,2.27-1.29,3.15-.9.21-.34-2.05-.19-2.5.79-2.29,2.61-2.96,3.41-4.5.46-.88,1.14-2.91,1.59-4,3.74-9.1,4.17-15.18,2.77-24.94-1.56-10.94-4.71-21.56-7.01-32.34-1.88-8.79-3.33-17.69-3.99-26.68-.08-.27-.25-.36-.49-.47-.85-.38-2.41-.63-3.43-1.01-9.11-3.36-17.31-9.14-23.83-16.3-.64-.7-4-4.64-4.05-5.23s.57-1.13,1.08-.67c7.56,10.12,18.1,18.33,30.38,21.81l-.56-7.83c-6.68-3.43-12.61-8.25-17.67-13.77-.62-.67-2.86-3.02-2.8-3.76l.93-.06c5.26,6.52,11.87,12.6,19.53,16.16l-.43-7.67c-3.88-1.41-7.86-3.94-10.86-6.79-.37-.35-2.65-2.76-2.6-2.99.05-.22.43-.33.67-.3.49.06,2.93,2.82,3.57,3.38,2.64,2.32,5.99,4.42,9.26,5.69l-.39-9.45h1.55Z"/>
      <path d="M233.94,165.05c-.06,0-.38-.39-.48-.09,2.86,5.17-1.53,12.3-7.31,7.7-1.88-1.5-2.88-3.66-2.91-6.06-.16-.17-1.72.88-2.12,1.06-1.06.47-5.51,1.83-6.32,1.02-1.09-1.93.43-4.67,1.88-6.04.73-.68,1.83-1.08,2.52-1.82-2.97-.23-6.26-2.83-6.53-5.84.56-1.96,6.86-.91,8.26.05-.64-2-1.59-5.8-.47-7.7.72-1.22,1.95-.29,2.84.22,2.3,1.31,3.91,3.29,4.87,5.74.38.08.24-.08.33-.24,1.5-2.59,3.48-4.32,6.44-5.13,2.5-.69,3.63-.57,3.35,2.39s-2.72,6.1-5.21,7.72c2.3.19,4.68.54,6.66,1.83,1.38.9,2.77,2.63,1.07,3.97-.49.39-3.01,1.24-3.58,1.24-1.09,0-2.2.05-3.28,0ZM227.27,157.9c1.01-3.89-1.46-7.93-4.91-9.63-.37.28-.23.22-.13.51,1.04,2.92,3.36,5.83,4.18,8.94l.86.18ZM221.11,148.66v3.18c0,.54,1.37,3.66,1.74,4.24.47.74,1.99,2.75,2.9,1.92-1.01-2.62-2.07-5.32-3.37-7.81-.1-.18-.94-1.9-1.26-1.54ZM236.16,148.85c-4.65.66-7.88,4.53-7.72,9.26.42.09.63-.49.85-.79,1.04-1.41,1.89-2.97,3.02-4.32,1.22-1.46,2.79-2.56,3.85-4.15ZM229.6,158.68c.37.33,1.93-.81,2.3-1.08,2.68-1.92,5.48-5.03,5.03-8.57-3.09,2.59-5.63,5.97-7.33,9.64ZM222,156.84c-1.69-1.38-5.85-2.73-7.83-1.53l1.55.76c2.49.26,5.29,2.26,7.61,2.61.11.02.32.05.29-.1-.63-.46-1.05-1.29-1.62-1.75ZM214.36,155.99c.77,2.37,3.22,3.63,5.55,4,1.02.16,2.73.54,3.12-.62-.87-.68-8.34-3.69-8.68-3.37ZM223.67,162.11c1.47,1.12,6.42.34,5.71-2.13s-7.51-1.13-5.71,2.13ZM240.21,162.35c.29-.43-.79-1.28-1.09-1.51-1.88-1.43-5.54-2.26-7.78-1.48-.47.16-1.35.63-.95,1.23.12.18,2.92.36,3.49.46,1.82.32,3.92,1.17,5.59,1.36.28.03.46,0,.73-.07ZM222.85,162.16c-.25-1.84-2.49-.72-3.53-.15-1.73.95-3.39,2.54-3.61,4.59,1.8-2.2,4.41-3.7,7.14-4.44ZM239.44,163.12c-1.07-.39-2.13-.81-3.24-1.1s-6.35-1.63-6.61.23l1.61.9c1.97.96,5.4,1.12,7.45.44.21-.07.78-.21.78-.47ZM224.39,163.32c-1.65-1.12-3.39-.16-4.95.74-.65.38-4.12,2.9-3.34,3.7,2.93-.47,7.14-1.31,8.3-4.43ZM230.76,172.57c1.08-2.62.55-6.91-1.73-8.78-.5-.41-1.61-.9-1.84-.09l3.57,8.88ZM229.6,172.96c.23-.24-1.11-4.64-1.34-5.31s-1.47-4.24-2.14-4.07c-3.78,3.04-.57,8.59,3.48,9.38ZM231.53,172.19c2.86-2.23,1.74-6.76-1.35-8.29.22.82.8,1.44,1.11,2.26.74,1.96.84,4.02.24,6.03Z"/>
      <path d="M26.24,157.91c1.9-2.1,3.89-4.07,6.65-5.02.97-.34,1.78-.71,2.24.48.71,1.81-.35,5.24-1.14,6.99-.54,1.2-1.43,2.16-1.77,3.34,2.21.12,7.42,1.65,3.96,4.24-2.41,1.8-6.97,1.5-9.74.77.03,1.72-1.3,3.29-2.72,4.13-1.9,1.13-3.12.96-3.46-1.43-1.23,1.74-8.73,1.73-9.55.39-.98-1.61,2.69-4.79,4.15-5.11-1.75-1.47-3.34-3.1-4.15-5.3-1.13-3.07-.09-3.36,2.9-3.09,1.87.17,3.57,1.11,5.31,1.73-.32-3.1,0-6.75,1.26-9.64,1.62-3.72,2.78-1.58,4.05.96,1,1.99,1.77,4.36,2.02,6.56ZM23.73,164.86c-.87-3.6-1.64-7.2-1.93-10.9-.09-1.18.23-2.45-.29-3.57-1.88,3.37-1.95,7.66-1.26,11.38-.99.05-1.81-.71-2.7-1.06-1.61-.63-3.46-1.27-5.21-1.26.8.88,1.91,1.56,2.91,2.2,1.24.79,3.13,1.56,4.18,2.38.23.18.53.22.44.62-1.38-.69-2.78-1.37-4.11-2.16-1.18-.7-2.61-1.93-3.7-2.48-.91-.46.05,1.68.25,2.07.93,1.79,3.28,4.4,5.44,4.5.53.57-2.16,1-2.31,1.06-.45.17-3.89,2.47-3.47,2.79,2.68-.83,5.47-1.44,8.3-1.54l-7.52,1.93c-.1.5.08.3.27.4,2.11,1.11,6.06.07,7.84-1.46.41-.35.45-1.1,1.23-.87,1.02.31-1.36,2.51-.48,3.19l.46.24c.92-.37,1.85-1,2.45-1.8.68-.92.86-2.06,1.47-2.97,2.26.57,4.76.83,7.07.32.31-.07,2.93-.98,2.46-1.49l-5.01-.58,5.4.38c-1.35-1.22-3.65-1.52-5.4-1.54,1.37-3.24,3.87-6.28,3.57-10.03-.21-.38-.67.27-.78.39-1.34,1.44-3.03,3.83-4.15,5.49-.83,1.23-1.4,2.78-2.5,3.77.89-2.7,2.78-5.28,4.47-7.58.25-.35,2.09-2.43,1.89-2.64-2.14.82-4.36,2.53-5.78,4.34-.54.68-.81,1.54-1.3,2.16-.12.16,0,.35-.44.24-.24-1.9-.36-3.7-.91-5.55-.42-1.41-1.22-3.42-2.18-4.48-.12,3.19.23,6.37.83,9.49.18.97,1.15,3.59,1.04,4.31-.04.22-.3.33-.51.28Z"/>
      <path d="M151.27.13c-2.57,4.4-3.43,12.98,2.77,14.69,3.48.96,7.76.23,10.87-1.54,1.5-.86,3.14-2.64,4.43-3.28,2.38-1.2,1.95,2.78,2.6,4.29,2.39,5.56,9.29,2.46,12.56-.47.69-.61,1.84-2.47,2.75-2.31,1.1.18.17,1.78.1,2.42-.31,2.75-.5,6.8.77,9.27,1.92,3.73,6.92,2.73,9.47.2.62-.62,1.79-3.1,2.49-1.36-1.6,4.2-7.8,6.66-11.55,3.85-3.26-2.44-2.98-7.87-2.53-11.46-3.04,2.55-6.86,5.15-11.03,4.19-2.11-.49-3.92-2.19-4.6-4.27-.16-.5-.41-2.8-.67-2.8-2.92,2.35-6.35,4.73-10.22,5.02-3.54.27-8.49-.22-10.36-3.73-2.15-4.03-1.19-8.52.4-12.56l1.76-.11Z"/>
      <path d="M105.71.15c1.71,4.98,2.59,10.94-1.91,14.74-4.95,4.18-12.52,2.23-17.76-.38-1.12-.56-2.46-1.66-3.47-2.13-.2-.09-.35-.13-.57-.1.12,8.05-7.86,7.04-12.72,3.55-.91-.65-4.46-3.93-4.62-4.85-.09-.54.29-1.12.87-.88.64.26,2.26,2.63,3.04,3.34,2.22,2.02,6.35,4.34,9.41,3.41,2.25-.68,2.69-2.78,2.87-4.87.04-.45-.46-2.01.46-2.03.33,0,3.14,2.06,3.77,2.42,4.96,2.85,13.23,5.7,18.04,1.24,3.77-3.49,2.83-9.3.87-13.5l1.72.02Z"/>
      <path d="M132.17,139.2c1.73.37,6.02,2,6.48,3.86.53,2.18-4.13,2-5.39,1.9-2.31-.17-4.5-.94-6.59-1.9-2.16,1.67-5.04,2.13-7.72,1.93-2.25-.16-4.31-.78-2.56-3.35,1.51-2.23,5.32-3.04,7.86-2.85.47-2.54,2.27-5.12,4.58-6.32.87-.46,4.56-1.86,5.19-.8.29,2.58-.3,5.41-1.83,7.52ZM132.36,132.45c-3.83.68-6.88,3.49-7.32,7.44-2.9.02-6.72.13-8.12,3.17,2.22-.62,3.87-2.2,6.37-1.73l-3.28.87c-.24.17-2.51,1.02-2.12,1.44,2.14.47,4.86.37,6.89-.54.87-.39,1.4-1.19,2.28-1.41,1.02,1,2.49,1.51,3.95,1.86,1.79.42,3.78.69,5.6.29-.76-.63-2.11-.96-3.09-1.25-1.36-.41-2.82-.9-4.24-.87-.14-.6.43-.4.82-.34,2.31.38,4.39,1.3,6.61,1.88.13.04.4.34.48-.1.22-1.16-5.98-3.53-7.14-2.99-.21-.23.92-1.17,1.12-1.48,1.05-1.57,1.68-3.58,1.58-5.46-2.15,1.71-4.65,3.82-5.4,6.56-.76-.28-.12-1.51.16-2.06.99-1.96,2.95-3.12,4.47-4.59.21-.2.45-.34.38-.68Z"/>
      <path d="M134.06,162.02c3.65-.14,10.46,0,13.42,2.29,1.82,1.41,1.53,3.39-.27,4.68-4.99,3.57-18.02,3.85-23.58,1.61-2.59-1.05-4.15-3.39-1.58-5.55,2.76-2.32,8.51-2.9,12.01-3.03ZM143.93,163.89c-.23-.47-1.17-.48-1.66-.55-4.89-.75-14.23-.62-18.57,1.83-1.49.84-2.88,1.92-1.24,3.51.34.33,1.62,1.16,2.06,1.14.5-.02,3.44-1.76,4.24-2.11,4.74-2.08,10.09-3.04,15.18-3.83ZM125.41,170.06c4.43,1.12,9.22,1.21,13.74.52,1.82-.27,7.88-1.6,8.4-3.56.4-1.52-1.45-2.67-2.76-2.74-.74-.04-3.95.63-4.95.81-4.54.82-8.8,2.01-12.96,4.02-.49.24-1.18.47-1.47.93Z"/>
      <path d="M225.93.13l.2,8.19,1.16,16.2c1.05,10.32,2.26,20.59,4.6,30.7,3.83,16.5,11.7,34.53,8.07,51.61-.45,2.13-1.26,4.19-1.68,6.33-.32,0-.42.12-.35-.25.36-1.94,1.06-3.94,1.45-5.89,3.34-16.61-2.85-31.18-6.79-46.91-4.34-17.31-6.51-36.62-7.05-54.48-.04-1.47-.17-3.85,0-5.22.04-.28.15-.6.39-.28Z"/>
      <path d="M67.08,169.04c-.33.34-1.83,1.07-2.34,1.23-3.4,1.12-11.62,1.15-14.96-.11-1.71-.64-2.61-2.09-.84-3.34,3.19-2.25,14.48-2.71,17.69-.58.98.65,1.3,1.91.45,2.8ZM60.58,165.82c-2.55-.03-5.02-.08-7.53.48-.87.2-4.43,1.05-4.03,2.29,1.78,1.69,3.81-.3,5.72-.98,1.76-.62,3.61-.87,5.39-1.37.33-.09.54.14.45-.41ZM51.9,169.68c.08.11,2.39.37,2.79.4,2.6.14,8.56-.02,10.79-1.19,2.67-1.4-.6-2.48-2.12-2.66s-1.67.28-2.74.5c-2.06.43-3.71.66-5.73,1.4-.29.11-3.23,1.21-2.99,1.54Z"/>
      <path d="M192.13,167.62c2.53-.26,6.88.21,9.3,1,1.36.45,3.83,1.5,2.22,3.18-2.4,2.5-13.28,2.11-15.54-.28s2.25-3.73,4.02-3.91ZM192.52,168.58c-.76.06-5.28.87-3.51,2.24,1.93,1.48,7.44,1.76,9.81,1.56,1.5-.13,6.4-1.28,2.8-2.6-2.26-.83-6.72-1.4-9.1-1.2Z"/>
      <path d="M93.35,172.05c2.26-.2,9.69,0,11.3,1.51.59.55.68.97.13,1.61-2,2.32-13.4,2.01-15.81.18-2.82-2.15,3.03-3.19,4.39-3.31ZM103.8,174.69c.08-.34-.1-.38-.32-.55-1.29-.98-7.86-1.32-9.63-1.19-1.63.11-7.05,1.02-2.6,2.23,2.89.78,7.72.88,10.62.2.66-.16,1.26-.52,1.92-.68Z"/>
      <path d="M16.4,119.53c-.2.24-.34,0-.44-.24-.23-.55-.22-1.54-.43-2.27-.89-3.07-3.03-8.16-6.17-9.46-.21-.09-.71-.33-.87-.09,1.96,2.19,3.67,5.19,4.53,8,.08.27.75,2.53.19,2.5-1.53-3.03-2.62-6.09-4.65-8.85-.39-.53-1.79-1.88-1.91-2.14-.59-1.27,1.56-.79,2.23-.49,4.29,1.92,7.28,8.53,7.51,13.03Z"/>
      <path d="M21.03.13l-.18,15.15c.02.39-.18.77-.2,1.15-.34,6.76-.61,14.33-1.8,20.96-.05.3,0,1.21-.42,1.12-.34-.13-.12-1.12-.09-1.44.84-8.21,1.87-16.44,2.12-24.69.11-3.68-.32-7.8,0-11.39.03-.36.07-1.02.58-.86Z"/>
      <path d="M241.18,58.38c1.49,6.69,3.43,13.29,4.77,20.02.47,2.36,1.1,4.75,1.02,7.17-.3.03-.26-.51-.32-.74-.68-2.83-1.07-5.84-1.7-8.71-1.23-5.6-3.15-11.55-4.1-17.12-.07-.41-.22-.73.34-.63Z"/>
      <path d="M11.8,70.38c.58-.33,1.12.13.78.87-.25.55-2.08,3.04-2.56,3.62-.54.65-1.52,1.75-1.64.31l3.42-4.8Z"/>
      <path d="M5.51,67.84c1.1-.35.66,1.42.66,1.82,0,.69.27,3.22-.48,3.38-.31.07-.4-.25-.5-.46-.29-.65-.38-4.52.31-4.74Z"/>
      <path d="M12.73,78.83c.05.34.01.42-.2.67-.16.18-3.75,2.54-3.99,2.58-.34.05-.42.02-.63-.25-.08-.98,3.71-3.36,4.82-2.99Z"/>
      <path d="M218.8,106.22c-.42,2.23-.73,4.36-.57,6.65.05.69.38,1.42.39,2.12,0,.38-.02.31-.39.29-.72-2.42-.91-6.2,0-8.58.11-.3.17-.56.58-.48Z"/>
      <path d="M244.84,113.74l1.45-10.8c.3.22.3.53.31.87.01.64-.15,1.98-.24,2.68-.28,2.42-.95,4.9-1.52,7.26Z"/>
      <path d="M17.36,56.84l-.24,2.94-1.4,5.35c-.42-.26-.23-.48-.24-.82-.01-.68,1.17-6.12,1.43-6.85.09-.25.13-.56.44-.62Z"/>
      <path d="M236.16,111.23l.57.29c-1.05,1.66-1.31,3.81-2.6,5.3-.49-.36-.14-.31-.02-.59.72-1.64,1.58-3.28,2.04-5Z"/>
      <path d="M18.91,59.54c-.05,1.1-.31,2.79-.71,3.82-.13.32-.17.69-.64.62.21-1.3.56-2.73.94-3.99.1-.31-.16-.54.41-.45Z"/>
      <path d="M153.58,148.08l-2.12,3.47" style="fill: #fff;"/>
      <path d="M109.16,41.44c1.9-.46,3.88,4.07,1.29,4.03-.41,0-1.96-1.29-2.17-1.7-.45-.91-.2-2.07.88-2.33Z"/>
      <path d="M84.65,33.34c1.02-.2,1.95.6,1.64,1.64-.37,1.25-1.99,1.68-3.14,1.32-1.31-1.21.2-2.7,1.5-2.96ZM83.87,34.31c-.89.26-.64,1.81.88,1.47,1.6-.36,1.04-2.03-.88-1.47Z"/>
      <path d="M93.77,38.9c.05.38.04.32-.24.43-.58.24-1.65.25-2.42.47-.81.24-1.6.66-2.36,1.02.03-1.54,4.17-2.95,5.01-1.93Z"/>
      <path d="M93,36.78c-1.52.15-3.49.17-4.73,1.16-.55.44-.75,1.26-1.45,1.35.38-2.1,3.77-3.43,5.69-3.08.33.06.54.21.48.58Z"/>
      <path d="M109.01,47.77c-1.3.11-1.75-2.43-.67-2.89.68.87.76,1.82.67,2.89Z"/>
      <path d="M148.95,47.77c.06-2.83-2.66-6.2-5.68-5.2-2.07.69-1.9,3.12-2.9,4.61-.63,0,.23-2.33.39-2.69,2.13-5.01,8.18-2.24,8.56,2.04.04.42.15,1.05-.37,1.23Z"/>
      <path d="M143.7,47.23c.5-.07.93-.03,1.3.35.43,1.07-.43,2.74-1.56,2.89-2.14.28-1.84-2.93.26-3.24Z"/>
      <path d="M166.65,36.24c2.1-.47,4.89,1.44,3.04,3.23-1.34,1.3-5.82-2.61-3.04-3.23ZM166.32,36.97c-.33.31,2.7,3.2,3.25,1.41.51-1.65-2.2-1.79-3.25-1.41Z"/>
      <path d="M161.11,41.99c.43-1.87,3.04-1.78,4.48-1.1.59.28,2,1.45.72,1.21-.7-.13-1.13-.51-2.02-.51-.97,0-2.19.33-3.18.4Z"/>
      <path d="M137.7,43.57c.36-.11,1.04-.12,1.32.15.84,1.18.02,3.76-1.53,3.67-1.95-.12-.76-3.52.21-3.82ZM137.21,46.59c2.14.98,1.84-3.41.35-2.39-.45.7-.43,1.59-.35,2.39Z"/>
      <path d="M129.66,138.43c.16.16-.95,1.85-1.54,1.54-.21-.19.99-1.76,1.54-1.54Z"/>
    </g>
  </g>
</svg>