<?xml version="1.0" encoding="UTF-8"?>
<svg id="Layer_2" data-name="Layer 2" xmlns="http://www.w3.org/2000/svg" xmlns:xlink="http://www.w3.org/1999/xlink" viewBox="0 0 1920 1080">
  <defs>
    <style>
      .cls-1 {
        fill: none;
      }

      .cls-2 {
        fill: #fff;
      }

      .cls-3 {
        opacity: .41;
      }

      .cls-4 {
        clip-path: url(#clippath);
      }
    </style>
    <clipPath id="clippath">
      <rect class="cls-1" width="1920" height="1080"/>
    </clipPath>
  </defs>
  <g id="home">
    <g id="background">
      <g id="home_background_export">
        <g class="cls-4">
          <g class="cls-3">
            <path class="cls-2" d="M1452.69-14.4v1c20.47,0,40.95,8.82,59.21,25.51,3.7,3.38,6.35,7.29,8.92,11.08,3.08,4.54,5.98,8.83,10.41,11.96l.54.38.56-.35c4.59-2.83,7.62-6.5,10.82-10.38,2.5-3.02,5.08-6.15,8.51-8.92,11.98-9.69,36.17-17.88,52.82-17.88,1.03,0,2.03.03,2.97.09,21.16,1.38,38.68,10.01,52.07,25.67,11.77,13.76,19.86,32.63,23.4,54.56l.15.93.94-.09c1.94-.2,3.93-.29,5.93-.29,32.15,0,65.74,24.91,73.34,54.39l.13.49.47.19c2.73,1.09,5.7,1.62,9.08,1.62s6.86-.53,10.46-1.08c3.57-.55,7.27-1.12,10.99-1.12,2.41,0,4.61.24,6.73.72,19.7,4.54,36.51,16.55,46.11,32.95,8.32,14.22,10.28,30.07,5.65,45.83-4.88,16.64-9.17,18.37-17.72,21.82-3.39,1.37-7.6,3.07-12.69,6.05-2.81,1.65-7.39,4.77-12.25,8.08-8,5.45-17.96,12.24-21.31,13.19-1.16.33-2.33.49-3.56.49-2.24,0-4.39-.55-6.47-1.08-2.07-.53-4.2-1.07-6.42-1.07-1.84,0-3.54.37-5.21,1.14l-.82.38.3.86c.2.58.43,1.19.66,1.81,1.02,2.74,2.18,5.85,1.95,8.42-.46,5.26-14.94,17.26-25.52,26.02-4.91,4.07-9.15,7.58-11.58,10.02-2.01,2.02-6.77,7.5-12.28,13.84-8.44,9.71-21.12,24.3-23.46,25.58-18.44-3.15-36.02-10.61-52.26-22.18-14.6-10.4-28.16-24.13-40.32-40.82l-.51-.7-.77.41c-6.43,3.43-10.85,8.24-15.53,13.34-3.45,3.76-7.02,7.65-11.5,10.95-15.15,11.17-33.17,17.07-52.09,17.07-15.25,0-30.56-3.88-44.28-11.21-14.04-7.51-26.09-18.49-34.84-31.77-9.12-13.83-10.97-26.72-13.12-41.64-.55-3.82-1.12-7.77-1.83-11.87l-.07-.4-.33-.24c-.49-.35-1.29-.5-2.69-.5-3.24,0-9.45.84-15.45,1.66-5.9.8-12.01,1.63-15.08,1.63-.23,0-.45,0-.64-.01-25.83-1.32-49.31-12.89-66.13-32.58-15.29-17.91-23.77-40.78-23.25-62.76.42-18.01,6.8-33.49,18.44-44.75,13.07-12.64,32.58-19.37,56.43-19.47h1.02s-.02-1.02-.02-1.02c-.58-25.98,7.57-48.94,22.94-64.66,12.79-13.08,29.86-20.28,48.05-20.28v-1M1452.69-14.4c-39.97,0-73.15,33.88-71.99,85.97-117.7.47-87.22,156.37,14.46,161.56.21.01.45.02.7.02,6.3,0,24.19-3.29,30.54-3.29,1.07,0,1.81.09,2.11.31,3.47,19.93,3.49,36.25,15.11,53.89,18.25,27.7,48.97,43.42,79.95,43.42,18.31,0,36.72-5.5,52.69-17.26,10.45-7.7,15.78-18.28,26.9-24.21,22.96,31.51,54,56.8,93.48,63.45,2.68-.3,30.72-34.08,36.35-39.74,7.97-8,36.68-28.54,37.38-36.67.3-3.4-1.54-7.42-2.67-10.65,1.66-.77,3.24-1.05,4.79-1.05,4.26,0,8.25,2.15,12.89,2.15,1.23,0,2.5-.15,3.84-.53,5.52-1.57,26.18-16.91,33.79-21.37,17.81-10.44,23.88-4.63,30.87-28.46,10.99-37.48-16.2-71.68-52.5-80.04-2.35-.54-4.67-.75-6.95-.75-7.45,0-14.55,2.21-21.45,2.21-2.94,0-5.84-.4-8.71-1.55-7.85-30.44-42.26-55.14-74.31-55.14-2.02,0-4.04.1-6.03.3-6.72-41.68-30.82-78.1-76.39-81.07-.98-.06-2-.1-3.04-.1-16.83,0-41.11,8.12-53.45,18.1-7.83,6.34-11.17,14.26-19.23,19.24-7.99-5.63-11.07-15.5-19.23-22.96-19.46-17.78-40.48-25.77-59.89-25.77h0Z"/>
            <path class="cls-2" d="M1850.58,241.09c10.07,0,17.54,6.86,28.64,18.16,26.58,27.05,51.32,64.17,71.54,107.33,18.44,39.37,32.49,82.75,39.59,122.24-.58.1-1.82.23-4.42.23-7.24,0-20.24-.92-30.68-1.65-6.83-.48-12.72-.9-15.01-.91h-.11c-2.61,0-7.08.44-12.26.95-6.97.69-15.65,1.55-22.44,1.55-8.33,0-10.5-1.32-11.04-2.08-.94-1.81-1.88-21.67-2.56-36.16-.49-10.36-.95-20.14-1.39-23.81-2.94-24.87-6.07-44.54-9.84-61.91-1.14-5.25-7.87-31.04-15.18-55.03-14.68-48.21-19.12-48.39-20.8-48.39h-.02c-.19,0-.37.02-.55.07l-.26.07-.19.19c-48.94,48.7-92.19,93.18-125.86,144.42-18.31,27.86-32.01,55.1-41.89,83.28-10.99,31.36-16.99,63.04-18.34,96.85-.16,4.02.46,10.88,1.12,18.14.79,8.71,1.68,18.58.87,21.69-1.42,5.44-15.12,20.39-20.09,25.16-.5.48-.93,1.11-1.35,1.73-.65.95-1.38,2.02-2.09,2.02-.42,0-.99-.33-1.63-.97-8.53-8.39-6.59-95.53-4.41-113.49,3.54-29.26,10.84-58.83,21.7-87.86,10.84-28.98,24.96-56.75,41.98-82.53,35.81-54.25,82.19-96.49,134.13-122.14,10-4.94,17.04-7.14,22.82-7.14M1850.58,240.09c-6.17,0-13.37,2.36-23.26,7.25-108.51,53.6-184.08,175.26-198.36,293.31-1.99,16.44-4.52,105.24,4.71,114.32.92.9,1.68,1.26,2.33,1.26,1.84,0,2.85-2.79,4.14-4.02,4.98-4.78,18.85-19.82,20.37-25.63,1.51-5.79-2.32-30.91-1.96-40.04,5.56-139.82,92.67-231.22,185.79-323.89.09-.03.19-.04.28-.04,8.38,0,32.91,92.94,35.01,102.63,4.37,20.14,7.4,41.34,9.83,61.81,1.1,9.31,2.37,57.92,4.1,60.4,1.33,1.9,5.96,2.54,11.87,2.54,11.75,0,28.58-2.5,34.69-2.5.04,0,.07,0,.11,0,5.67.03,33.62,2.56,45.7,2.56,3.16,0,5.24-.17,5.54-.61-13.92-78.39-55.05-173.4-111.54-230.89-11.87-12.08-19.21-18.46-29.36-18.46h0Z"/>
            <path class="cls-2" d="M1842.15,276.39c2.06.44,2.39,1.17,3.18,2.93.16.35.33.73.53,1.14,1.99,4.07,5.68,15.59,8.11,23.21.68,2.14,1.29,4.04,1.77,5.5,9.33,28.33,16.55,58.98,21.46,91.1,4.65,30.42,7.14,61.49,7.39,92.35-29.6,2.43-62.32,11.76-94.68,27.03-31.37,14.8-60.12,33.98-83.14,55.48-1.85,1.73-6.72,7.28-12.35,13.71-8.11,9.25-21.25,24.25-25.13,27.04-7.2-63.09,7.72-124.45,45.57-187.52,33.72-56.18,81.08-106.23,127.29-151.95M1841.82,275.31c-92.92,91.9-190.14,200.82-173.37,341.96.04.02.08.03.14.03,3.39,0,33.64-36.56,38.88-41.46,45.53-42.52,116.11-77.52,178.15-82.31-.41-61.19-9.71-126.38-28.91-184.68-2.26-6.87-7.37-23.58-9.94-28.83-1.29-2.64-1.36-4.1-4.94-4.71h0Z"/>
            <path class="cls-2" d="M1232.76,259.53c26.98,6.6,56.48,21.01,79.08,38.64,35.35,27.57,43.93,54.29,44.91,71.84.84,15.16-1.9,32.03-7.71,47.53-5.99,15.97-14.7,29.27-25.24,38.56l-59.09-135.82-1.7-3.9-.22,4.25-.56,10.87v.23s.08.21.08.21l52.04,125.16-2.94,4.47c-27.43-6.13-58.38-15.88-80.85-41.29-15.49-17.52-22.18-44.83-19.35-78.99,2.2-26.51,10.04-56.26,21.54-81.76M1232.19,258.37c-20.08,44.11-37.71,122.61-2.37,162.58,21.55,24.37,51.14,34.9,82.05,41.75l3.61-5.49-52.24-125.65.56-10.87,59.63,137.06c23.33-19.8,36.02-57.22,34.32-87.79-3.15-56.66-75.77-99.67-125.56-111.59h0Z"/>
            <path class="cls-2" d="M1499.9,381.88c1.29,1.24,4.54,7.78,4.89,42.06.21,20.85-.81,42.1-1.86,48.13-10.27,58.88-43.31,88.73-98.2,88.73-11.45,0-23.98-1.32-37.27-3.93l91.67-116.5.62-.78-.78-.62c-1.25-.99-2.51-1.49-3.76-1.49-3.17,0-5.44,3.13-7.45,5.89-.65.9-1.27,1.75-1.88,2.44-12.76,14.5-24.86,30.19-36.56,45.36-15.72,20.38-31.97,41.45-50.12,60.05-2.83-.42-2.77-.98-2.65-2.14.07-.64.15-1.44-.13-2.28-7.39-22.22-11.14-62.39-4.71-84.51,9.35-32.16,37.98-51.15,60.36-61.42,25.87-11.88,58.7-18.97,87.83-18.97M1499.91,380.88c-53.14,0-132.49,23.79-149.16,81.11-6.54,22.5-2.68,62.84,4.72,85.11.74,2.23-1.93,4.4,4.09,5.17,31.89-32.57,57.11-71.76,87.07-105.8,2.47-2.81,4.99-7.98,8.57-7.98.96,0,2,.37,3.14,1.27l-92.68,117.78c13.8,2.8,26.87,4.27,39.06,4.27,51.92,0,88.19-26.56,99.18-89.56,2.12-12.18,4.1-86.2-3.66-91.37-.11,0-.22,0-.33,0h0Z"/>
            <path class="cls-2" d="M1550.61,563.6h0c4.56,0,9.06.15,13.36.43,1.58,4.59,1.46,44.86.33,49.23-.89,3.44-2.57,6.6-4.35,9.94-1.85,3.48-3.76,7.07-4.95,11.3-1.98,7.04-2.85,14.38-3.68,21.48-.88,7.5-1.79,15.25-4.04,22.57-4.44-1.18-9.95-3.98-15.29-6.69-6.67-3.39-12.98-6.59-17.83-7.18-.07,0-.14-.01-.22-.01-2.16,0-11.74,4.87-13.48,6.62-8.93,8.92-8.34,27.5-7.86,42.42.27,8.47.53,16.48-1.41,18.53-9.33,2.47-22.34,3.95-34.89,3.95-16.12,0-29.31-2.38-37.13-6.71-.86-.47-1.61-.76-2.16-.96-.21-.08-.45-.17-.62-.24.11-.28.43-.82,1.18-1.9l100.28-103.99.83-.86-1-.66-5.29-3.52-.7-.47-.58.61-99.93,105.93c-3.52-1.29-4.03-5.4-4.52-9.38-.15-1.25-.3-2.42-.53-3.52-2.61-12.26-3.59-28.14-2.69-43.56,1-17.19,4.3-32.04,9.29-41.83,10.26-20.13,30.59-36.53,58.78-47.43,23.54-9.11,51.63-14.12,79.11-14.12M1563.86,563.76s0,0,0,0h0M1550.62,562.6c-49.82,0-115.86,17.13-138.79,62.1-11.07,21.71-11.75,62.2-6.68,86.04,1.05,4.92.38,12.28,6.33,13.83l100.36-106.38,5.29,3.52-100.34,104.04c-2.79,3.99-1.25,2.87,1.9,4.61,8.87,4.91,23.23,6.84,37.62,6.84,13.17,0,26.36-1.62,35.39-4.05,6.2-5.32-4.82-46.88,9.47-61.15,1.63-1.63,10.95-6.32,12.77-6.32.04,0,.07,0,.1,0,8.92,1.07,24.02,11.87,33.91,14.06,4.71-14.57,3.86-30.25,8.01-44.97,2.3-8.18,7.45-14.08,9.3-21.27,1.19-4.62,1.43-49.11-.71-50.45-4.46-.31-9.13-.47-13.95-.47h0Z"/>
            <path class="cls-2" d="M1273.09,519.95c25.39,0,46.4,10.22,64.23,31.23,4.47,5.27,29.69,44.95,27.6,53.33-.12.48-.31.73-.51.86l-143.66-29.44-1.56-.32.39,1.55,1.57,6.19.15.61.62.12,141.22,28.67c-10.05,12.67-24.1,24.12-39.74,32.36-17.1,9.01-35.02,13.78-51.82,13.78-7.1,0-13.96-.86-20.41-2.57-31.22-8.25-63.49-36.18-98.64-85.35,3.48-8.82,54.56-34.83,65.84-39.09,21.18-8.02,39.08-11.92,54.71-11.92M1273.09,518.95c-17.49,0-35.94,4.74-55.06,11.98-11.25,4.26-64.43,31.09-66.59,40.21,23.47,32.9,58.88,75.41,99.48,86.14,6.71,1.77,13.65,2.6,20.67,2.6,35.45,0,72.87-21.12,93.34-47.8l-142.8-28.99-1.57-6.19,144,29.51c8.5-3.36-22.28-50.94-26.47-55.89-19.44-22.91-41.34-31.58-65-31.58h0Z"/>
            <path class="cls-2" d="M1413.63,737.3c15.49,4.24,33.08,7,47.41,7.41.23,0,.46,0,.7,0,3.17,0,6.88-.56,10.82-1.15,4.01-.6,8.15-1.23,11.73-1.23h0c5.78,0,8.77,1.58,9.7,5.12,2.72,10.32-2.31,12.89-9.27,16.46-2.95,1.51-6.3,3.22-9.36,5.73-11.64,9.56-20.09,20.25-26.59,33.62-5.36,11.03-8.96,22.85-12.83,36.85l-22.31-102.83M1412.31,735.9l23.52,108.42c8.26-30.2,15.28-53.44,40.17-73.89,10.09-8.29,23.12-7.47,18.96-23.22-1.2-4.56-5.4-5.87-10.67-5.87-7.11,0-16.18,2.38-22.55,2.38-.23,0-.45,0-.68,0-15.59-.45-33.69-3.55-48.77-7.82h0Z"/>
            <path class="cls-2" d="M1319.17,683.49v1c30.51,0,53.08,13.38,73.18,43.38,4.03,6.01,21.66,40.62,19.05,49.06-.18.6-.44.9-.67,1.08-13.8-5.27-29.4-11.22-43.88-15.43l-2.67-.78c-20.23-5.9-81.81-23.84-92.31-23.84-.31,0-.59.02-.83.05-1.22.16-3.91,1.37-4.54,2.67-.23.47-.21.98.04,1.39l.2.32.36.11,142.99,42.99c-1.07,1.98-7.72,7.75-19.14,14.98-11.95,7.56-22.54,12.45-26.98,12.45-.49,0-.9-.06-1.21-.17-1.25-.46-2.51-1.61-3.84-2.82-1.48-1.34-3.01-2.73-4.82-3.5-1.79-.76-3.81-1.15-6-1.15-8.22,0-17.66,5.28-25.98,9.93-4.97,2.78-9.67,5.41-12.85,6.07-.79.16-1.53.25-2.2.25-5.1,0-6.27-4.73-7.77-12.44-.86-4.46-1.75-9.07-3.98-12.83-8.69-14.68-15.51-20.66-23.53-20.66-6.21,0-13.35,3.74-23.09,12.11-7.42-3.81-38.13-43.79-45.2-59.06-1.21-2.62-1.38-3.78-1.37-4.24,22.94-13.29,50.28-27.76,79.42-34.78,14.38-3.46,26.68-5.15,37.59-5.15v-1M1319.18,683.49c-11.54,0-24.06,1.86-37.83,5.17-28.38,6.83-55.05,20.6-80.08,35.11-2.54,6.19,39.42,62.43,47.64,65.1,9.4-8.15,16.58-12.27,22.9-12.27,8.04,0,14.67,6.66,22.67,20.17,5.61,9.47,2.61,25.76,12.6,25.76.73,0,1.53-.09,2.4-.27,8.52-1.77,25.57-15.98,38.62-15.98,1.98,0,3.86.32,5.61,1.07,3.29,1.4,5.83,5.26,8.71,6.33.43.16.95.24,1.55.24,11.02,0,49.02-25.43,47.21-29.14l-143.79-43.23c-.49-.79,2.38-2.37,3.77-2.55.2-.03.43-.04.7-.04,10.94,0,80.73,20.52,94.71,24.58,14.43,4.19,30.13,10.18,44.22,15.56,8.23-3.3-13.5-45.65-17.62-51.79-21.11-31.5-44.3-43.83-74-43.83h0Z"/>
            <path class="cls-2" d="M1493.81,768.42l3.62,4.95,15.07,65.84-64.04,58.74c-1.89-.35-2.47-.72-2.65-.92-.13-.15-.12-.36,0-1.05.1-.64.23-1.43.03-2.37-4.93-22.9-3.52-49.94,3.76-72.34,5.92-18.22,18.39-42.1,44.22-52.86M1494.15,767.19c-46.16,18.62-58.79,82.56-49.3,126.64.57,2.63-2.18,4.18,3.92,5.19l64.83-59.47-15.25-66.61-4.2-5.75h0Z"/>
            <path class="cls-2" d="M1416.64,793.4c.56,0,.83.16,1,.33l15.18,90.64-58.89-64.7c5.54-2.55,12.3-5.88,17.9-9.7.99-.67,2.61-1.99,4.67-3.65,5.57-4.51,15.94-12.92,20.15-12.92M1416.64,792.4c-6.03,0-21.45,14.07-25.38,16.74-5.68,3.87-12.71,7.32-19,10.19l62.1,68.23-15.78-94.23c-.42-.64-1.08-.93-1.94-.93h0Z"/>
            <path class="cls-2" d="M1514.11,848.38l31.01,59.26c-10.31,5.28-22.03,7.85-35.78,7.85-19.29,0-38.95-5.12-55.84-10.29l60.61-56.82M1514.38,846.75l-62.83,58.9c17.88,5.53,38.16,10.84,57.78,10.84,12.97,0,25.64-2.32,37.13-8.42l-32.08-61.32h0Z"/>
            <path class="cls-2" d="M1270.1,784.7v1c19.83,0,25.69,52.8,26.29,58.82l.16,1.64,1.38-.9c4.93-3.22,8.95-6.89,12.83-10.45,5.4-4.95,10.51-9.62,17.9-13.2,6.84-3.31,12.67-4.91,17.83-4.91,11.22,0,18.79,7.55,29.25,17.99,2,1.99,4.06,4.05,6.28,6.19,41.99,40.44,73.19,93.64,103.36,145.08,6.32,10.77,12.85,21.9,19.27,32.55,1.9,3.15,5.55,8.08,9.42,13.29,5.65,7.62,12.06,16.26,13.18,19.73,2.37,7.33-8.02,18.86-15.6,27.28-3.18,3.53-5.92,6.58-7.61,9.05-4.66,6.85-9.14,14.74-13.48,22.37-5.31,9.35-10.81,19.02-16.57,26.66-5.28,6.99-12.27,11.61-19.03,16.08-5.65,3.74-11.5,7.6-16.36,12.84l-3.64,3.91,4.8-2.33,25-12.14c-.64,1.52-1.29,3.04-1.93,4.55-11.27,26.52-22.92,53.93-28.98,82.78-35.35-15.75-62.92-30.5-86.46-46.28l49.12-11.02,5.71-1.28-5.81-.69c-1.07-.13-2.24-.19-3.48-.19-6.91,0-15.61,1.97-24.02,3.88-8.06,1.83-16.4,3.71-22.7,3.71-1.48,0-2.82-.1-3.99-.31-12.89-2.28-43.96-28.44-60.29-43.55-43.77-40.5-74.63-87.89-89.23-137.05-7.86-26.47-10.83-53.08-8.83-79.09,2.14-27.81,10-55.07,23.35-81.01,8.09-15.72,43.67-59.69,59.98-63.65.98-.24,1.95-.36,2.89-.36v-1M1270.1,784.7c-1.01,0-2.05.12-3.13.39-16.84,4.08-52.51,48.39-60.63,64.16-55.63,108.08-8.26,221.39,74.92,298.34,11.96,11.06,46.37,41.25,60.79,43.8,1.28.23,2.67.33,4.16.33,12.95,0,33.25-7.59,46.72-7.59,1.18,0,2.3.06,3.36.18l-51.38,11.53c28.09,19.08,58.62,34.38,89.67,48.17,6.47-31.7,19.57-61.1,32.15-90.82l-27.39,13.31c10.6-11.41,25.65-16,35.46-29,10.5-13.92,19.72-33.84,30.08-49.07,5.97-8.78,26.85-26.32,23.33-37.2-1.94-6.01-17.95-25.38-22.69-33.23-36.35-60.24-71.68-128.6-122.8-177.84-13.98-13.46-22.4-24.46-36.22-24.46-5.15,0-11.05,1.52-18.26,5.01-13.04,6.3-19.35,16.21-30.84,23.71-1.38-13.79-7.97-59.72-27.28-59.72h0Z"/>
            <path class="cls-2" d="M1454.96,913.59c.4,0,1.11.41,1.8.8.91.52,1.95,1.12,3.15,1.38,20.42,4.53,36.44,7.34,53.16,7.34,12.63,0,24.72-1.7,36.92-5.18,2.48,1.66,7.85,8.85,8.03,12.83.04.91-.21,1.32-.47,1.55-13.86,1.6-27.36,5.52-39.07,11.32-12.75,6.32-23.03,14.61-30.58,24.65l-33.98-52.71c.31-1.24.7-1.99,1.04-1.99M1454.96,912.59c-.88,0-1.58.77-2.11,3.18l35,54.29c15.88-22.01,43.64-33.76,70.09-36.77,4.15-2.65-4.59-14.77-7.8-16.43-12.98,3.75-25.11,5.26-37.06,5.26-17.34,0-34.3-3.18-52.94-7.32-2.12-.47-3.85-2.21-5.17-2.21h0Z"/>
            <path class="cls-2" d="M1559,940c3.92,0,6.84.78,8.68,2.31,1.56,1.3,19.23,23.64,20.15,25.91.2,2.36-4.64,19.14-6.18,21.4-2.93,4.28-50.23,40.73-53.81,41.5-.04,0-.08,0-.12,0-4.51,0-13.95-16.47-21.54-29.71-5.69-9.93-11.09-19.34-14.79-22.88,3.42-6.66,9.09-13,16.88-18.85,8.44-6.34,17.29-10.54,23.23-12.95,3.89-1.58,17.37-6.73,27.51-6.73M1559,939c-9.26,0-21.49,4.2-27.88,6.8-15.4,6.25-33.48,17.63-40.97,32.96,8.5,6.95,28.82,53.35,37.57,53.35.07,0,.14,0,.21,0,3.43-.3,51.67-37.72,54.55-41.93,1.7-2.49,6.66-19.8,6.34-22.15-.23-1.66-18.87-25.13-20.49-26.48-2.2-1.83-5.51-2.54-9.32-2.54h0Z"/>
            <path class="cls-2" d="M1595.38,978.01c28.46,30.81,64.08,59.65,108.78,88.1l-22.01,21.32c-3.15-1.92-6.53-2.18-9.18-2.18-1.19,0-2.36.06-3.5.11-1.11.05-2.15.11-3.18.11-2.12,0-3.62-.23-4.89-.75-4.01-1.64-11.81-7.78-17.51-12.26-1.78-1.4-3.46-2.73-4.78-3.72-18.2-13.68-30.77-26.7-38.44-39.79-9.75-16.65-11.53-33.78-5.3-50.94M1595.02,976.14c-15.58,39.9,13.87,71.13,43.5,93.4,5.56,4.18,17.1,13.88,22.52,16.1,1.59.65,3.38.82,5.27.82,2.13,0,4.4-.22,6.68-.22,3.18,0,6.39.42,9.3,2.45l23.49-22.75c-40.39-25.61-78.41-54.51-110.75-89.81h0Z"/>
            <path class="cls-2" d="M1581.2,1001.71c.58,0,1.15.15,1.73.45-8.27,12.42-20.67,23.12-32.67,33.48-4.82,4.16-9.8,8.45-14.36,12.75l-3.84-8.98c8.24-5.66,16.08-12.1,23.66-18.34,5.45-4.49,11.09-9.12,16.8-13.4.86-.65,1.73-1.45,2.57-2.22,1.99-1.83,4.04-3.73,6.1-3.73M1581.2,1000.71c-3.43,0-6.39,3.99-9.27,6.15-13.89,10.4-26.7,22.4-41.1,32.18l4.73,11.06c16.08-15.38,36.86-29.82,48.77-48.24-1.09-.81-2.13-1.15-3.12-1.15h0Z"/>
            <path class="cls-2" d="M1714.3,1074.98c3.34,0,7.19,1.02,12.48,3.29,12.54,5.39,26.21,13.17,39.44,20.69,10.76,6.12,21.89,12.45,32.36,17.46,6.91,3.31,14.19,6.14,21.23,8.88,8.15,3.17,16.57,6.44,24.45,10.48l1.2,25.73c-4.09.29-8.36.43-12.72.43-49.71,0-115.43-18.72-142.27-59.83-5.41-8.29-2.28-10.88,4.59-16.57.65-.54,1.33-1.1,2.03-1.69,6.96-5.88,11.53-8.87,17.22-8.87M1714.3,1073.98c-5.97,0-10.73,3.08-17.86,9.11-7.99,6.76-13.26,9.67-6.8,19.57,26.99,41.35,92.97,60.28,143.1,60.28,4.75,0,9.35-.17,13.76-.51l-1.27-27.28c-14.86-7.7-31.15-12.42-46.22-19.63-23.3-11.16-49.02-28.36-71.84-38.17-5.25-2.26-9.29-3.37-12.88-3.37h0Z"/>
            <path class="cls-2" d="M1134.15,887.61c26.88,38.3,41.47,82.95,42.2,129.16.72,45.74-12.13,91-37.19,130.95l-25.12-14.49c4.52-9.49,9.23-40.65,11.77-66.39,2.7-27.4,4.24-61.2.45-73.89-.85-2.84-1.94-4.58-3.33-5.3-.88-.46-1.65-.68-2.35-.68-.78,0-1.46.29-1.97.83-1.39,1.46-1.24,4.47-1.13,6.67.03.59.06,1.09.04,1.39-.36,6.47.51,14.19,1.36,21.65.76,6.73,1.55,13.7,1.47,19.87-.09,6.64-2.21,29.57-5.45,51.83-5.41,37.16-9.6,43.04-10.95,43.93l-32.02,2.63c12.33-41.68,13.68-87.83,3.89-133.6-.69-3.22-3.1-10.55-5.44-17.64-2.26-6.84-5.06-15.36-5.01-16.54.64-6.13,13.51-25.21,30.59-45.38,17.66-20.84,32.96-34.88,38.18-35.02M1134.23,886.61c-12.41,0-68.37,67.23-69.85,81.3-.24,2.3,9.03,27.74,10.47,34.49,9.43,44.1,8.86,91.03-4.29,134.5l33.7-2.76c8.43-4.13,16.91-83.02,17.1-96.73.18-13.16-3.51-29.34-2.83-41.48.1-1.76-.97-7.95,2.06-7.95.51,0,1.13.17,1.89.57,12.29,6.37-.49,128.61-9.76,145.07l26.78,15.45c51.75-81.84,50.8-183.53-4.81-262.43-.15-.02-.3-.03-.46-.03h0Z"/>
            <path class="cls-2" d="M947.85,840.88c37.03,20.03,68.45,50.98,90.9,89.57,22.07,37.92,34.25,80.88,35.23,124.24.5,22.29-2.61,70.9-12.37,87.73-2.39,4.12-7.28,8.24-12.47,12.61-7.43,6.26-15.82,13.33-18.4,22.02-1.09-.3-1.98-.58-2.28-.83-.1-.09-.11-.28-.06-1.14.03-.51.07-1.15.05-1.97-.1-3.58.55-7.49,1.24-11.63.7-4.19,1.42-8.53,1.35-12.68-.14-8.49-2.12-16.8-4.04-24.82-.62-2.6-1.26-5.28-1.82-7.92-2.07-9.68-4.16-19.79-6.19-29.57-7.36-35.56-14.97-72.33-25.06-106.69-.59-2.02-14.53-49.42-18.11-53.1-1.02-1.05-2.12-1.6-3.18-1.6-1.87,0-3.21,1.66-3.42,4.24v.18s.03.17.03.17c3.54,12.6,7.52,25.34,11.37,37.66,6.2,19.84,12.61,40.36,17.37,60.86,6.12,26.34,11.74,56.43,10.48,63.8-13.1-8.41-27.69-13.03-41.21-13.03-16.41,0-30.43,6.66-40.58,19.28-2.03-.41-2.23-1.02-2.75-2.59-.15-.45-.32-.96-.55-1.54-16.35-39.73-22.69-84.73-18.33-130.14,4.36-45.43,19.16-87.98,42.79-123.11M947.53,839.57c-49.19,72.51-58.36,174.05-25.07,254.94,1.13,2.73.7,4.2,4.64,4.83,10.75-13.65,25.16-19.37,40.17-19.37s29.07,5.16,41.78,13.59c3.24-6.53-7.59-54.92-10.07-65.59-7.73-33.28-19.51-65.7-28.75-98.56.16-2.1,1.13-3.32,2.42-3.32.75,0,1.6.41,2.46,1.3,3.07,3.16,15.54,44.74,17.87,52.68,12.92,44.01,21.82,92.19,31.23,136.19,2.3,10.76,5.65,21.42,5.84,32.55.14,8.05-2.79,16.92-2.59,24.32.1,3.81-1.24,3.77,3.99,5.13,3.6-14.79,24.9-24.78,31.03-35.35,10.1-17.42,12.98-67.09,12.5-88.26-1.97-87.36-49.84-173.54-127.45-215.1h0Z"/>
            <path class="cls-2" d="M1185.64,1023.78c1.65,3.54,3.3,7.13,4.9,10.64,10.84,23.65,22.03,48.08,39.74,67.24l-36.04-1.74h-.26s-.23.1-.23.1l-27.52,13.5c10.74-29.16,17.1-58.58,19.4-89.74M1184.91,1019.86c-2.07,32.99-8.81,64.66-20.48,95.66l29.77-14.61,38.51,1.86c-22.2-23.04-34.25-54.27-47.81-82.91h0Z"/>
            <path class="cls-2" d="M1794.52,756.95c2.78,0,5.39,1,7.77,2.98,4.8,3.99,5.79,11.14,2.72,19.62-4.08,11.29-15.3,23.37-25.5,23.37-4.07,0-7.61-1.9-10.53-5.65-2.77-3.56-1.86-11.37,2.31-19.92,4.8-9.83,14.12-20.4,23.22-20.4M1794.52,755.95c-16.53,0-33.83,32.29-26.32,41.93,3.31,4.25,7.24,6.04,11.32,6.04,17.5,0,37.7-32.88,23.41-44.76-2.69-2.24-5.54-3.21-8.41-3.21h0Z"/>
            <path class="cls-2" d="M1769.44,877.41c-3.18,15.55.15,30.45,9.43,42.09,9.63,12.08,24.81,19.29,40.58,19.29,11.34,0,22.43-3.67,32.07-10.62l1.11-.8-1.1-.81c-8.29-6.13-16.48-20.57-15.47-32.29.54-6.28,3.63-10.88,9.18-13.67.83-.42,2.07-.63,3.69-.63,12.43,0,43.11,13.05,47.64,19.14,3.27,4.39,3.66,9.36,1.15,14.36-4.62,9.18-18.19,16.94-29.65,16.94-2.57,0-4.9-.4-6.92-1.19l-1.39-.54.02,1.49c.23,14.69,7.72,28.15,21.08,37.9,12.02,8.77,27.65,13.8,42.86,13.8.56,0,1.12,0,1.67-.02,8.76-.22,14.99-2.75,21.59-5.42,2.07-.84,4.21-1.71,6.47-2.51,2.71-.97,5.04-1.48,6.72-1.48,1.24,0,2.1.29,2.23.77.26.93-1.29,3.6-6.55,6.8-8,4.86-18.14,7.43-29.32,7.43-24.37,0-50.03-11.88-62.4-28.9-2.26-3.11-3.65-6.51-5-9.79-1.73-4.22-3.51-8.58-7.12-12.1l-.52-.5-.64.33c-9.54,4.94-19.6,7.45-29.9,7.45-17.4,0-33.71-7.29-44.75-20.01-10.7-12.33-15.33-28.59-13.08-45.88l6.3-.59M1770.71,876.29l-8.45.79c-5.61,39.51,24.27,67.81,58.71,67.81,9.99,0,20.36-2.38,30.36-7.56,6.19,6.04,6.71,14.48,12.01,21.76,12.8,17.61,39.05,29.31,63.21,29.31,10.83,0,21.25-2.35,29.84-7.58,7.98-4.85,9.11-9.42,3.8-9.42-1.7,0-4.06.47-7.06,1.54-9.39,3.37-16.43,7.59-27.74,7.87-.55.01-1.1.02-1.65.02-29.29,0-62.45-19.38-62.94-50.71,2.2.86,4.68,1.26,7.28,1.26,17.36,0,40.62-17.67,29.3-32.9-4.63-6.23-35.37-19.54-48.44-19.54-1.72,0-3.13.23-4.13.74-19.11,9.6-6.6,38.23,6.15,47.66-10,7.2-20.95,10.43-31.49,10.43-30.05,0-56.79-26.25-48.75-61.5h0Z"/>
            <path class="cls-2" d="M1452.69-13.4c20.47,0,40.95,8.82,59.21,25.51,3.7,3.38,6.35,7.29,8.92,11.08,3.08,4.54,5.98,8.83,10.41,11.96l.54.38.56-.35c4.59-2.83,7.62-6.5,10.82-10.38,2.5-3.02,5.08-6.15,8.51-8.92,11.98-9.69,36.17-17.88,52.82-17.88,1.03,0,2.03.03,2.97.09,21.16,1.38,38.68,10.01,52.07,25.67,11.77,13.76,19.86,32.63,23.4,54.56l.15.93.94-.09c1.94-.2,3.93-.29,5.94-.29,32.15,0,65.73,24.91,73.33,54.39l.13.49.47.19c2.73,1.09,5.7,1.62,9.08,1.62s6.86-.53,10.46-1.08c3.57-.55,7.27-1.12,10.99-1.12,2.41,0,4.61.24,6.73.72,19.7,4.54,36.51,16.55,46.11,32.95,8.32,14.22,10.28,30.07,5.65,45.83-4.88,16.64-9.17,18.37-17.72,21.82-3.39,1.37-7.6,3.07-12.69,6.05-2.81,1.65-7.39,4.77-12.25,8.08-8,5.45-17.96,12.24-21.31,13.19-1.16.33-2.33.49-3.56.49-2.24,0-4.39-.55-6.47-1.08-2.07-.53-4.2-1.07-6.41-1.07-1.84,0-3.54.37-5.21,1.14l-.82.38.3.86c.2.58.43,1.19.66,1.81,1.02,2.74,2.18,5.85,1.95,8.42-.46,5.26-14.94,17.26-25.52,26.02-4.91,4.07-9.15,7.58-11.58,10.02-2.01,2.02-6.77,7.5-12.28,13.84-8.44,9.71-21.12,24.3-23.46,25.58-18.44-3.15-36.02-10.61-52.26-22.18-14.6-10.4-28.16-24.13-40.32-40.82l-.51-.7-.77.41c-6.43,3.43-10.85,8.24-15.53,13.34-3.45,3.76-7.02,7.65-11.5,10.95-15.15,11.17-33.17,17.07-52.09,17.07-15.25,0-30.56-3.88-44.28-11.21-14.04-7.51-26.09-18.49-34.84-31.77-9.12-13.83-10.97-26.72-13.12-41.64-.55-3.82-1.12-7.77-1.83-11.87l-.07-.4-.33-.24c-.49-.35-1.29-.5-2.69-.5-3.24,0-9.45.84-15.45,1.66-5.91.8-12.01,1.63-15.09,1.63-.23,0-.45,0-.64-.01-25.83-1.32-49.31-12.89-66.13-32.58-15.29-17.91-23.77-40.78-23.25-62.76.42-18.01,6.8-33.49,18.44-44.75,13.07-12.64,32.58-19.37,56.43-19.47h1.02s-.02-1.02-.02-1.02c-.58-25.98,7.57-48.94,22.94-64.66,12.79-13.08,29.86-20.28,48.05-20.28M1452.69-14.4c-39.97,0-73.15,33.88-71.99,85.97-117.7.47-87.22,156.37,14.46,161.56.21.01.45.02.7.02,6.3,0,24.2-3.29,30.54-3.29,1.07,0,1.81.09,2.11.31,3.47,19.93,3.49,36.25,15.11,53.89,18.25,27.7,48.97,43.42,79.95,43.42,18.31,0,36.72-5.5,52.69-17.26,10.45-7.7,15.78-18.28,26.9-24.21,22.96,31.51,54,56.8,93.48,63.45,2.68-.3,30.72-34.08,36.35-39.74,7.97-8,36.68-28.54,37.38-36.67.3-3.4-1.54-7.42-2.67-10.65,1.66-.77,3.24-1.05,4.79-1.05,4.26,0,8.25,2.15,12.89,2.15,1.23,0,2.5-.15,3.84-.53,5.52-1.57,26.18-16.91,33.79-21.37,17.81-10.44,23.88-4.63,30.87-28.46,10.99-37.48-16.2-71.68-52.5-80.04-2.35-.54-4.67-.75-6.95-.75-7.45,0-14.55,2.21-21.45,2.21-2.94,0-5.84-.4-8.71-1.55-7.85-30.45-42.26-55.14-74.31-55.14-2.02,0-4.04.1-6.03.3-6.72-41.68-30.82-78.1-76.39-81.07-.98-.06-2-.1-3.04-.1-16.83,0-41.12,8.12-53.45,18.1-7.83,6.34-11.17,14.26-19.23,19.24-7.99-5.63-11.07-15.5-19.23-22.96-19.46-17.78-40.47-25.77-59.89-25.77h0Z"/>
            <path class="cls-2" d="M1270.1,785.7c19.83,0,25.69,52.8,26.29,58.82l.16,1.64,1.38-.9c4.93-3.22,8.95-6.89,12.83-10.45,5.4-4.95,10.51-9.62,17.9-13.2,6.84-3.31,12.67-4.91,17.83-4.91,11.22,0,18.78,7.55,29.25,17.99,2,1.99,4.06,4.05,6.28,6.19,41.99,40.44,73.19,93.64,103.36,145.08,6.32,10.77,12.85,21.9,19.27,32.55,1.9,3.15,5.55,8.08,9.42,13.29,5.65,7.62,12.06,16.26,13.18,19.73,2.37,7.33-8.02,18.86-15.6,27.28-3.18,3.53-5.92,6.58-7.61,9.05-4.66,6.85-9.14,14.74-13.48,22.37-5.31,9.35-10.81,19.02-16.57,26.66-5.28,6.99-12.27,11.61-19.03,16.08-5.65,3.74-11.5,7.6-16.36,12.84l-3.64,3.91,4.8-2.33,25-12.14c-.64,1.52-1.29,3.04-1.93,4.55-11.27,26.52-22.92,53.93-28.98,82.78-35.35-15.75-62.92-30.5-86.46-46.28l49.12-11.02,5.71-1.28-5.81-.69c-1.07-.13-2.24-.19-3.48-.19-6.91,0-15.61,1.97-24.02,3.88-8.06,1.83-16.4,3.71-22.7,3.71-1.48,0-2.82-.1-3.99-.31-12.89-2.28-43.96-28.44-60.29-43.55-43.77-40.5-74.63-87.89-89.23-137.05-7.86-26.47-10.83-53.08-8.83-79.09,2.14-27.81,10-55.07,23.35-81.01,8.09-15.72,43.67-59.69,59.98-63.65.98-.24,1.96-.36,2.9-.36M1270.1,784.7c-1.01,0-2.05.13-3.13.39-16.84,4.08-52.51,48.39-60.63,64.16-55.63,108.08-8.26,221.39,74.92,298.34,11.96,11.06,46.37,41.25,60.79,43.8,1.28.23,2.67.33,4.16.33,12.95,0,33.25-7.59,46.72-7.59,1.17,0,2.3.06,3.36.18l-51.38,11.53c28.09,19.08,58.62,34.38,89.67,48.17,6.47-31.7,19.57-61.1,32.15-90.82l-27.39,13.31c10.6-11.41,25.65-16,35.46-29,10.5-13.92,19.72-33.84,30.08-49.07,5.97-8.78,26.85-26.32,23.33-37.2-1.94-6.01-17.95-25.38-22.69-33.23-36.35-60.24-71.68-128.6-122.8-177.84-13.98-13.46-22.39-24.46-36.22-24.46-5.15,0-11.05,1.52-18.26,5.01-13.04,6.3-19.35,16.21-30.84,23.71-1.38-13.8-7.97-59.72-27.28-59.72h0Z"/>
            <path class="cls-2" d="M1842.15,276.39c2.06.44,2.39,1.17,3.18,2.93.16.35.33.73.53,1.14,1.99,4.07,5.68,15.59,8.11,23.21.68,2.14,1.29,4.04,1.77,5.5,9.33,28.33,16.55,58.98,21.46,91.1,4.65,30.42,7.14,61.49,7.39,92.35-29.6,2.43-62.32,11.76-94.68,27.03-31.37,14.8-60.12,33.98-83.14,55.48-1.85,1.73-6.72,7.28-12.35,13.71-8.11,9.26-21.26,24.26-25.14,27.05-7.2-63.09,7.72-124.45,45.57-187.53,33.72-56.18,81.08-106.23,127.29-151.95M1841.82,275.31c-92.92,91.9-190.14,200.82-173.37,341.96.04.02.08.03.14.03,3.39,0,33.64-36.56,38.88-41.46,45.53-42.52,116.11-77.52,178.15-82.31-.41-61.19-9.71-126.38-28.91-184.68-2.26-6.87-7.37-23.58-9.94-28.83-1.29-2.64-1.36-4.1-4.94-4.71h0Z"/>
            <path class="cls-2" d="M1850.58,241.09c9.29,0,16.06,5.35,28.64,18.16,26.58,27.05,51.32,64.17,71.54,107.33,18.44,39.37,32.49,82.75,39.59,122.24-.58.1-1.82.23-4.42.23-7.24,0-20.24-.92-30.68-1.65-6.83-.48-12.72-.9-15.01-.91h-.11c-2.61,0-7.08.44-12.26.95-6.97.69-15.65,1.55-22.44,1.55-8.33,0-10.5-1.32-11.04-2.08-.94-1.81-1.88-21.67-2.56-36.16-.49-10.36-.95-20.14-1.39-23.81-2.94-24.87-6.07-44.54-9.84-61.91-1.14-5.25-7.87-31.04-15.18-55.03-14.73-48.39-19.15-48.39-20.82-48.39-.19,0-.37.02-.55.07l-.26.07-.19.19c-48.94,48.7-92.19,93.18-125.86,144.42-18.31,27.86-32.01,55.1-41.89,83.28-10.99,31.36-16.99,63.04-18.34,96.85-.16,4.02.46,10.88,1.12,18.14.79,8.71,1.68,18.58.87,21.69-1.42,5.44-15.12,20.39-20.09,25.16-.5.48-.93,1.11-1.35,1.73-.65.95-1.38,2.02-2.09,2.02-.42,0-.99-.33-1.63-.97-8.53-8.39-6.59-95.53-4.41-113.49,3.54-29.26,10.84-58.83,21.7-87.86,10.84-28.98,24.96-56.75,41.98-82.53,35.81-54.25,82.19-96.49,134.13-122.14,10-4.94,17.04-7.14,22.82-7.14M1850.58,240.09c-6.17,0-13.38,2.36-23.26,7.25-108.51,53.6-184.08,175.26-198.36,293.31-1.99,16.44-4.52,105.24,4.71,114.32.92.9,1.68,1.26,2.33,1.26,1.84,0,2.85-2.79,4.14-4.02,4.98-4.78,18.85-19.82,20.37-25.63,1.51-5.79-2.32-30.91-1.96-40.04,5.56-139.82,92.67-231.22,185.79-323.89.09-.03.19-.04.28-.04,8.38,0,32.91,92.94,35.01,102.63,4.37,20.14,7.4,41.34,9.83,61.81,1.1,9.31,2.37,57.92,4.1,60.4,1.33,1.9,5.96,2.54,11.87,2.54,11.76,0,28.59-2.5,34.69-2.5.04,0,.07,0,.11,0,5.67.03,33.62,2.56,45.7,2.56,3.16,0,5.24-.17,5.54-.61-13.92-78.39-55.05-173.4-111.54-230.89-11.87-12.08-19.21-18.46-29.36-18.46h0Z"/>
            <path class="cls-2" d="M947.85,840.88c37.03,20.03,68.45,50.98,90.9,89.57,22.07,37.92,34.25,80.88,35.23,124.24.5,22.29-2.61,70.9-12.37,87.73-2.39,4.12-7.28,8.24-12.47,12.61-7.43,6.26-15.82,13.33-18.4,22.02-1.09-.3-1.98-.58-2.28-.83-.1-.09-.11-.28-.06-1.14.03-.51.07-1.15.05-1.97-.1-3.58.55-7.49,1.24-11.63.7-4.19,1.42-8.53,1.35-12.68-.14-8.49-2.12-16.8-4.04-24.82-.62-2.6-1.26-5.28-1.82-7.92-2.07-9.68-4.16-19.79-6.19-29.57-7.36-35.56-14.97-72.33-25.06-106.69-.59-2.02-14.53-49.42-18.11-53.1-1.02-1.05-2.12-1.6-3.18-1.6-1.87,0-3.21,1.66-3.42,4.24v.18s.03.17.03.17c3.54,12.6,7.52,25.34,11.37,37.66,6.2,19.84,12.61,40.36,17.37,60.86,6.12,26.34,11.74,56.43,10.48,63.8-13.1-8.41-27.69-13.03-41.22-13.03-16.41,0-30.43,6.66-40.58,19.28-2.03-.41-2.23-1.02-2.75-2.59-.15-.45-.32-.96-.55-1.54-16.35-39.73-22.69-84.73-18.33-130.14,4.36-45.43,19.16-87.98,42.79-123.11M947.53,839.57c-49.19,72.51-58.36,174.05-25.07,254.94,1.13,2.73.7,4.2,4.64,4.83,10.75-13.65,25.16-19.37,40.17-19.37,14.26,0,29.07,5.17,41.78,13.59,3.24-6.53-7.59-54.92-10.07-65.59-7.73-33.28-19.51-65.7-28.75-98.56.16-2.1,1.13-3.32,2.42-3.32.75,0,1.6.41,2.46,1.3,3.07,3.16,15.54,44.74,17.87,52.68,12.92,44.01,21.82,92.19,31.23,136.19,2.3,10.76,5.65,21.42,5.84,32.55.14,8.05-2.79,16.92-2.59,24.32.1,3.81-1.24,3.77,3.99,5.13,3.6-14.79,24.9-24.78,31.03-35.35,10.1-17.42,12.98-67.09,12.5-88.26-1.97-87.36-49.84-173.54-127.45-215.1h0Z"/>
            <path class="cls-2" d="M1499.9,381.88c1.29,1.24,4.54,7.78,4.89,42.06.21,20.85-.81,42.1-1.86,48.13-10.27,58.88-43.31,88.73-98.2,88.73-11.45,0-23.98-1.32-37.27-3.93l91.67-116.5.62-.78-.78-.62c-1.25-.99-2.51-1.49-3.76-1.49-3.17,0-5.44,3.13-7.45,5.89-.65.9-1.27,1.75-1.88,2.44-12.76,14.5-24.86,30.19-36.56,45.36-15.72,20.38-31.97,41.45-50.12,60.05-2.83-.42-2.77-.98-2.65-2.14.07-.64.15-1.44-.13-2.28-7.39-22.22-11.14-62.39-4.71-84.51,9.35-32.16,37.98-51.15,60.36-61.42,25.87-11.88,58.7-18.97,87.83-18.97M1499.91,380.88c-53.14,0-132.49,23.79-149.16,81.11-6.54,22.5-2.68,62.84,4.72,85.11.74,2.23-1.93,4.4,4.09,5.17,31.89-32.57,57.11-71.76,87.07-105.8,2.47-2.81,4.99-7.98,8.57-7.98.96,0,2,.37,3.14,1.27l-92.68,117.78c13.8,2.81,26.86,4.27,39.06,4.27,51.91,0,88.19-26.56,99.18-89.56,2.12-12.18,4.1-86.2-3.66-91.37-.11,0-.22,0-.33,0h0Z"/>
            <path class="cls-2" d="M1232.76,259.53c26.98,6.6,56.48,21.01,79.08,38.64,35.35,27.57,43.93,54.29,44.91,71.84.84,15.16-1.9,32.03-7.71,47.53-5.99,15.97-14.7,29.27-25.24,38.56l-59.09-135.82-1.7-3.9-.22,4.25-.56,10.87v.23s.08.21.08.21l52.04,125.16-2.94,4.47c-27.43-6.13-58.38-15.88-80.85-41.29-15.49-17.52-22.18-44.83-19.35-78.99,2.2-26.51,10.04-56.26,21.54-81.76M1232.19,258.37c-20.08,44.11-37.71,122.61-2.37,162.58,21.55,24.37,51.14,34.9,82.05,41.75l3.61-5.49-52.24-125.65.56-10.87,59.63,137.06c23.33-19.8,36.02-57.22,34.32-87.79-3.15-56.66-75.77-99.67-125.56-111.59h0Z"/>
            <path class="cls-2" d="M1134.15,887.61c26.88,38.3,41.47,82.95,42.2,129.16.72,45.74-12.13,91-37.19,130.95l-25.12-14.49c4.52-9.49,9.23-40.65,11.77-66.39,2.7-27.4,4.24-61.2.45-73.89-.85-2.84-1.94-4.58-3.33-5.3-.88-.46-1.65-.68-2.34-.68-.78,0-1.46.29-1.97.83-1.39,1.46-1.24,4.47-1.13,6.67.03.59.06,1.1.04,1.39-.36,6.47.51,14.19,1.36,21.65.76,6.73,1.55,13.7,1.47,19.87-.09,6.64-2.21,29.57-5.45,51.83-5.41,37.16-9.6,43.04-10.95,43.93l-32.02,2.63c12.33-41.68,13.68-87.83,3.89-133.6-.69-3.22-3.1-10.55-5.44-17.64-2.26-6.84-5.06-15.36-5.01-16.54.64-6.13,13.51-25.21,30.59-45.38,17.65-20.84,32.96-34.88,38.18-35.02M1134.23,886.61c-12.41,0-68.37,67.23-69.85,81.3-.24,2.3,9.03,27.74,10.47,34.49,9.43,44.1,8.86,91.03-4.29,134.5l33.7-2.76c8.43-4.13,16.91-83.02,17.1-96.73.18-13.16-3.51-29.34-2.83-41.48.1-1.76-.97-7.95,2.06-7.95.51,0,1.13.17,1.89.57,12.29,6.37-.49,128.61-9.76,145.07l26.78,15.45c51.75-81.84,50.8-183.53-4.81-262.43-.15-.02-.3-.03-.46-.03h0Z"/>
            <path class="cls-2" d="M1273.1,518.95v1c25.39,0,46.39,10.22,64.23,31.23,4.47,5.27,29.69,44.95,27.6,53.33-.12.48-.31.73-.51.86l-143.66-29.44-1.56-.32.39,1.55,1.57,6.19.15.61.62.12,141.22,28.67c-10.05,12.67-24.1,24.12-39.74,32.36-17.1,9.02-35.02,13.78-51.82,13.78-7.1,0-13.96-.86-20.41-2.57-31.22-8.25-63.49-36.18-98.64-85.35,3.48-8.82,54.56-34.83,65.84-39.09,21.18-8.02,39.07-11.92,54.71-11.92v-1M1273.09,518.95c-17.49,0-35.94,4.74-55.06,11.98-11.25,4.26-64.43,31.09-66.59,40.21,23.47,32.9,58.88,75.41,99.48,86.14,6.72,1.78,13.65,2.6,20.67,2.6,35.45,0,72.87-21.12,93.34-47.8l-142.8-28.99-1.57-6.19,144,29.51c8.5-3.36-22.28-50.94-26.47-55.89-19.44-22.91-41.34-31.58-65-31.58h0Z"/>
            <path class="cls-2" d="M1550.62,563.6c4.56,0,9.05.15,13.36.43,1.58,4.59,1.46,44.86.33,49.23-.89,3.44-2.57,6.6-4.35,9.94-1.85,3.48-3.76,7.07-4.95,11.3-1.98,7.04-2.85,14.38-3.68,21.48-.88,7.5-1.79,15.25-4.04,22.57-4.44-1.18-9.95-3.98-15.29-6.69-6.67-3.39-12.98-6.59-17.83-7.18-.07,0-.14-.01-.22-.01-2.16,0-11.74,4.87-13.48,6.62-8.93,8.92-8.34,27.5-7.86,42.42.27,8.47.53,16.48-1.41,18.53-9.33,2.47-22.34,3.95-34.89,3.95-16.12,0-29.31-2.38-37.13-6.71-.86-.47-1.61-.76-2.16-.96-.21-.08-.45-.17-.62-.24.11-.28.43-.82,1.18-1.9l100.28-103.99.83-.86-1-.66-5.29-3.52-.7-.47-.58.61-99.93,105.93c-3.52-1.29-4.03-5.4-4.52-9.38-.15-1.25-.3-2.42-.53-3.52-2.61-12.26-3.59-28.14-2.69-43.56,1-17.19,4.3-32.04,9.29-41.83,10.26-20.12,30.58-36.53,58.78-47.43,23.54-9.11,51.64-14.12,79.12-14.12M1563.86,563.76s0,0,0,0h0M1550.62,562.6c-49.82,0-115.86,17.14-138.79,62.1-11.07,21.71-11.75,62.2-6.68,86.04,1.05,4.92.38,12.28,6.33,13.83l100.36-106.38,5.29,3.52-100.34,104.04c-2.79,3.99-1.25,2.87,1.9,4.61,8.88,4.91,23.23,6.84,37.62,6.84,13.17,0,26.36-1.62,35.39-4.05,6.2-5.32-4.82-46.88,9.47-61.15,1.63-1.63,10.95-6.32,12.77-6.32.03,0,.07,0,.1,0,8.92,1.07,24.02,11.87,33.91,14.06,4.71-14.57,3.86-30.25,8.01-44.97,2.3-8.18,7.45-14.08,9.3-21.27,1.19-4.62,1.43-49.11-.71-50.45-4.46-.31-9.13-.47-13.95-.47h0Z"/>
            <path class="cls-2" d="M1319.18,683.49v1c30.5,0,53.07,13.38,73.17,43.38,4.03,6.01,21.66,40.62,19.05,49.06-.18.6-.44.9-.67,1.08-13.8-5.27-29.4-11.22-43.88-15.43l-2.66-.78c-20.23-5.9-81.81-23.84-92.32-23.84-.32,0-.59.02-.83.05-1.22.16-3.91,1.37-4.54,2.67-.23.47-.21.98.04,1.39l.2.32.36.11,142.99,42.99c-1.07,1.98-7.72,7.75-19.14,14.98-11.95,7.56-22.54,12.45-26.98,12.45-.49,0-.9-.06-1.21-.17-1.25-.46-2.51-1.61-3.84-2.82-1.48-1.34-3.01-2.73-4.82-3.5-1.79-.76-3.81-1.15-6-1.15h0c-8.22,0-17.66,5.28-25.98,9.93-4.97,2.78-9.67,5.41-12.84,6.07-.79.16-1.53.25-2.2.25-5.1,0-6.28-4.73-7.77-12.44-.86-4.46-1.75-9.07-3.98-12.83-8.69-14.68-15.51-20.66-23.54-20.66-6.21,0-13.35,3.74-23.08,12.11-7.42-3.81-38.13-43.79-45.2-59.06-1.21-2.62-1.38-3.78-1.37-4.24,22.94-13.29,50.28-27.76,79.42-34.78,14.38-3.46,26.68-5.15,37.6-5.15v-1M1319.18,683.49c-11.54,0-24.06,1.86-37.83,5.17-28.38,6.83-55.05,20.6-80.08,35.11-2.54,6.19,39.42,62.43,47.64,65.1,9.4-8.15,16.58-12.27,22.9-12.27,8.04,0,14.67,6.67,22.67,20.17,5.61,9.47,2.61,25.76,12.6,25.76.73,0,1.53-.09,2.4-.27,8.52-1.77,25.56-15.98,38.62-15.98,1.97,0,3.86.33,5.61,1.07,3.29,1.4,5.83,5.26,8.71,6.33.43.16.95.24,1.55.24,11.02,0,49.02-25.43,47.21-29.14l-143.79-43.23c-.49-.79,2.38-2.37,3.77-2.55.2-.03.43-.04.7-.04,10.95,0,80.73,20.52,94.71,24.58,14.43,4.19,30.13,10.18,44.22,15.56,8.23-3.3-13.5-45.65-17.62-51.79-21.11-31.51-44.29-43.83-74-43.83h0Z"/>
            <path class="cls-2" d="M1714.3,1074.98c3.34,0,7.19,1.02,12.48,3.29,12.54,5.39,26.21,13.17,39.44,20.69,10.76,6.12,21.89,12.45,32.36,17.46,6.91,3.31,14.19,6.14,21.23,8.88,8.15,3.17,16.57,6.44,24.45,10.48l1.2,25.73c-4.09.29-8.36.43-12.72.43-49.71,0-115.43-18.72-142.27-59.83-5.41-8.29-2.28-10.88,4.59-16.57.65-.54,1.33-1.1,2.03-1.69,6.96-5.88,11.53-8.87,17.22-8.87M1714.3,1073.98c-5.97,0-10.73,3.08-17.86,9.11-7.99,6.76-13.26,9.67-6.8,19.57,26.99,41.35,92.97,60.28,143.1,60.28,4.74,0,9.35-.17,13.76-.51l-1.27-27.28c-14.86-7.7-31.15-12.42-46.22-19.63-23.3-11.16-49.02-28.36-71.84-38.17-5.25-2.26-9.29-3.37-12.88-3.37h0Z"/>
            <path class="cls-2" d="M1559,939v1c3.92,0,6.84.78,8.68,2.31,1.56,1.3,19.23,23.64,20.15,25.91.2,2.36-4.64,19.14-6.18,21.4-2.93,4.28-50.23,40.73-53.81,41.5-.04,0-.08,0-.12,0-4.51,0-13.95-16.47-21.54-29.71-5.7-9.93-11.09-19.34-14.79-22.88,3.42-6.66,9.09-13,16.88-18.85,8.44-6.34,17.29-10.54,23.23-12.95,3.89-1.58,17.36-6.73,27.51-6.73v-1M1559,939c-9.26,0-21.49,4.2-27.88,6.8-15.4,6.25-33.48,17.63-40.97,32.96,8.5,6.95,28.82,53.35,37.57,53.35.07,0,.14,0,.21,0,3.43-.3,51.67-37.72,54.55-41.93,1.7-2.49,6.66-19.8,6.34-22.15-.23-1.66-18.87-25.13-20.49-26.48-2.2-1.83-5.51-2.55-9.32-2.54h0Z"/>
            <path class="cls-2" d="M1493.81,768.42l3.62,4.95,15.07,65.84-64.04,58.74c-1.89-.35-2.47-.72-2.65-.92-.13-.15-.12-.36,0-1.05.1-.64.23-1.43.03-2.37-4.93-22.9-3.52-49.94,3.76-72.34,5.92-18.22,18.39-42.1,44.22-52.86M1494.15,767.19c-46.16,18.62-58.79,82.56-49.3,126.64.57,2.63-2.18,4.18,3.92,5.19l64.83-59.47-15.25-66.61-4.2-5.75h0Z"/>
            <path class="cls-2" d="M1595.38,978.01c28.46,30.81,64.08,59.65,108.78,88.1l-22.01,21.32c-3.15-1.92-6.53-2.18-9.18-2.18-1.19,0-2.36.06-3.5.11-1.11.05-2.15.11-3.18.11-2.12,0-3.62-.23-4.89-.75-4.01-1.64-11.81-7.78-17.51-12.26-1.78-1.4-3.46-2.73-4.78-3.72-18.2-13.68-30.77-26.7-38.44-39.79-9.75-16.65-11.53-33.78-5.3-50.94M1595.02,976.14c-15.58,39.9,13.87,71.13,43.5,93.4,5.56,4.18,17.1,13.88,22.52,16.1,1.59.65,3.38.82,5.27.82,2.13,0,4.4-.22,6.68-.22,3.18,0,6.39.42,9.3,2.45l23.49-22.75c-40.39-25.61-78.41-54.51-110.75-89.81h0Z"/>
            <path class="cls-2" d="M1413.63,737.3c15.49,4.24,33.08,7,47.41,7.41.23,0,.47,0,.7,0,3.17,0,6.88-.56,10.82-1.15,4.01-.6,8.15-1.23,11.73-1.23,5.78,0,8.77,1.58,9.7,5.12,2.72,10.32-2.31,12.89-9.27,16.46-2.95,1.51-6.3,3.22-9.36,5.73-11.64,9.56-20.09,20.25-26.59,33.62-5.36,11.03-8.96,22.85-12.83,36.85l-22.31-102.83M1412.31,735.9l23.52,108.42c8.26-30.2,15.28-53.44,40.17-73.89,10.09-8.29,23.12-7.47,18.96-23.22-1.2-4.56-5.39-5.87-10.67-5.87-7.11,0-16.18,2.38-22.55,2.38-.23,0-.45,0-.68,0-15.59-.45-33.69-3.55-48.77-7.82h0Z"/>
            <path class="cls-2" d="M1514.11,848.38l31.01,59.26c-10.31,5.28-22.03,7.85-35.78,7.85-19.29,0-38.95-5.12-55.84-10.29l60.61-56.82M1514.38,846.75l-62.83,58.9c17.88,5.53,38.16,10.84,57.78,10.84,12.96,0,25.64-2.32,37.13-8.42l-32.08-61.32h0Z"/>
            <path class="cls-2" d="M1454.96,913.59c.4,0,1.11.41,1.8.8.91.52,1.95,1.12,3.15,1.38,20.42,4.53,36.44,7.34,53.16,7.34,12.63,0,24.72-1.7,36.92-5.18,2.48,1.66,7.85,8.85,8.03,12.83.04.91-.21,1.32-.47,1.55-13.86,1.6-27.36,5.52-39.07,11.32-12.75,6.32-23.03,14.61-30.58,24.65l-33.98-52.71c.31-1.24.7-1.99,1.04-1.99M1454.96,912.59c-.88,0-1.58.77-2.11,3.18l35,54.29c15.88-22.01,43.64-33.76,70.09-36.77,4.15-2.65-4.59-14.77-7.8-16.43-12.98,3.75-25.11,5.26-37.06,5.26-17.34,0-34.3-3.18-52.94-7.32-2.12-.47-3.85-2.21-5.17-2.21h0Z"/>
            <path class="cls-2" d="M1416.64,793.4h0c.56,0,.83.16.99.33l15.18,90.64-58.89-64.7c5.54-2.55,12.3-5.88,17.9-9.7.99-.67,2.61-1.99,4.67-3.65,5.57-4.51,15.94-12.92,20.15-12.92M1416.64,792.4c-6.03,0-21.46,14.07-25.38,16.74-5.68,3.87-12.71,7.32-19,10.19l62.1,68.23-15.78-94.23c-.42-.64-1.08-.93-1.94-.93h0Z"/>
            <path class="cls-2" d="M1185.64,1023.78c1.65,3.54,3.3,7.13,4.9,10.64,10.84,23.65,22.03,48.08,39.74,67.24l-36.04-1.74h-.26s-.23.1-.23.1l-27.52,13.5c10.74-29.16,17.1-58.58,19.4-89.74M1184.91,1019.86c-2.07,32.99-8.81,64.66-20.48,95.66l29.77-14.61,38.51,1.86c-22.2-23.04-34.25-54.27-47.81-82.91h0Z"/>
            <path class="cls-2" d="M1581.2,1001.71h0c.58,0,1.15.15,1.73.45-8.27,12.42-20.67,23.12-32.67,33.48-4.82,4.16-9.8,8.45-14.36,12.75l-3.84-8.98c8.24-5.66,16.08-12.1,23.66-18.34,5.45-4.49,11.09-9.12,16.8-13.4.86-.65,1.73-1.45,2.57-2.22,1.99-1.83,4.04-3.73,6.11-3.73M1581.2,1000.71c-3.43,0-6.39,3.99-9.27,6.15-13.89,10.4-26.7,22.4-41.1,32.18l4.73,11.06c16.08-15.38,36.86-29.82,48.77-48.24-1.09-.81-2.12-1.15-3.12-1.15h0Z"/>
            <path class="cls-2" d="M1769.44,877.41c-3.18,15.55.15,30.45,9.44,42.09,9.63,12.08,24.81,19.29,40.58,19.29,11.34,0,22.43-3.67,32.07-10.62l1.11-.8-1.1-.81c-8.29-6.13-16.48-20.57-15.47-32.29.54-6.28,3.63-10.88,9.18-13.67.83-.42,2.07-.63,3.69-.63,12.43,0,43.1,13.04,47.64,19.14,3.27,4.39,3.66,9.36,1.15,14.36-4.62,9.18-18.19,16.94-29.65,16.94-2.57,0-4.9-.4-6.92-1.19l-1.39-.54.02,1.49c.23,14.69,7.72,28.15,21.08,37.89,12.02,8.77,27.65,13.8,42.86,13.8.56,0,1.12,0,1.67-.02,8.76-.22,14.99-2.75,21.59-5.42,2.07-.84,4.21-1.71,6.47-2.51,2.71-.97,5.04-1.48,6.72-1.48,1.24,0,2.1.29,2.23.77.26.93-1.29,3.6-6.55,6.8-8,4.86-18.14,7.43-29.32,7.43-24.37,0-50.03-11.88-62.4-28.9-2.26-3.11-3.65-6.51-5-9.79-1.73-4.22-3.51-8.58-7.12-12.1l-.52-.5-.64.33c-9.54,4.94-19.6,7.45-29.9,7.45-17.4,0-33.71-7.29-44.75-20.01-10.7-12.33-15.33-28.59-13.08-45.88l6.3-.59M1770.71,876.29l-8.45.79c-5.61,39.51,24.27,67.81,58.71,67.81,9.99,0,20.36-2.38,30.36-7.56,6.19,6.04,6.71,14.48,12.01,21.76,12.81,17.61,39.05,29.31,63.21,29.31,10.83,0,21.25-2.35,29.84-7.58,7.98-4.85,9.11-9.42,3.8-9.42-1.7,0-4.06.47-7.06,1.54-9.39,3.37-16.43,7.59-27.74,7.87-.55.01-1.1.02-1.65.02-29.29,0-62.45-19.39-62.94-50.71,2.2.86,4.68,1.26,7.28,1.26,17.36,0,40.62-17.67,29.3-32.9-4.63-6.23-35.37-19.54-48.44-19.54-1.72,0-3.13.23-4.13.74-19.11,9.6-6.6,38.23,6.15,47.66-10,7.2-20.95,10.43-31.49,10.43-30.05,0-56.79-26.25-48.75-61.5h0Z"/>
            <path class="cls-2" d="M1848.91,886.91c4.18,0,10.05,1.16,17,3.36,11.79,3.73,24.73,10.26,25.7,17.4.49,3.59-2.1,7.25-7.69,10.88-4.55,2.96-9.26,4.46-13.99,4.46-12.6,0-23.16-10.83-26.1-21.31-1.86-6.63-.44-11.98,3.87-14.75.39-.02.79-.03,1.21-.03M1848.91,885.91c-.52,0-1.03.02-1.53.05-13.81,8.4,1.09,38.04,22.54,38.04,4.62,0,9.53-1.37,14.53-4.62,21.27-13.81-3.88-25.51-18.25-30.06-4.91-1.55-11.85-3.41-17.3-3.41h0Z"/>
            <path class="cls-2" d="M1794.52,755.95v1c2.78,0,5.39,1,7.77,2.98,4.8,3.99,5.79,11.14,2.72,19.62-4.08,11.29-15.3,23.37-25.5,23.37-4.07,0-7.61-1.9-10.53-5.65-2.77-3.56-1.86-11.37,2.31-19.91,4.8-9.83,14.12-20.41,23.22-20.41v-1M1794.52,755.95c-16.53,0-33.83,32.29-26.32,41.93,3.31,4.25,7.24,6.04,11.32,6.04,17.49,0,37.7-32.88,23.41-44.76-2.69-2.24-5.54-3.21-8.41-3.21h0Z"/>
            <path class="cls-2" d="M1848.91,885.91v1c4.18,0,10.05,1.16,16.99,3.36,11.79,3.73,24.73,10.26,25.7,17.4.49,3.59-2.1,7.25-7.69,10.88-4.55,2.96-9.26,4.46-13.99,4.46-12.6,0-23.16-10.83-26.1-21.31-1.86-6.63-.44-11.98,3.88-14.75.39-.02.79-.03,1.21-.03v-1M1848.91,885.91c-.52,0-1.03.02-1.53.05-13.81,8.4,1.08,38.04,22.54,38.04,4.61,0,9.53-1.37,14.53-4.62,21.27-13.81-3.88-25.51-18.25-30.06-4.91-1.55-11.85-3.41-17.3-3.41h0Z"/>
            <path class="cls-2" d="M1557.15,1.5c-8.6,5.09-16.8,11.68-24.42,19.61-2.78-2.71-5.43-5.58-8-8.35-3.53-3.81-7.16-7.73-11.12-11.26h43.54M1560.95.5h-50.02c7.93,6.58,14.26,14.76,21.84,22.03,8.51-8.99,17.86-16.44,28.18-22.03h0Z"/>
            <path class="cls-2" d="M1739.59,1.5c-20.7,15.89-37.56,32.94-50.16,50.7-2.12-1.47-7.83-12.2-10.64-17.49-1.87-3.51-3.34-6.29-4.1-7.33-7.43-10.28-17.01-19.5-25.63-24.67-.62-.37-1.46-.77-2.46-1.21h92.99M1742.55.5h-101.06c3.01,1.2,5.66,2.24,7.05,3.07,9.52,5.71,18.85,15.42,25.33,24.4,2.31,3.2,12.76,25.38,15.78,25.38.08,0,.16-.02.23-.05,14.04-19.95,32.47-37.58,52.68-52.79h0Z"/>
            <path class="cls-2" d="M1918.5,1.5v19.83c-62.01,20.99-110.59,56.09-144.42,104.33-1.74-1.09-6-8.19-8.36-12.12-2.01-3.36-3.75-6.25-4.88-7.57-11.36-13.34-28.21-25.63-42.92-31.31-4.54-1.75-9.93-2.53-14.69-3.22-4.25-.61-8.27-1.19-10.99-2.35-2.35-.99-2.52-1.57-3.21-4,19.22-24.04,42.02-45.44,67.76-63.6h161.7M1919.5.5h-163.02c-25.34,17.85-48.44,39.16-68.54,64.38.84,2.91.97,3.88,3.92,5.14,5.98,2.53,17.26,2.31,25.7,5.57,15.33,5.92,31.94,18.61,42.52,31.02,3,3.52,11.4,20.18,14.27,20.18.06,0,.11,0,.17-.02,36.23-51.94,87.37-85.35,144.98-104.72V.5h0Z"/>
            <path class="cls-2" d="M1919,496.73v582.27h-173.9c-54.72-30.39-100.05-63.12-131.1-94.67-33.11-33.64-64.52-83.37-86.18-136.42-23.78-58.25-32.95-114.11-25.83-157.27,2.3-13.95,7.73-15.57,11.62-15.57,4.83,0,10.79,2.79,17.1,5.75,7.34,3.44,14.94,7,22.22,7,2.33,0,4.52-.38,6.54-1.12l.82-.3-.2-.86c-2.89-12.62-.97-46.46,9.25-59.58,2.68-3.43,5.75-5.21,9.15-5.28h.08c4.74,0,11.53,9.09,16.99,16.4,2.82,3.78,5.49,7.35,7.73,9.55,8.75,8.59,21.49,20.01,31.05,20.01,1.38,0,2.67-.25,3.82-.73l.2-.08.15-.16c9.97-10.67,19.48-21.64,28.68-32.25,23.71-27.34,46.11-53.17,76.05-74.73,25.87-18.63,54.35-33.38,84.65-43.83,28.9-9.97,59.55-16.07,91.11-18.13M1920,495.66c-63.12,3.95-124.27,23.99-177.35,62.22-42.01,30.25-69.94,69.71-104.88,107.11-1.06.45-2.21.65-3.43.65-9.93,0-24.19-13.68-30.35-19.72-6.73-6.6-17.66-26.24-25.42-26.24-.03,0-.06,0-.1,0-19.52.41-22.84,50.88-19.36,66.08-2,.74-4.07,1.06-6.19,1.06-13.38,0-28.61-12.75-39.32-12.75-5.99,0-10.56,3.98-12.61,16.4-15.55,94.25,47.17,228.4,112.29,294.56,32.56,33.08,78.84,65.71,131.56,94.97h175.16V495.66h0Z"/>
            <path class="cls-2" d="M1584.07,1019.83c11.92,22.53,28.95,41.42,53.38,59.17h-114.41c18.26-22.36,38.78-42.26,61.03-59.17M1584.41,1018.32c-23.66,17.86-44.89,38.67-63.47,61.68h119.61c-23.11-16.38-42.7-35.78-56.15-61.68h0Z"/>
          </g>
        </g>
      </g>
    </g>
  </g>
</svg>