<?xml version="1.0" encoding="UTF-8"?>
<svg id="Layer_2" data-name="Layer 2" xmlns="http://www.w3.org/2000/svg" viewBox="0 0 207.68 154.72">
  <g id="icons">
    <g id="cloud_unsaved" data-name="cloud unsaved">
      <path d="M71.28.21c26.66-1.96,53.23,10.19,68.48,32.05,26.55-2.91,52.62,12.31,62.96,36.79,16.16,38.25-9.02,80.36-49.81,85.05-26.91-1.21-55.57,1.84-82.28.06-27.47-1.83-53.41-21.02-64.22-46.04C-14.63,59.43,18.45,4.09,71.28.21ZM72.28,16.17C33.83,19.18,7.72,57.06,18.35,94.19c6.79,23.73,28.85,42.35,53.76,44.02,25.58,1.72,53.09-1.32,78.87-.03,58.51-6.84,50.82-94.04-7.97-90.25-2.18.14-4.82,1.08-6.99,1.03-5.75-.12-8.07-6.39-11.25-10.25-12.75-15.52-32.26-24.14-52.49-22.56Z"/>
      <path d="M123.15,66c7.08-1.3,11.71,4.97,8.9,11.38l-31.69,31.67c-2.66,1.28-6,1.1-8.48-.56-1.9-1.27-15.42-15.04-16.2-16.72-3.1-6.67,2.12-12.79,9.32-11.3,3.25.67,10.81,10.35,11.59,10.35l22.7-22.69c1.12-.91,2.41-1.86,3.86-2.12Z"/>
    </g>
  </g>
</svg>