<?xml version="1.0" encoding="UTF-8" standalone="no"?>
<!DOCTYPE svg PUBLIC "-//W3C//DTD SVG 1.1//EN"
 "http://www.w3.org/Graphics/SVG/1.1/DTD/svg11.dtd">
<!-- Generated by graphviz version 2.47.0 (20210316.0004)
 -->
<!-- Title: dependencies Pages: 1 -->
<svg width="504pt" height="287pt"
 viewBox="0.00 0.00 504.00 287.00" xmlns="http://www.w3.org/2000/svg" xmlns:xlink="http://www.w3.org/1999/xlink">
<g id="graph0" class="graph" transform="scale(1 1) rotate(0) translate(4 283)">
<title>dependencies</title>
<polygon fill="white" stroke="transparent" points="-4,4 -4,-283 500,-283 500,4 -4,4"/>
<text text-anchor="start" x="227.01" y="-42.4" font-family="Times-12" font-weight="bold" font-size="14.00">Legend</text>
<polygon fill="#ffffb3" stroke="transparent" points="14,-10 14,-30 34,-30 34,-10 14,-10"/>
<text text-anchor="start" x="37.63" y="-15.4" font-family="Times-12" font-size="14.00"> &#160;Declarations</text>
<polygon fill="#8dd3c7" stroke="transparent" points="127,-10 127,-30 147,-30 147,-10 127,-10"/>
<text text-anchor="start" x="150.73" y="-15.4" font-family="Times-12" font-size="14.00"> &#160;Module</text>
<polygon fill="#80b1d3" stroke="transparent" points="213,-10 213,-30 233,-30 233,-10 213,-10"/>
<text text-anchor="start" x="236.78" y="-15.4" font-family="Times-12" font-size="14.00"> &#160;Bootstrap</text>
<polygon fill="#fdb462" stroke="transparent" points="310,-10 310,-30 330,-30 330,-10 310,-10"/>
<text text-anchor="start" x="333.67" y="-15.4" font-family="Times-12" font-size="14.00"> &#160;Providers</text>
<polygon fill="#fb8072" stroke="transparent" points="406,-10 406,-30 426,-30 426,-10 406,-10"/>
<text text-anchor="start" x="429.73" y="-15.4" font-family="Times-12" font-size="14.00"> &#160;Exports</text>
<g id="clust1" class="cluster">
<title>cluster_AppModule</title>
<polygon fill="none" stroke="black" stroke-dasharray="1,5" points="109,-146 109,-271 371,-271 371,-146 109,-146"/>
</g>
<g id="clust3" class="cluster">
<title>cluster_AppModule_imports</title>
<polygon fill="none" stroke="black" points="255,-154 255,-206 363,-206 363,-154 255,-154"/>
</g>
<g id="clust6" class="cluster">
<title>cluster_AppModule_providers</title>
<polygon fill="none" stroke="black" points="117,-154 117,-206 247,-206 247,-154 117,-154"/>
</g>
<g id="clust13" class="cluster">
<title>cluster_UsersModule</title>
<polygon fill="none" stroke="black" stroke-dasharray="1,5" points="231,-70 231,-138 387,-138 387,-70 231,-70"/>
</g>
<g id="clust18" class="cluster">
<title>cluster_UsersModule_providers</title>
<polygon fill="none" stroke="black" points="239,-78 239,-130 379,-130 379,-78 239,-78"/>
</g>
<!-- UsersModule -->
<g id="node1" class="node">
<title>UsersModule</title>
<polygon fill="#8dd3c7" stroke="black" points="354.92,-198 351.92,-202 330.92,-202 327.92,-198 263.08,-198 263.08,-162 354.92,-162 354.92,-198"/>
<text text-anchor="middle" x="309" y="-175.8" font-family="Times,serif" font-size="14.00">UsersModule</text>
</g>
<!-- AppModule -->
<g id="node2" class="node">
<title>AppModule</title>
<polygon fill="#8dd3c7" stroke="black" points="286.66,-263 283.66,-267 262.66,-267 259.66,-263 203.34,-263 203.34,-227 286.66,-227 286.66,-263"/>
<text text-anchor="middle" x="245" y="-240.8" font-family="Times,serif" font-size="14.00">AppModule</text>
</g>
<!-- UsersModule&#45;&gt;AppModule -->
<g id="edge1" class="edge">
<title>UsersModule&#45;&gt;AppModule</title>
<path fill="none" stroke="black" d="M275.06,-198.11C275.06,-198.11 275.06,-216.99 275.06,-216.99"/>
<polygon fill="black" stroke="black" points="271.56,-216.99 275.06,-226.99 278.56,-216.99 271.56,-216.99"/>
</g>
<!-- AppService -->
<g id="node3" class="node">
<title>AppService</title>
<ellipse fill="#fdb462" stroke="black" cx="182" cy="-180" rx="56.74" ry="18"/>
<text text-anchor="middle" x="182" y="-175.8" font-family="Times,serif" font-size="14.00">AppService</text>
</g>
<!-- AppService&#45;&gt;AppModule -->
<g id="edge2" class="edge">
<title>AppService&#45;&gt;AppModule</title>
<path fill="none" stroke="black" d="M220.9,-193.15C220.9,-193.15 220.9,-216.69 220.9,-216.69"/>
<polygon fill="black" stroke="black" points="217.4,-216.69 220.9,-226.69 224.4,-216.69 217.4,-216.69"/>
</g>
<!-- UsersService -->
<g id="node4" class="node">
<title>UsersService</title>
<ellipse fill="#fdb462" stroke="black" cx="309" cy="-104" rx="61.95" ry="18"/>
<text text-anchor="middle" x="309" y="-99.8" font-family="Times,serif" font-size="14.00">UsersService</text>
</g>
<!-- UsersService&#45;&gt;UsersModule -->
<g id="edge3" class="edge">
<title>UsersService&#45;&gt;UsersModule</title>
<path fill="none" stroke="black" d="M309,-122.01C309,-122.01 309,-151.85 309,-151.85"/>
<polygon fill="black" stroke="black" points="305.5,-151.85 309,-161.85 312.5,-151.85 305.5,-151.85"/>
</g>
</g>
</svg>
