<?xml version="1.0" encoding="UTF-8"?>
<svg id="Layer_2" data-name="Layer 2" xmlns="http://www.w3.org/2000/svg" viewBox="0 0 178.85 318.56">
  <g id="Layer_1-2" data-name="Layer 1">
    <path d="M114.48,58.53c8.77-8.07,19.5-16.37,31.47-18.82,26.37-5.39,38.03,20.01,16.09,35.6-9.98,7.09-22.51,9.47-34.47,10.81l8.14,1.75c13.55,3.35,31.11,11.2,36.45,25.13,4.09,10.67-.64,21.54-12.21,23.75-16.88,3.22-34.69-11.67-45.47-23.04,1.82,3.8,3.82,7.52,5.42,11.43,4.21,10.29,7.3,22.33,5.35,33.48-3.73,21.31-24.8,25.51-35.34,6.27-3.11-5.67-4.23-11.23-5.33-17.51-.06-.35-.05-1.35-.47-1.34.16,8.67-.34,17.4.28,26.05,1.21,16.98,4.37,33.43,9.46,49.6,2.67,8.48,5.49,16.98,9.48,24.93.65.14.45-.09.62-.36.71-1.11,1.32-2.63,2.04-3.8,5.92-9.52,14.51-18.32,25.75-21.06,10.54-2.57,22.09-.49,32.04,3.49-5.53,12.22-15.67,24.45-29.25,27.72-6.86,1.65-14.87,1.24-21.74-.28-2.39-.53-4.65-1.56-6.84-2.08-.43-.1-.46-.01-.4.4,2.93,4.34,5.59,8.86,8.57,13.16,11.68,16.82,27.85,30.9,47.7,37,5.41,1.66,11.43,2.47,17,3.48-.47.52.1,2.07,0,2.22-.25.36-7.55,2.07-8.53,2.2-9.89,1.34-20.7-2.96-29.91-6.09-3.63,12.89-16.03,18.68-28.68,14.74,1.62-7.88,7.23-15.62,15.41-17.57l6.3-1.08c-2.05-.82-4.11-2.14-5.94-3.4-8.95-6.15-14.51-12.16-21.08-20.71-11.94-15.53-20.51-33.6-25.64-52.51-3.2.99-6.4,2.07-9.69,2.71-20.18,3.92-34.88-3.2-45.59-20.28-.85-1.35-3.59-5.83-3.74-7.14-.05-.46,1.21-.88,1.63-1.05,9.08-3.7,21.48-5.1,30.98-2.57,10.05,2.67,17.84,10.32,23.62,18.59-3.24-12.04-4.77-24.47-5.57-36.92-.69-10.75-.82-21.5.83-32.18-4.15,5.22-8.38,10.53-13.96,14.32-20.96,14.23-38.17-2.04-28.07-24.73,5.82-13.08,17.88-22.94,29.22-31.1-12.93,4.26-27.27,8.03-40.96,5.44-26.34-5-25.38-30.99-.49-38.11,13.48-3.86,28.44-1.51,41.73,2.02-2.8-1.92-5.77-3.57-8.56-5.51-8.93-6.2-18.96-15.33-22.65-25.83-5.86-16.67,5.96-29.37,23-24.11,11.83,3.65,21.51,15.8,27.21,26.29l4.96,10.22-1.12-10.99c-.48-12.91,2.24-31.4,14.41-38.55,11.62-6.83,23.29.76,26.48,12.7,2.99,11.22-.27,23.32-4.98,33.59-1.51,3.29-3.41,6.39-4.97,9.65ZM88.59,62.12c4.17-.23,8.33,1.09,11.76,3.42,1.57,1.06,2.68,2.51,4.22,3.57,10-13.51,20.31-31.08,18.78-48.58-1.77-20.16-22.73-25.34-32.61-7.05-5.86,10.85-5.72,26.24-4.09,38.18.48,3.51,1.28,6.99,1.94,10.46ZM86.05,62.15c-5.41-16.54-18.12-41.79-37.04-45.29-14.51-2.68-22.22,8.72-17.57,22.03,5.58,15.96,24.3,27.32,38.6,34.62,3.66-5.83,9.02-10.33,16.02-11.36ZM110.29,84.44c17.83.34,44.3-1.52,56.55-16.31,8.28-9.99,5-23.46-8.07-26.46-16.16-3.71-34.12,9.51-44.87,20.33l-7.95,8.78c2.43,4.14,4.53,8.72,4.33,13.66ZM87.11,64.18c-14.01,1.26-21.07,17.2-16.06,29.55,5.53,13.65,22.59,17.11,32.27,5.6,11.23-13.35,2.29-36.82-16.21-35.15ZM69.06,75.8c-14.91-4.72-31.15-8.85-46.81-5.44-10.19,2.22-23.89,10.54-19.36,22.99,4.82,13.23,25.33,13.43,36.73,11.66,10.35-1.61,20.34-5.19,29.87-9.42-2.78-6.23-2.8-13.41-.43-19.79ZM110.29,86.67c-.06,3.28-1,6.51-2.4,9.44-.55,1.15-2.3,3.09-1.85,4.13s3.59,4.63,4.54,5.78c9.31,11.34,24.18,25.45,38.99,28.44,20.19,4.07,28.76-13.39,15.88-28.42-8.58-10.01-24.62-15.38-37.28-17.61-5.87-1.04-11.92-1.72-17.88-1.76ZM86.33,108.12c-4.93-.35-9.85-3.18-13.09-6.83-.52-.59-2.15-3.19-2.64-3.2-14.69,8.52-32.68,21.7-38.61,38.31-7.28,20.42,9.07,31.32,26.28,19.32,11.3-7.88,19.2-22.66,24.08-35.26.54-1.39,4.44-11.88,3.97-12.33ZM88.85,108.41c-3.27,17.6-6.17,41.97,4.27,57.7,10.71,16.14,27.59,9.06,30.19-8.62,2.9-19.76-8.59-40.11-18.87-56.06-4.17,4.15-9.54,7.06-15.59,6.98ZM173.82,305.39c-8.32-.99-16.6-3.69-24.24-7.11-23.17-10.39-45.06-40.03-53.57-63.45-10.77-29.63-15.68-59.8-13.85-91.46.41-7.04,1.9-14.56,2.5-21.74.03-.3.2-1.04-.27-.97-1.66,5.14-4.11,9.97-6.55,14.77-.97,1.92-1.9,2.59-2.3,4.95-3.49,20.62-.96,49.38,3.96,69.72,8.22,33.96,26.47,73.8,59.67,89.39,9.08,4.27,24.39,9.35,34.24,6.46.41-.12.49.15.41-.56ZM79.92,220.12c-5.43-10.8-14.46-21.41-26.63-24.49-9.55-2.42-19.68-.74-28.82,2.49,4.63,9.87,13.11,19.84,23.61,23.61s21.71,1.89,31.83-1.6ZM161,225.98c-10.06-3.5-21.57-5.31-31.83-1.6-10.56,3.82-19.03,13.64-23.61,23.61,9.51,3.38,20,5.04,29.87,2.15,11.67-3.42,20.24-13.69,25.57-24.16ZM138.71,301.77c-11.34-2.86-21.38,3.08-24.52,14.2,5.27.54,10.68.72,15.41-2s7.18-7.54,9.11-12.2Z"/>
  </g>
</svg>