<?xml version="1.0" encoding="UTF-8"?>
<svg id="Layer_2" data-name="Layer 2" xmlns="http://www.w3.org/2000/svg" viewBox="0 0 122.68 140.07">
  <g id="Layer_1-2" data-name="Layer 1">
    <g>
      <path d="M30.86,4.27c-.09-.3-1.01-.7-1.15-1.56-.57-3.62,5.59-3.67,4.77.16-.34,1.57-.48,2.3-.34,4.09.05.63.11,1.31.18,1.94.04.39.24.29.5.47l.13-1.4c.55-1.32,1.44-.26,1.96-.37.19-.04,2.45-1.89,3.15-2.24,8.05-4.05,11.35,2.57,4.11,7.05l-.38,5.65.48-1.54c.49-1.48,2.44-1.97,2.9-.2.76,2.93-1.28,5.96-1.06,8.88l1.06-3.28c.43-.99,1.64-2.46,2.69-1.34,1.51,1.61-1.08,6.17-1.53,8.09-.17.71-.64,2.1.1,2.51-.33-1.46.81-5.85,2.85-4.87s-.26,6.69-.53,8.35c.3.01.22-.36.5-.56,1.33-.92,3.67-.42,3.75,1.43.09,2.06-2.68,3.75-3.1,5.69.56-.45.76-1.18,1.25-1.74,1.83-2.06,4.65-1.23,3.52,1.59-.68,1.7-2.82,2.66-3.23,4.58l1.37-1.81c.94-.88,2.69-1.32,3.31.13.85,1.98-2.59,3.25-2.94,4.97.7-.74,1.02-1.4,2.21-1.36,2.15.08,3.12,1.69,1.75,3.49-.67.88-2.49,1.77-2.03,2.89.52-.31.6-.97.96-1.45,2.27-2.94,5.11-.93,2.61,2.22-.38.47-1.67,1.46-1.83,1.83-.04.08-.05.32.09.29.73-1.08,2.75-2.4,3.85-1.15,1.27,1.44-1.51,2.52-1.83,3.66.63,0,.65-.93,1.29-1.12,1.15-.34,2.77.27,2.74,1.6-.02.98-1.8,1.82-.29,2,2.05-3.1,3.5,1.55,5.63,1.95,7.28.56,15.16-1.99,21.64,2.28,1.04.68,2.52,2.36,3.39,2.79s2.25.56,3.18.87c2.99,1.01,5.48,2.1,8.09,3.87,1.1.74,3.47,3.03,4.31,3.41,2.17.95,3.92.7,5.96,2.72,1.39,1.38,3.93,5.68.98,6.57-4.44,1.33-8.99-1.75-9.23-6.38-.02-.46.44-1.1-.04-1.54-2.78-2.26-6.23-3.24-9.64-4.15.3.96.83,1.84,1.16,2.79,1.66,4.84,1.6,15.88,1.36,21.23-.11,2.5-.66,5.03-.78,7.52-.23,5.13,1.72,8.64,2.76,13.44.95,4.43,1.24,8.94,1.1,13.47h18.13l-.19.49c-.15.09-.25-.11-.29-.11h-17.65c-.25,2.18-.71,5.41-3.39,5.77-1.16.16-4.13.07-5.21-.35-2.23-.88-.94-3.54-.93-5.02,0-.23-.02-.25-.21-.4h-6.46c-.32,1.72-1.27,4.26-3.23,4.58-.98.16-5.32-.03-5.93-.73-.82-.94-.26-2.75-.29-3.86h-8.87c.21,2.45-.17,4.16-2.26,5.56-1.91,1.29-6.94,2.39-8.44.22-.19-.27-.69-1.38-.69-1.63v-4.15h-4.05c-1.09,3.73-2.92,4.64-6.66,4.45-3.47-.18-4.51-.65-4.14-4.45H0v-.58h43.31c.1,0,.42.3.67.19,1.18-7.22,3.94-14.91,3.47-22.28-.41-6.43-2.97-12.59-4.15-18.81-.93-4.93.39-9.45,2.21-13.99-2.81-6.93-3.34-14.76-4.68-22.13-1.52-8.39-3.05-18.34-5.91-26.31-.13-.35-.45-1.48-.85-1.42-3.51,1.99-7.07,4.03-10.79,5.61-2.94,1.25-6.57,2.79-9.82,2.24-.78-.13-1.28-.76-1.82-.88-1.34-.3-2.17.25-3.44-1-3.01-2.96-.79-9.76,2.87-11.62,1.1-.56,6.84-1.73,6.87-2.94.02-.89-.61-1.43.29-2.44.83-.92,1.89-.81,3-.66l2.81-3.2c.23-.45-.61-.88-.87-1.26-2.54-3.56-1.45-7.25,3.42-5.74,1.65.51,3,1.67,4.29,2.76-.21-1.14.28-3.36,0-4.34ZM33.12,3.15c1.62-1.31-1.25-3.06-2.24-1.56-.83,1.26,1.1,2.47,2.24,1.56ZM33.37,4.37l-1.73.19-.2,5.98c-1.22-.67-2.91.24-4,.92-4.63,2.93-6.82,9-12.4,10.46l1.72,1.08c2.91,2.58,4.01,6.7,3.3,10.5,4.88-2.24,10.18-4.5,14.72-7.37.65-.41,1.5-.92,2.06-1.41,1.12-.97,2.01-2.73,3.52-3.23,1.4-.46,2.34.24,3.61.62l-3.08-7.63-2.4,1.08-.28-.66c2.54-1.63,5.7-2.87,7.69-5.23,1.18-1.4,2.44-3.64-.09-4.36-3.99-1.13-8.33,2.68-10.62,5.59-.47-.52-.8-.52-1.45-.37l-.39-6.18ZM29.9,9c-.79-.38-1.32-1-2.12-1.45-5.36-3.05-6.49,1.24-2.8,4.53,1.74-1.18-1.15-1.52-.6-3.28.66-2.11,3.63.61,4.31.74.19.04,1.58-.11,1.21-.54ZM25.08,8.8c-.13.92.32,1.64,1.14,2.04l1.75-.98c-.85-.64-1.78-1.21-2.89-1.06ZM43.4,13.05l-1.55.88.98,2.2c.28-.03.33-.84.36-1.08.09-.66.03-1.35.22-2ZM45.52,22.89c.1-1.77,1.43-4.48.88-6.18-.37-1.15-1.09-.42-1.41.34-.84,1.93-.52,3.62.25,5.46.08.18.02.44.28.38ZM20.45,16.72c-1.25-.13-2.17.63-1.93,1.93.12.14.61-.21.68-.39.31-.75-.87-.88.96-1.16.33-.05.33.1.29-.38ZM47.45,28.68c.35-2.03,2.18-4.83,1.94-6.86s-1.45.61-1.7,1.21c-.41.97-.53,2.43-1.21,3.06l.97,2.59ZM41.04,21.96c-1.14.17-2.07,1.83-2.66,2.76-1.04,1.65-2.33,3.31-1.12,5.18.58.9,3.74,3.06,4.78,3.51.44.19.74.37,1.25.28,1-.17,2.45-3.67,3.12-4.53l-2.15-6.08c-1-.37-2.13-1.28-3.22-1.12ZM13.31,34.46c.96.52,5.53-.22,5.95-.9.36-.57.28-3.56.17-4.36-.33-2.43-2.25-5.66-4.64-6.55-2.54-.94-5.39,1.54-6.26,3.84-1.44,3.82-.5,8.55,4.58,6.7.78-.28,1.96-1.48,2.3-.22l-2.1,1.47ZM98.38,137.69h2.8c.07,0,.94-.54,1.07-.67.83-.89,1-2.8,1.15-3.96-2.23.66-4.54.44-6.75-.2-.26-.26.02-.36.29-.39.73-.07,1.74.33,2.51.39,1.33.1,2.73.04,3.96-.5.14-4.75-.23-9.47-1.34-14.09s-3.33-8.71-2.34-13.38c-2.31,2.51-7.08-2.35-7.15-4.53-.05-1.55,2.16-5.29,3.77-5.51,1.29-.18,2.68.22,3.96.2v-.97c-1.27.01-2.99.05-4.12-.61-1.61-.93-3.2-5.56-3-7.38.33-2.87,4.14-4.97,6.73-3.59,0-.66.03-1.31-.05-1.97s-.88-3.77-1.21-4.2c-.15-.19-.28-.32-.48-.11-1.59,1.24-3.47,2.89-5.22,3.85-2.57,1.41-3.05.39-5.33-.42-2.66-.95-4.21-.79-4.66-4.22-.3-2.34-.61-5.81.59-7.85l2.09-2.83c-6.01-.73-12.81,1.32-18.62-.57-1.49-.49-2.88-1.31-4.24-2.08-1.96,1.65-3.8,5.83-6.75,5.76-2.45-.06-2.28-1.94-3.38-3.39s-3.93-2.19-4.34-3.76c-.87-3.29,4.36-7.48,6.18-9.85l-.49-1.54c-.46-.1-.31.08-.43.25-.68.99-1.02,2.46-2.54,2.25-.49-.07-4.63-3.22-5.14-3.75-1.76-1.84-.82-3.14-1.19-5.17-.31-1.71-1.76-1.69-.76-4.13.86-2.11,2.53-3.3,4.86-2.57l-1.93-5.98c-.44-.11-.32.08-.44.24-.81,1.03-1.74,3.85-3.15,3.94s-6.13-3.21-6.79-4.51c-.73-1.44-.4-2.34.16-3.73l-1.49,1.05,2.11,6.44c2.09.29,4.93,1.51,5.32,3.84.17,1.04-.05,2.19.05,3.23.18,1.83,1.1,2.17.08,4.13-.33.64-2.09,2.72-2.15,3.03-.09.44.45,1.44.34,2,.94-.97,1.73-1.18,3.09-.87,1.06.24,5.3,2.87,5.87,3.77.39.61.36.82.15,1.48-.33,1.05-2.82,5.85-3.52,6.71-1.05,1.3-1.91,1.21-3.47.87l.39,2.12c2.66-1.41,8.8,1.41,9.74,4.05.54,1.54-.02,2.2-.09,3.57-.26,5.31.17,4.7-2.67,9.1-1.7,2.64-1.74,4.48-5.82,3.15-.32,2.33-.69,4.25-.33,6.6,1.03,6.69,4,13.07,4.39,20.11s-1.9,13.63-3.1,20.17c1.77.18,3.72,1.25,5.5,1.17.8-.03,2.7-.55,2.81-1.45.56-4.85-.84-10.87-.79-15.82v-7.54c.08-2.01.83-5.93.54-7.66-.08-.46-.48-1.37-.82-1.69-.87-.51-6.33-3.18-6.43-3.78l.16-.65,7.13,3.67c-3.64-7.34,4.19-14.33,11.43-11.34,4.18,1.73,5.81,6.42,4.19,10.56l4.82.19c-.75-2.64-1.55-4.76-.91-7.56.5-2.17,3.77-8.9,6.06-9.37.58-.12,1.45-.08,2.05-.02,3.59.32,8.3,1.21,10.54,4.32,1.35,1.88.44,3.19.57,5.22.06.91.44,1.77.41,2.7-.06,1.45-1.14,2.72-2.26,3.53-.23.17-1.27.98-1.41.32-.08-.37,2.64-1.77,2.88-3.29.22-1.39-.35-2.43-.39-3.65-.05-1.73.81-2.88-.47-4.54-.61-.8-2.83-2.45-3.77-2.79-.89-.32-6.33-1.29-7.22-1.27-2.29.07-4.55,4.58-5.34,6.44-1.26,2.94-1.51,4.7-.64,7.85.17.6.54,2.2,1.16,2.32,4.44.28,8.89.44,13.13-1.15l.45.31c2.25,3.92,3.62,8.68,6.12,12.41.59.87.92.69,1.3,1.98,1.49,5.01,1.55,12.62.87,17.79-.29,2.17-1.62,6.49-1.51,8.3.07,1.16,1.1,1.54,2.11,1.47-.29-1.39-.19-2.66,0-4.05h.58c-.15,1.41-.16,2.64,0,4.05ZM50.92,26.94c-1.05-.74-2.06,4.84-2.07,5.36-.02.92.56,1.68.72,2.55l.87-2.51c.45-1.76,1.02-3.6.48-5.4ZM40.32,47.01c.63-.67,2.23-2.54,2.31-3.39.07-.73-.49-1.86-.57-2.68-.15-1.56.35-3.02-.54-4.48-.76-1.24-2.72-1.9-4.09-2.18l2.89,12.73ZM51.31,39.87c.69-.86,4.27-4.69,1.98-5.36-1.77-.52-2.71,1.8-2.37,3.24l-.38-.11.77,2.23ZM49.14,37.02c-2.07-.88-3.39-.41-4.43,1.56-1.28,2.45.2,2.34.57,4.13.31,1.53-.4,2.72.58,4.25.5.79,3.95,3.63,4.8,4.07,1.48.76,2.43-1.63,2.77-2.75l-4.29-11.26ZM55.89,39.34c-.77-.79-3.44,1.66-3.72,2.28-.21.48.66,2.16.97,2.69.26-1.14,3.85-3.85,2.75-4.97ZM54.78,47.97c.23-1.3,2.51-2.05,2.53-3.37.03-1.96-3.13.8-3.4,1.45-.12.28.32,1.35.47,1.65.1.2-.1.36.4.27ZM58.78,48.99c-.59-.63-1.86-.54-2.55-.05-1.72,1.22-.03,1.99.1,3.47.28.07.32-.05.49-.19.35-.27,2.17-2.43,2.16-2.78-.03-.17-.08-.33-.2-.46ZM45.65,61.02c.41-.37,1.02-1.51,1.33-2.05.39-.68,2.63-5.08,2.57-5.46-.12-.44-.43-.71-.76-.99-.78-.67-4.41-2.88-5.31-2.99-1.04-.13-1.95.25-2.38,1.22l1.71,10.2c.87.58,2.01.81,2.83.06ZM62.11,61.48c-3.52-2.13-5.68-6.11-7.14-9.84-1.73,1.63-5.93,5.71-6.06,8.08-.12,2.05,2.69,2.56,3.88,3.76,1.52,1.54,1.14,4.43,4.28,3.47,1.72-.53,3.85-4.09,5.05-5.46ZM60.75,52.04c-.51-.85-2.75,2.02-3.17,2.3l.78,1.55c.74-1.34,2.64-2.07,2.39-3.84ZM62.11,56.08c-.49-.29-2.9.95-2.89,1.25l1.06,1.25c.33-.41,2.35-1.99,1.83-2.5ZM62.83,59c-.43.08-.81.54-1.1.84,2.12,2.75,3.3-1.24,1.1-.84ZM67.71,63.21c-.55-.86-1.36-2.29-2.31-1.06,0,.24,1.93.99,2.31,1.06ZM44.96,83.27c3.38,1.25,3.46-.78,4.85-2.94,1.02-1.58,2.23-2.71,2.45-4.69.13-1.17-.04-2.45.03-3.64.15-2.62,1.21-3.66-1.48-5.66-1.74-1.29-5.1-2.64-7.18-1.75.56,4.39,1.02,9.03,3.22,12.97-.41.72-2.22,5.31-1.88,5.71ZM86.7,65.02c-1.22,1.14-3,3.07-3.28,4.74-.19,1.12.2,5.87.59,6.95.66,1.79,2.42,1.83,4,2.37,1.41.48,2.04,1.3,3.81.83.61-.16,4.83-3.19,5.49-3.77.22-.2.84-.67.79-.97-2.32-4.63-6.14-8.99-11.4-10.14ZM109.56,77.49c-.07-.51-.79-.92-1.18-1.23-3.48-2.84-7.55-4.89-11.94-5.9l1.75,2.59c2.66.71,5.43,1.26,7.91,2.51.95.48,1.8,1.23,2.68,1.75.25.15.38.39.78.28ZM117.66,82.89c-1.11-2.77-3.93-4.29-6.75-4.82.99,2.85,3.64,5.45,6.56,6.17.02-2.13-3.82-2.52-4.47-3.92-.5-1.07.93.17,1.21.33,1.23.7,2.45,1.16,3.45,2.23ZM117.09,85.02c-2.07-.28-3.81-1.92-5.2-3.38l-1.93-2.98c-.89,3.91,2.6,7.2,6.47,6.76.29-.03.59-.04.67-.39ZM100.31,93.51l-.23-9.9c-1.12-1.31-2.47-1.19-3.88-.49-3.7,1.85-2.47,5.26-.93,8.2,1.25,2.39,2.5,2.18,5.05,2.19ZM68.83,132.83c-.89-9.35-3.26-18.75-2.68-28.24.23-3.75,1.09-5.03,2.4-8.21,2.51-6.06-1.89-11.43-8.26-10.76-4.46.47-7.94,5.02-6.79,9.44s3.12,8.88,4.26,13.49c1.98,8.04,2.23,16.11,2.02,24.37,2.83,1.57,6.21,1.43,9.04-.09ZM100.31,95.63c-1.14.1-3.22-.56-4.24-.09-.72.33-2.46,2.85-2.72,3.65-.4,1.26-.14,1.74.55,2.76,1.16,1.73,4.88,5.14,5.89,1.56.3-1.07.46-3.86.51-5.08.04-.93-.03-1.87,0-2.8ZM88.25,96.79c-.72.79-4.04,1.96-4.15,2.99s2.29,4.61,3.4,4.72c.54.06,1.87-.77,2.1-1.16.19-.32.32-3,.2-3.48-.08-.32-1.38-3.07-1.55-3.08ZM79.81,97.99l-10.24-.79c-.3.07-.63.69-.78.96-2.57,4.53-1.3,15.83-.67,21.08.54,4.48,1.41,8.94,1.91,13.43l9.08-.1c1.03-4.15,2.4-8.21,3.17-12.42.72-3.96,1.61-8.76.66-12.63-.8-3.22-2-6.4-3.12-9.52ZM82.17,136.53h2.8c1.25,0,2.46-3.52,2.41-4.63-2.12.89-4.49.64-6.56-.29l.31-.49c2.11.79,4.42,1.14,6.45-.09,1.46-8.84,1.63-17.94,2.12-26.92-2.52,2.34-4.54-.3-5.63-2.57-1.34-2.81.04-2.73,1.96-4.18l-5.21.58c.77,2.14,1.68,4.24,2.37,6.41.47,1.47,1.49,4.42,1.51,5.84.09,7.41-2.82,14.88-4.32,21.93-.33,1.55-1.4,4.71,1.22,4.21l.77-3.86c1.09.19.26,1.07.09,1.92-.06.31-.38,2.04-.28,2.13ZM58.64,132.67c.32-7.8-.05-15.69-1.87-23.31-.56-2.37-1.31-4.69-2.09-6.98-.13,0-.27.87-.29,1.07-.76,9.29.91,18.3.58,27.4-.02.61-.3,1.2-.2,1.82h3.86ZM88.54,132.67h6.46c.41-.58.47-1.54.61-2.28,1.01-5.04,1.07-10.26.42-15.35-.16-1.22-.48-3.99-.98-5-.36-.73-1.4-1.8-1.92-2.71-.86-1.52-1.45-3.19-2.19-4.76-.59,10.05-.77,20.16-2.41,30.1ZM53.62,131.71c-2.68,1.73-5.52.08-8.29-.39-.13,1.49-.72,3.01-.21,4.5l1.56.51c-.32-1.28-.23-2.41.11-3.66.05-.2.01-.75.38-.58.6.29-.09,2.17-.07,2.77,0,.24.21,1.29.35,1.39,3.5,1,5.97-1.01,6.18-4.55ZM59.8,133.64v3.57c0,1.22,1.84,1.94,2.89,1.64-.45-.54-.93-4.24-.29-4.24.75.22.23.59.29,1.44.07.92.41,1.89.6,2.79,2.8.13,6.1-1.96,5.78-5.09-.07-.65-.86.09-1.31.24-2.7.92-5.36.9-7.96-.34Z"/>
      <path d="M68.61,66.15c.62-.14,1.11-.05,1.68.17,1.07.43,5.3,3.22,6.19,4.04,1.35,1.25,1.69,2.31,1.2,4.09-.51,1.88-4.55,7.86-5.93,9.51-1.05,1.26-1.87,1.77-3.57,1.65-1.27-.09-4.55-1.2-5.38-2.14-.91-1.02-.81-2.22-1.22-3.42-.68-1.97-2.01-4.2-1.19-6.3.66-1.7,3.76-3.56,5.19-4.84.82-.74,1.98-2.52,3.03-2.76ZM69.01,66.72c-1.02.17-3.1,2.73-4,3.54-1.47,1.31-4.21,2.58-4.26,4.82-.03,1.37.96,3.24,1.42,4.58.84,2.49.15,3.3,3.04,4.48,1.86.76,4.08,1.53,5.67-.11,1.24-1.28,5.57-7.9,6.1-9.53.56-1.74.24-2.58-1.08-3.77-.9-.81-4.63-3.29-5.71-3.74-.42-.18-.68-.36-1.18-.28Z"/>
      <path d="M60.18,115.5v-.58c.6.57,3.8-.42,4.05-.19.18.41-.81.77-1.06.77h-2.99Z"/>
      <polygon points="63.46 111.84 63.35 112.43 59.99 112.99 59.99 112.41 63.46 111.84"/>
      <path d="M27.22,22.68s.18-.31.08-.55c-.28-.67-.98-.88-1.07-2.04-.38-5.23,7.86-4.94,6.71.54-.03.13-.77,1.79-.83,1.87-.65.82-4.4.91-4.89.18ZM30.86,21.92c.52.46,2.57-2.63.48-4.24-2.81-2.18-6.05,1.81-3.38,4.05l-.57-1.54c1.72,1.68,3.51-.81,1.35-1.64,2.2-1.06,4.22,1.68,2.12,3.37Z"/>
      <path d="M45.09,6.92c.17.18.26.58.25.82-.06,2.22-6.03,5.9-8.3,5.3-.05-2.48,4.76-6.78,7.02-6.56.2.02.91.3,1.03.43ZM44.54,7.28c-1.61-.96-6.52,3.39-6.73,5.19,1.61-.28,3.32-1.04,4.61-2.04.46-.35,2.94-2.65,2.12-3.15Z"/>
      <path d="M14.8,25.63c2.09-.62,1.66,2.79-.13,1.98-.85-.38-.75-1.72.13-1.98Z"/>
      <path d="M9.69,27.09c-.68-.68.05-2.27,1.11-1.79,1.47.67-.07,2.83-1.11,1.79Z"/>
    </g>
  </g>
</svg>