<?xml version="1.0" encoding="UTF-8"?>
<svg id="logo_vecto" data-name="logo vecto" xmlns="http://www.w3.org/2000/svg" viewBox="0 0 1001.08 175.03">
  <defs>
    <style>
      .cls-1 {
        fill: #f72485;
      }

      .cls-2 {
        fill: #fff;
      }
    </style>
  </defs>
  <path class="cls-1" d="M32.76.43C14.67.43,0,15.1,0,33.18v109.19c0,18.08,14.67,32.76,32.76,32.76h109.19c6.04,0,10.92-4.88,10.92-10.92s-4.88-10.92-10.92-10.92v-21.84c6.04,0,10.92-4.88,10.92-10.92V11.35c0-6.04-4.88-10.92-10.92-10.92H32.76ZM32.76,131.45h87.35v21.84H32.76c-6.04,0-10.92-4.88-10.92-10.92s4.88-10.92,10.92-10.92ZM43.68,49.56c0-3,2.46-5.46,5.46-5.46h65.51c3,0,5.46,2.46,5.46,5.46s-2.46,5.46-5.46,5.46H49.13c-3,0-5.46-2.46-5.46-5.46ZM49.13,65.94h65.51c3,0,5.46,2.46,5.46,5.46s-2.46,5.46-5.46,5.46H49.13c-3,0-5.46-2.46-5.46-5.46s2.46-5.46,5.46-5.46Z"/>
  <g>
    <path class="cls-1" d="M275.51,85.52c-4.7,15.8-16.37,27.76-37.44,27.76-28.62,0-43.71-22.78-43.71-50.82s14.81-51.39,43.85-51.39c21.5,0,34.17,11.96,37.44,28.62h-7.69c-4.56-12.96-12.96-21.5-30.18-21.5-24.77,0-35.16,22.64-35.16,44.13s10.25,43.85,35.73,43.85c16.23,0,24.49-8.4,29.47-20.64h7.69Z"/>
    <path class="cls-1" d="M351.96,76.41c0,19.79-10.96,37.44-32.17,37.44-19.22,0-31.18-15.8-31.18-37.3,0-20.36,11.25-37.3,31.89-37.3,18.93,0,31.46,14.81,31.46,37.16ZM296.15,76.55c0,16.94,9.11,30.61,24.2,30.61s24.06-12.67,24.06-30.61c0-16.8-8.54-30.61-24.34-30.61s-23.92,13.52-23.92,30.61Z"/>
    <path class="cls-1" d="M369.6,112.15V7.22h7.12v104.92h-7.12Z"/>
    <path class="cls-1" d="M457.73,76.41c0,19.79-10.96,37.44-32.17,37.44-19.22,0-31.18-15.8-31.18-37.3,0-20.36,11.25-37.3,31.89-37.3,18.93,0,31.46,14.81,31.46,37.16ZM401.92,76.55c0,16.94,9.11,30.61,24.2,30.61s24.06-12.67,24.06-30.61c0-16.8-8.54-30.61-24.34-30.61s-23.92,13.52-23.92,30.61Z"/>
    <path class="cls-1" d="M475.37,60.33c0-11.96-.14-17.08-.14-19.36h6.98c.14,2.28.28,6.83.28,15.95,4.13-10.68,13.24-17.08,24.77-17.65v7.69c-14.81,1-24.77,11.25-24.77,28.19v37.01h-7.12v-51.82Z"/>
    <path class="cls-1" d="M520.36,7.22h7.12v13.81h-7.12V7.22ZM520.36,40.96h7.12v71.18h-7.12V40.96Z"/>
    <path class="cls-1" d="M550.82,58.9c0-6.26,0-12.24-.14-17.94h6.98c.28,2.28.43,11.53.28,13.53,3.13-7.26,8.97-15.23,23.63-15.23,12.67,0,23.92,7.12,23.92,26.76v46.13h-7.12v-44.99c0-12.67-5.27-20.93-17.65-20.93-16.94,0-22.78,14.09-22.78,29.61v36.3h-7.12v-53.24Z"/>
    <path class="cls-1" d="M683.22,107.3c0,22.78-10.11,34.74-30.75,34.74-18.51,0-26.2-10.39-27.9-21.21h7.26c2.56,9.82,10.68,14.52,20.93,14.52,18.51,0,23.63-11.96,23.63-30.04v-7.4c-3.84,9.25-10.82,14.24-23.78,14.24-16.66,0-29.47-13.52-29.47-35.59,0-23.92,13.67-37.3,30.46-37.3,14.52,0,20.79,6.83,22.78,12.53.14-4.13.28-9.11.43-10.82h6.69c0,2.56-.28,13.81-.28,20.64v45.7ZM630.68,76.27c0,16.94,8.97,29.18,22.64,29.18,17.8,0,23.21-11.82,23.21-30.32s-5.7-29.18-22.78-29.18-23.06,14.09-23.06,30.32Z"/>
    <path class="cls-1" d="M706.56,7.22h7.12v45.7c3.42-7.12,10.39-13.67,24.34-13.67,16.8,0,29.18,13.81,29.18,35.73s-11.1,38.87-31.04,38.87c-11.96,0-18.79-4.84-22.49-12.96,0,4.56-.14,9.25-.28,11.25h-6.98c.14-8.12.14-16.23.14-24.34V7.22ZM759.66,75.13c0-17.8-8.83-29.18-22.35-29.18-17.8,0-24.06,12.1-24.06,30.75,0,16.8,5.55,30.47,23.21,30.47,14.38,0,23.21-11.96,23.21-32.03Z"/>
    <path class="cls-1" d="M843.36,76.41c0,19.79-10.96,37.44-32.17,37.44-19.22,0-31.18-15.8-31.18-37.3,0-20.36,11.25-37.3,31.89-37.3,18.93,0,31.46,14.81,31.46,37.16ZM787.56,76.55c0,16.94,9.11,30.61,24.2,30.61s24.06-12.67,24.06-30.61c0-16.8-8.54-30.61-24.34-30.61s-23.92,13.52-23.92,30.61Z"/>
    <path class="cls-1" d="M919.52,76.41c0,19.79-10.96,37.44-32.17,37.44-19.22,0-31.18-15.8-31.18-37.3,0-20.36,11.25-37.3,31.89-37.3,18.93,0,31.46,14.81,31.46,37.16ZM863.72,76.55c0,16.94,9.11,30.61,24.2,30.61s24.06-12.67,24.06-30.61c0-16.8-8.54-30.61-24.34-30.61s-23.92,13.52-23.92,30.61Z"/>
    <path class="cls-1" d="M944.29,77.69c6.55-6.98,26.48-27.19,36.02-36.73h9.11l-28.19,28.33,31.75,42.85h-8.83l-28.05-38.3-11.82,11.39v26.91h-7.12V7.22h7.12v70.47Z"/>
  </g>
  <g>
    <path class="cls-2" d="M194.66,147.39v-1.14h7.97v1.14l-3.7.43h-.57l-3.7-.43ZM204.4,163.76c3.27,0,4.93-1.85,4.93-6.95v-10.56h1.42v11.3c0,5.98-2.9,8.2-6.75,8.2-4.13,0-6.92-2.31-6.92-7.6v-3.08c0-2.93,0-5.89-.09-8.83h2.73c-.09,2.88-.09,5.84-.09,8.83v2.25c0,4.9,1.85,6.43,4.75,6.43ZM209.53,147.82l-3.13-.43v-1.14h6.83v1.14l-3.13.43h-.57Z"/>
    <path class="cls-2" d="M216.64,165.33c.06-1.28.09-4.21.09-5.98v-1.34c0-1.57-.03-2.45-.09-3.59l-2.28-.26v-1l3.87-1.71.43.28.34,3.3v4.3c0,1.77.03,4.7.09,5.98h-2.45ZM221.09,164.33v1h-6.55v-1l3.13-.57h.57l2.85.57ZM227.66,156.73v2.62c0,1.82.03,4.7.09,5.98h-2.45c.06-1.28.09-4.16.09-5.98v-2.39c0-2.65-.68-3.5-2.39-3.5-1.42,0-2.59.57-4.21,1.96h-.6v-1.28h1.45l-1.22.51c1.34-1.79,3.62-3.19,5.64-3.19,2.45,0,3.62,1.51,3.62,5.27ZM226.89,163.76l2.85.57v1h-6.55v-1l3.13-.57h.57Z"/>
    <path class="cls-2" d="M235.66,144.26l.4.23-.11,4.04v10.82c0,1.99.03,3.99.09,5.98h-2.45c.06-1.99.09-3.99.09-5.98v-12.53l-2.36-.28v-1l4.36-1.28ZM238.31,164.33v1h-7v-1l3.22-.57h.57l3.22.57Z"/>
    <path class="cls-2" d="M252.09,156.9c0,.65-.09,1.22-.2,1.59h-10.51v-1.2h6.78c1.37,0,1.68-.66,1.68-1.45,0-1.62-1.37-3.1-3.16-3.1s-3.93,1.54-3.93,5.61c0,3.62,1.82,5.55,4.67,5.55,1.82,0,2.96-.83,3.99-2.02l.65.51c-1.02,2.02-2.85,3.3-5.44,3.3-3.81,0-6.29-2.65-6.29-6.98s2.96-7.26,6.49-7.26c2.93,0,5.27,1.99,5.27,5.44Z"/>
    <path class="cls-2" d="M259.21,157.87c1.2-.43,2.99-.94,4.41-1.2v1.02c-1.28.26-2.96.8-3.82,1.14-2.56,1-2.85,2.08-2.85,2.9,0,1.51,1,2.11,2.31,2.11,1,0,1.57-.37,3.36-1.65l.57-.43.4.6-.83.83c-1.71,1.71-2.68,2.51-4.41,2.51-2.08,0-3.82-1.2-3.82-3.56,0-1.59.85-2.88,4.67-4.27ZM262.48,162.71v-6.49c0-2.79-.8-3.47-2.68-3.47-.65,0-1.51.08-2.56.51l1.14-.88-.74,2.45c-.26.83-.68,1.28-1.45,1.28s-1.22-.43-1.28-1.14c.54-2.16,2.65-3.5,5.5-3.5s4.36,1.34,4.36,4.93v6.04c0,1.28.4,1.74,1.05,1.74.48,0,.8-.26,1.11-.63l.57.63c-.68,1.08-1.45,1.45-2.42,1.45-1.57,0-2.59-1.14-2.59-2.9Z"/>
    <path class="cls-2" d="M269.17,164.62l-.11-3.1h1.51l.77,3.36-1.4-.65v-.97c1,.77,2.08,1.17,3.5,1.17,2.19,0,3.22-.88,3.22-2.19,0-1.22-.85-1.85-2.65-2.51l-1.31-.48c-2.08-.77-3.45-1.88-3.45-3.82,0-2.05,1.74-3.96,4.9-3.96,1.54,0,2.73.43,3.96,1.17l-.11,2.88h-1.42l-.57-2.88,1.03.46v.74c-.91-.71-1.88-1.08-2.9-1.08-1.77,0-2.68.77-2.68,1.96,0,1.28.71,1.76,2.65,2.48l.85.31c2.85,1.05,3.93,2.39,3.93,4.16,0,2.11-1.85,4.04-5.5,4.04-1.59,0-2.82-.37-4.21-1.08Z"/>
    <path class="cls-2" d="M282.81,146.82l-2.36-.28v-1l4.27-1.28.4.23-.11,4.04v6.04l.09.37v4.41c0,1.77.03,4.7.09,5.98h-2.45c.06-1.28.09-4.21.09-5.98v-12.53ZM287.14,164.33v1h-6.55v-1l3.13-.57h.57l2.85.57ZM293.86,156.73v2.62c0,1.82.03,4.7.09,5.98h-2.45c.06-1.28.09-4.16.09-5.98v-2.39c0-2.65-.68-3.5-2.39-3.5-1.42,0-2.59.51-4.21,1.96h-.6v-1.28h1.45l-1.28.51c1.34-1.79,3.67-3.19,5.69-3.19,2.45,0,3.62,1.51,3.62,5.27ZM293.09,163.76l2.85.57v1h-6.55v-1l3.13-.57h.57Z"/>
    <path class="cls-2" d="M303.48,170.57c.2-.8,1.02-1.2,1.88-1.2.74,0,1.31.29,2.08,1.05l.88.88-1.11.63-.77-.63c1.91-.94,3.05-2.9,3.76-4.9l.88-2.48,4.39-12.1h1.54l-5.07,13.33c-1.94,5.12-3.53,7.29-5.87,7.29-1.4,0-2.59-.77-2.59-1.88ZM306.39,153.26l-2.79-.43v-1h6.78v1.03l-3.42.4h-.57ZM310.63,166.81l-5.95-14.98h2.65l4.47,12.13-1.17,2.85ZM315.47,153.26l-3.02-.43v-1h5.58v1l-1.99.43h-.57Z"/>
    <path class="cls-2" d="M318.77,158.64c0-4.73,3.22-7.17,6.49-7.17s6.49,2.45,6.49,7.17-3.27,7.06-6.49,7.06-6.49-2.33-6.49-7.06ZM329.19,158.64c0-3.82-1.45-5.89-3.93-5.89s-3.93,2.08-3.93,5.89,1.4,5.78,3.93,5.78,3.93-1.96,3.93-5.78Z"/>
    <path class="cls-2" d="M337.73,160.29c0,2.53.74,3.42,2.31,3.42,1.45,0,2.93-.71,4.36-2.14h.6v1.45h-1.45l1-.43c-1.62,2.19-3.56,3.1-5.41,3.1-2.28,0-3.7-1.37-3.67-5.12l.09-7.52.6.54-2.65-.57v-1l4.1-.37.28.29-.14,3.99v4.36ZM344.51,165.56l-.4-3.33.09-9.17.6.54-2.65-.57v-1l4.04-.37.28.29-.09,3.99v8.51l-.68-.68,2.65.57v1l-3.84.23Z"/>
    <path class="cls-2" d="M352.71,159.35v-1.34c0-1.57-.03-2.45-.09-3.59l-2.28-.26v-1l3.87-1.71.43.28.34,3.56v4.04c0,1.77.03,4.7.09,5.98h-2.45c.06-1.28.09-4.21.09-5.98ZM350.57,164.33l3.13-.57h.57l3.13.57v1h-6.83v-1ZM353.85,155.51h1.62l-.71.2c.91-2.65,2.65-4.24,4.33-4.24.83,0,1.68.4,2.02.97,0,1.34-.51,2.08-1.65,2.08-.65,0-1.2-.26-1.71-.68l-.77-.66,1.4-.28c-1.77.91-2.79,2.33-3.45,4.53h-1.08v-1.91Z"/>
    <path class="cls-2" d="M371.56,158.35c0,3.59,1.91,5.55,4.58,5.55,1.65,0,3.1-.8,3.99-2.22l.68.34c-.77,2.36-2.59,3.67-5.27,3.67-3.9,0-6.35-2.73-6.35-7.09s3.13-7.15,6.52-7.15c2.53,0,4.64,1.57,5.01,3.67-.14.71-.57,1.05-1.28,1.05-.94,0-1.31-.57-1.51-1.28l-.71-2.51,1.31,1.05c-.97-.51-1.94-.71-2.73-.71-2.48,0-4.24,1.96-4.24,5.61Z"/>
    <path class="cls-2" d="M385.17,159.35v-1.34c0-1.57-.03-2.45-.09-3.59l-2.28-.26v-1l3.87-1.71.43.28.34,3.56v4.04c0,1.77.03,4.7.09,5.98h-2.45c.06-1.28.09-4.21.09-5.98ZM383.03,164.33l3.13-.57h.57l3.13.57v1h-6.83v-1ZM386.3,155.51h1.62l-.71.2c.91-2.65,2.65-4.24,4.33-4.24.83,0,1.68.4,2.02.97,0,1.34-.51,2.08-1.65,2.08-.65,0-1.2-.26-1.71-.68l-.77-.66,1.4-.28c-1.77.91-2.79,2.33-3.45,4.53h-1.08v-1.91Z"/>
    <path class="cls-2" d="M406.55,156.9c0,.65-.09,1.22-.2,1.59h-10.51v-1.2h6.78c1.37,0,1.68-.66,1.68-1.45,0-1.62-1.37-3.1-3.16-3.1s-3.93,1.54-3.93,5.61c0,3.62,1.82,5.55,4.67,5.55,1.82,0,2.96-.83,3.99-2.02l.65.51c-1.02,2.02-2.85,3.3-5.44,3.3-3.81,0-6.29-2.65-6.29-6.98s2.96-7.26,6.49-7.26c2.93,0,5.27,1.99,5.27,5.44Z"/>
    <path class="cls-2" d="M413.67,157.87c1.2-.43,2.99-.94,4.41-1.2v1.02c-1.28.26-2.96.8-3.82,1.14-2.56,1-2.85,2.08-2.85,2.9,0,1.51,1,2.11,2.31,2.11,1,0,1.57-.37,3.36-1.65l.57-.43.4.6-.83.83c-1.71,1.71-2.68,2.51-4.41,2.51-2.08,0-3.82-1.2-3.82-3.56,0-1.59.85-2.88,4.67-4.27ZM416.94,162.71v-6.49c0-2.79-.8-3.47-2.68-3.47-.65,0-1.51.08-2.56.51l1.14-.88-.74,2.45c-.26.83-.68,1.28-1.45,1.28s-1.22-.43-1.28-1.14c.54-2.16,2.65-3.5,5.5-3.5s4.36,1.34,4.36,4.93v6.04c0,1.28.4,1.74,1.05,1.74.48,0,.8-.26,1.11-.63l.57.63c-.68,1.08-1.45,1.45-2.42,1.45-1.57,0-2.59-1.14-2.59-2.9Z"/>
    <path class="cls-2" d="M428.67,164.28c.63,0,1.2-.26,1.94-.8l.65.77c-.71.91-1.88,1.45-3.3,1.45-1.96,0-3.19-1.03-3.19-3.22,0-.68.03-1.28.03-2.39v-6.78h-2.39v-1.22l3.53-.46-1.14.94.85-4.61h1.65l-.23,4.98v9.23c0,1.48.63,2.11,1.59,2.11ZM431.01,151.83v1.48h-5.07v-1.48h5.07Z"/>
    <path class="cls-2" d="M434.51,165.33c.06-1.28.09-4.21.09-5.98v-1.34c0-1.57-.03-2.45-.09-3.59l-2.33-.26v-1l4.3-1.71.43.28-.09,3.84v3.76c0,1.77.03,4.7.09,5.98h-2.39ZM438.89,164.33v1h-6.55v-1l3.13-.57h.57l2.85.57ZM433.8,146.45c0-1.08.83-1.79,1.88-1.79s1.88.71,1.88,1.79-.83,1.79-1.88,1.79-1.88-.74-1.88-1.79Z"/>
    <path class="cls-2" d="M442.17,153.4l-2.79-.48v-1.08h6.83v1.08l-3.47.48h-.57ZM443.08,151.83l4.44,11.59-1.17,1.48,4.58-13.07h1.54l-5.18,13.67h-1.17l-5.75-13.67h2.71ZM450.88,153.4l-2.85-.48v-1.08h5.41v1.08l-1.99.48h-.57Z"/>
    <path class="cls-2" d="M456.89,165.33c.06-1.28.09-4.21.09-5.98v-1.34c0-1.57-.03-2.45-.09-3.59l-2.33-.26v-1l4.3-1.71.43.28-.09,3.84v3.76c0,1.77.03,4.7.09,5.98h-2.39ZM461.27,164.33v1h-6.55v-1l3.13-.57h.57l2.85.57ZM456.17,146.45c0-1.08.83-1.79,1.88-1.79s1.88.71,1.88,1.79-.83,1.79-1.88,1.79-1.88-.74-1.88-1.79Z"/>
    <path class="cls-2" d="M468.7,164.28c.63,0,1.2-.26,1.94-.8l.65.77c-.71.91-1.88,1.45-3.3,1.45-1.96,0-3.19-1.03-3.19-3.22,0-.68.03-1.28.03-2.39v-6.78h-2.39v-1.22l3.53-.46-1.14.94.85-4.61h1.65l-.23,4.98v9.23c0,1.48.63,2.11,1.59,2.11ZM471.04,151.83v1.48h-5.07v-1.48h5.07Z"/>
    <path class="cls-2" d="M471.38,170.57c.2-.8,1.02-1.2,1.88-1.2.74,0,1.31.29,2.08,1.05l.88.88-1.11.63-.77-.63c1.91-.94,3.05-2.9,3.76-4.9l.88-2.48,4.39-12.1h1.54l-5.07,13.33c-1.94,5.12-3.53,7.29-5.87,7.29-1.4,0-2.59-.77-2.59-1.88ZM474.28,153.26l-2.79-.43v-1h6.78v1.03l-3.42.4h-.57ZM478.52,166.81l-5.95-14.98h2.65l4.47,12.13-1.17,2.85ZM483.36,153.26l-3.02-.43v-1h5.58v1l-1.99.43h-.57Z"/>
    <path class="cls-2" d="M483.9,171.74l-.4-.94c2.25-1.11,3.96-2.71,4.44-5.47l.09,1.22-1.37-1.08c-.74-.6-1.05-1.34-1.05-2.02,0-.97.57-1.77,1.71-1.77.51,0,1.05.17,1.77.83.2.71.31,1.37.31,2.05,0,3.42-2.76,6.15-5.5,7.17Z"/>
    <path class="cls-2" d="M499.88,158.64c0-4.73,3.22-7.17,6.49-7.17s6.49,2.45,6.49,7.17-3.27,7.06-6.49,7.06-6.49-2.33-6.49-7.06ZM510.3,158.64c0-3.82-1.45-5.89-3.93-5.89s-3.93,2.08-3.93,5.89,1.4,5.78,3.93,5.78,3.93-1.96,3.93-5.78Z"/>
    <path class="cls-2" d="M517.44,165.33c.06-1.28.09-4.21.09-5.98v-1.34c0-1.57-.03-2.45-.09-3.59l-2.28-.26v-1l3.87-1.71.43.28.34,3.3v4.3c0,1.77.03,4.7.09,5.98h-2.45ZM521.89,164.33v1h-6.55v-1l3.13-.57h.57l2.85.57ZM528.46,156.73v2.62c0,1.82.03,4.7.09,5.98h-2.45c.06-1.28.09-4.16.09-5.98v-2.39c0-2.65-.68-3.5-2.39-3.5-1.42,0-2.59.57-4.21,1.96h-.6v-1.28h1.45l-1.22.51c1.34-1.79,3.62-3.19,5.64-3.19,2.45,0,3.62,1.51,3.62,5.27ZM527.69,163.76l2.85.57v1h-6.55v-1l3.13-.57h.57Z"/>
    <path class="cls-2" d="M544.46,156.9c0,.65-.08,1.22-.2,1.59h-10.51v-1.2h6.78c1.37,0,1.68-.66,1.68-1.45,0-1.62-1.37-3.1-3.16-3.1s-3.93,1.54-3.93,5.61c0,3.62,1.82,5.55,4.67,5.55,1.82,0,2.96-.83,3.99-2.02l.65.51c-1.02,2.02-2.85,3.3-5.44,3.3-3.81,0-6.29-2.65-6.29-6.98s2.96-7.26,6.49-7.26c2.93,0,5.27,1.99,5.27,5.44Z"/>
    <path class="cls-2" d="M556.14,158.35c0,3.59,1.91,5.55,4.58,5.55,1.65,0,3.1-.8,3.99-2.22l.68.34c-.77,2.36-2.59,3.67-5.27,3.67-3.9,0-6.35-2.73-6.35-7.09s3.13-7.15,6.52-7.15c2.53,0,4.64,1.57,5.01,3.67-.14.71-.57,1.05-1.28,1.05-.94,0-1.31-.57-1.51-1.28l-.71-2.51,1.31,1.05c-.97-.51-1.94-.71-2.73-.71-2.48,0-4.24,1.96-4.24,5.61Z"/>
    <path class="cls-2" d="M567.69,158.64c0-4.73,3.22-7.17,6.49-7.17s6.49,2.45,6.49,7.17-3.28,7.06-6.49,7.06-6.49-2.33-6.49-7.06ZM578.12,158.64c0-3.82-1.45-5.89-3.93-5.89s-3.93,2.08-3.93,5.89,1.4,5.78,3.93,5.78,3.93-1.96,3.93-5.78Z"/>
    <path class="cls-2" d="M586.77,144.26l.4.23-.11,4.04v10.82c0,1.99.03,3.99.08,5.98h-2.45c.06-1.99.08-3.99.08-5.98v-12.53l-2.36-.28v-1l4.36-1.28ZM589.42,164.33v1h-7v-1l3.22-.57h.57l3.22.57Z"/>
    <path class="cls-2" d="M591.44,158.64c0-4.73,3.22-7.17,6.49-7.17s6.49,2.45,6.49,7.17-3.27,7.06-6.49,7.06-6.49-2.33-6.49-7.06ZM601.86,158.64c0-3.82-1.45-5.89-3.93-5.89s-3.93,2.08-3.93,5.89,1.4,5.78,3.93,5.78,3.93-1.96,3.93-5.78Z"/>
    <path class="cls-2" d="M609.09,159.35v-1.34c0-1.57-.03-2.45-.08-3.59l-2.28-.26v-1l3.87-1.71.43.28.34,3.56v4.04c0,1.77.03,4.7.08,5.98h-2.45c.06-1.28.08-4.21.08-5.98ZM606.96,164.33l3.13-.57h.57l3.13.57v1h-6.83v-1ZM610.23,155.51h1.62l-.71.2c.91-2.65,2.65-4.24,4.33-4.24.83,0,1.68.4,2.02.97,0,1.34-.51,2.08-1.65,2.08-.66,0-1.2-.26-1.71-.68l-.77-.66,1.4-.28c-1.76.91-2.79,2.33-3.45,4.53h-1.08v-1.91Z"/>
    <path class="cls-2" d="M630.33,157.87c1.2-.43,2.99-.94,4.41-1.2v1.02c-1.28.26-2.96.8-3.82,1.14-2.56,1-2.85,2.08-2.85,2.9,0,1.51,1,2.11,2.31,2.11,1,0,1.57-.37,3.36-1.65l.57-.43.4.6-.83.83c-1.71,1.71-2.68,2.51-4.41,2.51-2.08,0-3.82-1.2-3.82-3.56,0-1.59.86-2.88,4.67-4.27ZM633.61,162.71v-6.49c0-2.79-.8-3.47-2.68-3.47-.65,0-1.51.08-2.56.51l1.14-.88-.74,2.45c-.26.83-.68,1.28-1.45,1.28s-1.22-.43-1.28-1.14c.54-2.16,2.65-3.5,5.5-3.5s4.36,1.34,4.36,4.93v6.04c0,1.28.4,1.74,1.05,1.74.48,0,.8-.26,1.11-.63l.57.63c-.68,1.08-1.45,1.45-2.42,1.45-1.57,0-2.59-1.14-2.59-2.9Z"/>
    <path class="cls-2" d="M645.34,164.28c.63,0,1.2-.26,1.94-.8l.65.77c-.71.91-1.88,1.45-3.3,1.45-1.96,0-3.19-1.03-3.19-3.22,0-.68.03-1.28.03-2.39v-6.78h-2.39v-1.22l3.53-.46-1.14.94.85-4.61h1.65l-.23,4.98v9.23c0,1.48.63,2.11,1.59,2.11ZM647.67,151.83v1.48h-5.07v-1.48h5.07Z"/>
    <path class="cls-2" d="M660.65,157.87c1.2-.43,2.99-.94,4.41-1.2v1.02c-1.28.26-2.96.8-3.82,1.14-2.56,1-2.85,2.08-2.85,2.9,0,1.51,1,2.11,2.31,2.11,1,0,1.57-.37,3.36-1.65l.57-.43.4.6-.83.83c-1.71,1.71-2.68,2.51-4.41,2.51-2.08,0-3.82-1.2-3.82-3.56,0-1.59.85-2.88,4.67-4.27ZM663.93,162.71v-6.49c0-2.79-.8-3.47-2.68-3.47-.65,0-1.51.08-2.56.51l1.14-.88-.74,2.45c-.26.83-.68,1.28-1.45,1.28s-1.22-.43-1.28-1.14c.54-2.16,2.65-3.5,5.5-3.5s4.36,1.34,4.36,4.93v6.04c0,1.28.4,1.74,1.05,1.74.48,0,.8-.26,1.11-.63l.57.63c-.68,1.08-1.45,1.45-2.42,1.45-1.57,0-2.59-1.14-2.59-2.9Z"/>
    <path class="cls-2" d="M682.32,164.28c.63,0,1.2-.26,1.94-.8l.66.77c-.71.91-1.88,1.45-3.3,1.45-1.96,0-3.19-1.03-3.19-3.22,0-.68.03-1.28.03-2.39v-6.78h-2.39v-1.22l3.53-.46-1.14.94.85-4.61h1.65l-.23,4.98v9.23c0,1.48.63,2.11,1.59,2.11ZM684.65,151.83v1.48h-5.07v-1.48h5.07Z"/>
    <path class="cls-2" d="M688.16,165.33c.06-1.28.08-4.21.08-5.98v-1.34c0-1.57-.03-2.45-.08-3.59l-2.33-.26v-1l4.3-1.71.43.28-.09,3.84v3.76c0,1.77.03,4.7.09,5.98h-2.39ZM692.54,164.33v1h-6.55v-1l3.13-.57h.57l2.85.57ZM687.44,146.45c0-1.08.83-1.79,1.88-1.79s1.88.71,1.88,1.79-.83,1.79-1.88,1.79-1.88-.74-1.88-1.79Z"/>
    <path class="cls-2" d="M696.73,165.33c.06-1.28.09-4.21.09-5.98v-1.34c0-1.57-.03-2.45-.09-3.59l-2.28-.26v-1l3.87-1.71.43.28.34,3.3v4.3c0,1.77.03,4.7.09,5.98h-2.45ZM701.17,164.33v1h-6.55v-1l3.13-.57h.57l2.85.57ZM707.63,156.73v2.62c0,1.82.03,4.7.08,5.98h-2.45c.06-1.28.08-4.16.08-5.98v-2.39c0-2.65-.68-3.5-2.39-3.5-1.4,0-2.51.57-4.1,1.96h-.6v-1.28h1.45l-1.22.51c1.34-1.79,3.53-3.19,5.52-3.19,2.45,0,3.62,1.51,3.62,5.27ZM706.86,163.76l2.85.57v1h-6.55v-1l3.13-.57h.57ZM716.17,156.42v2.93c0,1.82.03,4.7.09,5.98h-2.45c.06-1.28.09-4.16.09-5.98v-2.45c0-2.68-.74-3.45-2.42-3.45-1.28,0-2.48.51-4.07,1.96h-.68v-1h1.54l-1.31.23c1.48-2.11,3.59-3.19,5.61-3.19,2.28,0,3.62,1.42,3.62,4.95ZM715.4,163.76l2.85.57v1h-6.55v-1l3.13-.57h.57Z"/>
    <path class="cls-2" d="M732.17,156.9c0,.65-.08,1.22-.2,1.59h-10.51v-1.2h6.78c1.37,0,1.68-.66,1.68-1.45,0-1.62-1.37-3.1-3.16-3.1s-3.93,1.54-3.93,5.61c0,3.62,1.82,5.55,4.67,5.55,1.82,0,2.96-.83,3.99-2.02l.66.51c-1.03,2.02-2.85,3.3-5.44,3.3-3.81,0-6.29-2.65-6.29-6.98s2.96-7.26,6.49-7.26c2.93,0,5.27,1.99,5.27,5.44Z"/>
    <path class="cls-2" d="M735.02,163.71c0-1.11.88-2.02,1.99-2.02s1.99.91,1.99,2.02-.88,1.99-1.99,1.99-1.99-.91-1.99-1.99Z"/>
  </g>
</svg>