<?xml version="1.0" encoding="UTF-8"?>
<svg id="logo" xmlns="http://www.w3.org/2000/svg" viewBox="0 0 492 90">
  <defs>
    <style>
      .cls-1 {
        fill: #fff;
      }

      .cls-2 {
        fill: #f43f5e;
      }
    </style>
  </defs>
  <path id="icon" class="cls-2" d="M16.87,0C7.56,0,0,7.56,0,16.87v56.25c0,9.32,7.56,16.87,16.87,16.87h56.25c3.11,0,5.62-2.51,5.62-5.62s-2.51-5.63-5.62-5.63v-11.25c3.11,0,5.62-2.51,5.62-5.63V5.62c0-3.11-2.51-5.62-5.62-5.62H16.87ZM16.57,66.29h44.19v11.05H16.57c-3.06,0-5.52-2.47-5.52-5.52s2.47-5.52,5.52-5.52ZM22.1,24.86c0-1.52,1.24-2.76,2.76-2.76h33.15c1.52,0,2.76,1.24,2.76,2.76s-1.24,2.76-2.76,2.76H24.86c-1.52,0-2.76-1.24-2.76-2.76ZM24.86,33.15h33.15c1.52,0,2.76,1.24,2.76,2.76s-1.24,2.76-2.76,2.76H24.86c-1.52,0-2.76-1.24-2.76-2.76s1.24-2.76,2.76-2.76Z"/>
  <g id="Type">
    <g>
      <path class="cls-2" d="M149.19,45.4c-2.22,7.48-7.75,13.14-17.73,13.14-13.55,0-20.69-10.78-20.69-24.06s7.01-24.33,20.76-24.33c10.18,0,16.18,5.66,17.73,13.55h-3.64c-2.16-6.13-6.13-10.18-14.29-10.18-11.73,0-16.65,10.72-16.65,20.89s4.85,20.76,16.92,20.76c7.68,0,11.59-3.98,13.95-9.77h3.64Z"/>
      <path class="cls-2" d="M185.39,41.09c0,9.37-5.19,17.73-15.23,17.73-9.1,0-14.76-7.48-14.76-17.66,0-9.64,5.32-17.66,15.1-17.66,8.96,0,14.9,7.01,14.9,17.59ZM158.97,41.16c0,8.02,4.31,14.49,11.46,14.49s11.39-6,11.39-14.49c0-7.95-4.04-14.49-11.53-14.49s-11.32,6.4-11.32,14.49Z"/>
      <path class="cls-2" d="M193.75,58.01V8.34h3.37v49.67h-3.37Z"/>
      <path class="cls-2" d="M235.47,41.09c0,9.37-5.19,17.73-15.23,17.73-9.1,0-14.76-7.48-14.76-17.66,0-9.64,5.32-17.66,15.1-17.66,8.96,0,14.9,7.01,14.9,17.59ZM209.05,41.16c0,8.02,4.31,14.49,11.46,14.49s11.39-6,11.39-14.49c0-7.95-4.04-14.49-11.53-14.49s-11.32,6.4-11.32,14.49Z"/>
      <path class="cls-2" d="M243.83,33.48c0-5.66-.07-8.09-.07-9.17h3.3c.07,1.08.13,3.24.13,7.55,1.95-5.05,6.27-8.09,11.73-8.36v3.64c-7.01.47-11.73,5.32-11.73,13.34v17.52h-3.37v-24.53Z"/>
      <path class="cls-2" d="M265.13,8.34h3.37v6.54h-3.37v-6.54ZM265.13,24.31h3.37v33.7h-3.37V24.31Z"/>
      <path class="cls-2" d="M279.55,32.8c0-2.97,0-5.8-.07-8.49h3.3c.13,1.08.2,5.46.13,6.4,1.48-3.44,4.25-7.21,11.19-7.21,6,0,11.32,3.37,11.32,12.67v21.84h-3.37v-21.3c0-6-2.49-9.91-8.36-9.91-8.02,0-10.78,6.67-10.78,14.02v17.19h-3.37v-25.21Z"/>
      <path class="cls-2" d="M342.24,55.72c0,10.78-4.79,16.45-14.56,16.45-8.76,0-12.4-4.92-13.21-10.04h3.44c1.21,4.65,5.06,6.87,9.91,6.87,8.76,0,11.19-5.66,11.19-14.22v-3.5c-1.82,4.38-5.12,6.74-11.26,6.74-7.89,0-13.95-6.4-13.95-16.85,0-11.32,6.47-17.66,14.42-17.66,6.87,0,9.84,3.24,10.78,5.93.07-1.95.13-4.31.2-5.12h3.17c0,1.21-.13,6.54-.13,9.77v21.63ZM317.37,41.02c0,8.02,4.25,13.82,10.72,13.82,8.42,0,10.99-5.59,10.99-14.36s-2.7-13.82-10.78-13.82-10.92,6.67-10.92,14.36Z"/>
      <path class="cls-2" d="M353.29,8.34h3.37v21.63c1.62-3.37,4.92-6.47,11.52-6.47,7.95,0,13.82,6.54,13.82,16.92s-5.26,18.4-14.69,18.4c-5.66,0-8.9-2.29-10.65-6.13,0,2.16-.07,4.38-.13,5.32h-3.3c.07-3.84.07-7.68.07-11.52V8.34ZM378.43,40.48c0-8.42-4.18-13.82-10.58-13.82-8.42,0-11.39,5.73-11.39,14.56,0,7.95,2.63,14.42,10.99,14.42,6.81,0,10.99-5.66,10.99-15.16Z"/>
      <path class="cls-2" d="M418.07,41.09c0,9.37-5.19,17.73-15.23,17.73-9.1,0-14.76-7.48-14.76-17.66,0-9.64,5.32-17.66,15.1-17.66,8.96,0,14.9,7.01,14.9,17.59ZM391.65,41.16c0,8.02,4.31,14.49,11.46,14.49s11.39-6,11.39-14.49c0-7.95-4.04-14.49-11.53-14.49s-11.32,6.4-11.32,14.49Z"/>
      <path class="cls-2" d="M454.13,41.09c0,9.37-5.19,17.73-15.23,17.73-9.1,0-14.76-7.48-14.76-17.66,0-9.64,5.32-17.66,15.1-17.66,8.96,0,14.9,7.01,14.9,17.59ZM427.71,41.16c0,8.02,4.31,14.49,11.46,14.49s11.39-6,11.39-14.49c0-7.95-4.04-14.49-11.53-14.49s-11.32,6.4-11.32,14.49Z"/>
      <path class="cls-2" d="M465.86,41.7c3.1-3.3,12.54-12.87,17.05-17.39h4.31l-13.34,13.41,15.03,20.29h-4.18l-13.28-18.13-5.59,5.39v12.74h-3.37V8.34h3.37v33.36Z"/>
    </g>
    <g>
      <path class="cls-1" d="M107.54,70.67v-.54h3.77v.54l-1.75.2h-.27l-1.75-.2ZM112.15,78.41c1.55,0,2.33-.88,2.33-3.29v-5h.67v5.35c0,2.83-1.37,3.88-3.19,3.88-1.95,0-3.27-1.09-3.27-3.6v-1.46c0-1.39,0-2.79-.04-4.18h1.29c-.04,1.36-.04,2.76-.04,4.18v1.06c0,2.32.88,3.04,2.25,3.04ZM114.57,70.87l-1.48-.2v-.54h3.23v.54l-1.48.2h-.27Z"/>
      <path class="cls-1" d="M117.95,79.15c.03-.61.04-1.99.04-2.83v-.63c0-.74-.01-1.16-.04-1.7l-1.08-.12v-.47l1.83-.81.2.13.16,1.56v2.03c0,.84.01,2.22.04,2.83h-1.16ZM120.05,78.68v.47h-3.1v-.47l1.48-.27h.27l1.35.27ZM123.16,75.09v1.24c0,.86.01,2.22.04,2.83h-1.16c.03-.61.04-1.97.04-2.83v-1.13c0-1.25-.32-1.66-1.13-1.66-.67,0-1.23.27-1.99.93h-.28v-.61h.69l-.58.24c.63-.85,1.71-1.51,2.67-1.51,1.16,0,1.71.71,1.71,2.49ZM122.8,78.41l1.35.27v.47h-3.1v-.47l1.48-.27h.27Z"/>
      <path class="cls-1" d="M126.95,69.18l.19.11-.05,1.91v5.12c0,.94.01,1.89.04,2.83h-1.16c.03-.94.04-1.89.04-2.83v-5.93l-1.12-.13v-.47l2.06-.61ZM128.2,78.68v.47h-3.31v-.47l1.52-.27h.27l1.52.27Z"/>
      <path class="cls-1" d="M134.73,75.17c0,.31-.04.58-.09.75h-4.97v-.57h3.21c.65,0,.79-.31.79-.69,0-.77-.65-1.47-1.5-1.47s-1.86.73-1.86,2.65c0,1.71.86,2.63,2.21,2.63.86,0,1.4-.39,1.89-.96l.31.24c-.48.96-1.35,1.56-2.57,1.56-1.81,0-2.98-1.25-2.98-3.3s1.4-3.44,3.07-3.44c1.39,0,2.49.94,2.49,2.57Z"/>
      <path class="cls-1" d="M138.1,75.62c.57-.2,1.41-.44,2.09-.57v.48c-.61.12-1.4.38-1.81.54-1.21.47-1.35.98-1.35,1.37,0,.71.47,1,1.09,1,.47,0,.74-.18,1.59-.78l.27-.2.19.28-.39.39c-.81.81-1.27,1.19-2.09,1.19-.98,0-1.81-.57-1.81-1.68,0-.75.4-1.36,2.21-2.02ZM139.65,77.91v-3.07c0-1.32-.38-1.64-1.27-1.64-.31,0-.71.04-1.21.24l.54-.42-.35,1.16c-.12.39-.32.61-.69.61s-.58-.2-.61-.54c.26-1.02,1.25-1.66,2.6-1.66s2.06.63,2.06,2.33v2.86c0,.61.19.82.5.82.23,0,.38-.12.53-.3l.27.3c-.32.51-.69.69-1.15.69-.74,0-1.23-.54-1.23-1.37Z"/>
      <path class="cls-1" d="M142.82,78.82l-.05-1.47h.71l.36,1.59-.66-.31v-.46c.47.36.98.55,1.66.55,1.04,0,1.52-.42,1.52-1.04,0-.58-.4-.88-1.25-1.19l-.62-.23c-.98-.36-1.63-.89-1.63-1.81,0-.97.82-1.87,2.32-1.87.73,0,1.29.2,1.87.55l-.05,1.36h-.67l-.27-1.36.49.22v.35c-.43-.34-.89-.51-1.37-.51-.84,0-1.27.36-1.27.93,0,.61.34.83,1.25,1.17l.4.15c1.35.5,1.86,1.13,1.86,1.97,0,1-.88,1.91-2.6,1.91-.75,0-1.33-.18-1.99-.51Z"/>
      <path class="cls-1" d="M149.28,70.4l-1.12-.13v-.47l2.02-.61.19.11-.05,1.91v2.86l.04.17v2.09c0,.84.01,2.22.04,2.83h-1.16c.03-.61.04-1.99.04-2.83v-5.93ZM151.32,78.68v.47h-3.1v-.47l1.48-.27h.27l1.35.27ZM154.5,75.09v1.24c0,.86.01,2.22.04,2.83h-1.16c.03-.61.04-1.97.04-2.83v-1.13c0-1.25-.32-1.66-1.13-1.66-.67,0-1.23.24-1.99.93h-.28v-.61h.69l-.61.24c.63-.85,1.74-1.51,2.69-1.51,1.16,0,1.71.71,1.71,2.49ZM154.14,78.41l1.35.27v.47h-3.1v-.47l1.48-.27h.27Z"/>
      <path class="cls-1" d="M159.06,81.63c.09-.38.48-.57.89-.57.35,0,.62.13.98.5l.42.42-.53.3-.36-.3c.9-.44,1.44-1.37,1.78-2.32l.42-1.17,2.07-5.73h.73l-2.4,6.31c-.92,2.43-1.67,3.45-2.78,3.45-.66,0-1.23-.36-1.23-.89ZM160.44,73.44l-1.32-.2v-.47h3.21v.48l-1.62.19h-.27ZM162.45,79.85l-2.82-7.09h1.25l2.12,5.74-.55,1.35ZM164.74,73.44l-1.43-.2v-.47h2.64v.47l-.94.2h-.27Z"/>
      <path class="cls-1" d="M166.3,75.99c0-2.24,1.52-3.4,3.07-3.4s3.07,1.16,3.07,3.4-1.55,3.34-3.07,3.34-3.07-1.1-3.07-3.34ZM171.23,75.99c0-1.81-.69-2.79-1.86-2.79s-1.86.98-1.86,2.79.66,2.74,1.86,2.74,1.86-.93,1.86-2.74Z"/>
      <path class="cls-1" d="M175.28,76.77c0,1.2.35,1.62,1.09,1.62.69,0,1.39-.34,2.06-1.01h.28v.69h-.69l.47-.2c-.77,1.04-1.68,1.47-2.56,1.47-1.08,0-1.75-.65-1.74-2.43l.04-3.56.28.26-1.25-.27v-.47l1.94-.18.13.13-.07,1.89v2.06ZM178.49,79.26l-.19-1.58.04-4.34.28.26-1.25-.27v-.47l1.91-.18.13.13-.04,1.89v4.03l-.32-.32,1.25.27v.47l-1.82.11Z"/>
      <path class="cls-1" d="M182.37,76.32v-.63c0-.74-.01-1.16-.04-1.7l-1.08-.12v-.47l1.83-.81.2.13.16,1.68v1.91c0,.84.01,2.22.04,2.83h-1.16c.03-.61.04-1.99.04-2.83ZM181.36,78.68l1.48-.27h.27l1.48.27v.47h-3.23v-.47ZM182.91,74.51h.77l-.34.09c.43-1.25,1.25-2.01,2.05-2.01.39,0,.79.19.96.46,0,.63-.24.98-.78.98-.31,0-.57-.12-.81-.32l-.36-.31.66-.13c-.84.43-1.32,1.1-1.63,2.14h-.51v-.9Z"/>
      <path class="cls-1" d="M191.3,75.85c0,1.7.9,2.63,2.17,2.63.78,0,1.47-.38,1.89-1.05l.32.16c-.36,1.12-1.23,1.74-2.49,1.74-1.85,0-3-1.29-3-3.35s1.48-3.38,3.09-3.38c1.2,0,2.2.74,2.37,1.74-.07.34-.27.5-.61.5-.44,0-.62-.27-.71-.61l-.34-1.19.62.5c-.46-.24-.92-.34-1.29-.34-1.17,0-2.01.93-2.01,2.65Z"/>
      <path class="cls-1" d="M197.74,76.32v-.63c0-.74-.01-1.16-.04-1.7l-1.08-.12v-.47l1.83-.81.2.13.16,1.68v1.91c0,.84.01,2.22.04,2.83h-1.16c.03-.61.04-1.99.04-2.83ZM196.73,78.68l1.48-.27h.27l1.48.27v.47h-3.23v-.47ZM198.28,74.51h.77l-.34.09c.43-1.25,1.25-2.01,2.05-2.01.39,0,.79.19.96.46,0,.63-.24.98-.78.98-.31,0-.57-.12-.81-.32l-.36-.31.66-.13c-.84.43-1.32,1.1-1.63,2.14h-.51v-.9Z"/>
      <path class="cls-1" d="M207.86,75.17c0,.31-.04.58-.09.75h-4.97v-.57h3.21c.65,0,.79-.31.79-.69,0-.77-.65-1.47-1.5-1.47s-1.86.73-1.86,2.65c0,1.71.86,2.63,2.21,2.63.86,0,1.4-.39,1.89-.96l.31.24c-.48.96-1.35,1.56-2.57,1.56-1.81,0-2.98-1.25-2.98-3.3s1.4-3.44,3.07-3.44c1.39,0,2.49.94,2.49,2.57Z"/>
      <path class="cls-1" d="M211.23,75.62c.57-.2,1.41-.44,2.09-.57v.48c-.61.12-1.4.38-1.81.54-1.21.47-1.35.98-1.35,1.37,0,.71.47,1,1.09,1,.47,0,.74-.18,1.59-.78l.27-.2.19.28-.39.39c-.81.81-1.27,1.19-2.09,1.19-.98,0-1.81-.57-1.81-1.68,0-.75.4-1.36,2.21-2.02ZM212.78,77.91v-3.07c0-1.32-.38-1.64-1.27-1.64-.31,0-.71.04-1.21.24l.54-.42-.35,1.16c-.12.39-.32.61-.69.61s-.58-.2-.61-.54c.26-1.02,1.25-1.66,2.6-1.66s2.06.63,2.06,2.33v2.86c0,.61.19.82.5.82.23,0,.38-.12.53-.3l.27.3c-.32.51-.69.69-1.15.69-.74,0-1.23-.54-1.23-1.37Z"/>
      <path class="cls-1" d="M218.34,78.66c.3,0,.57-.12.92-.38l.31.36c-.34.43-.89.69-1.56.69-.93,0-1.51-.49-1.51-1.52,0-.32.01-.61.01-1.13v-3.21h-1.13v-.58l1.67-.22-.54.44.4-2.18h.78l-.11,2.36v4.37c0,.7.3,1,.75,1ZM219.44,72.77v.7h-2.4v-.7h2.4Z"/>
      <path class="cls-1" d="M221.1,79.15c.03-.61.04-1.99.04-2.83v-.63c0-.74-.01-1.16-.04-1.7l-1.1-.12v-.47l2.03-.81.2.13-.04,1.82v1.78c0,.84.01,2.22.04,2.83h-1.13ZM223.18,78.68v.47h-3.1v-.47l1.48-.27h.27l1.35.27ZM220.77,70.22c0-.51.39-.85.89-.85s.89.34.89.85-.39.85-.89.85-.89-.35-.89-.85Z"/>
      <path class="cls-1" d="M224.73,73.51l-1.32-.23v-.51h3.23v.51l-1.64.23h-.27ZM225.16,72.77l2.1,5.48-.55.7,2.17-6.18h.73l-2.45,6.47h-.55l-2.72-6.47h1.28ZM228.85,73.51l-1.35-.23v-.51h2.56v.51l-.94.23h-.27Z"/>
      <path class="cls-1" d="M231.7,79.15c.03-.61.04-1.99.04-2.83v-.63c0-.74-.01-1.16-.04-1.7l-1.1-.12v-.47l2.03-.81.2.13-.04,1.82v1.78c0,.84.01,2.22.04,2.83h-1.13ZM233.77,78.68v.47h-3.1v-.47l1.48-.27h.27l1.35.27ZM231.36,70.22c0-.51.39-.85.89-.85s.89.34.89.85-.39.85-.89.85-.89-.35-.89-.85Z"/>
      <path class="cls-1" d="M237.29,78.66c.3,0,.57-.12.92-.38l.31.36c-.34.43-.89.69-1.56.69-.93,0-1.51-.49-1.51-1.52,0-.32.01-.61.01-1.13v-3.21h-1.13v-.58l1.67-.22-.54.44.4-2.18h.78l-.11,2.36v4.37c0,.7.3,1,.75,1ZM238.4,72.77v.7h-2.4v-.7h2.4Z"/>
      <path class="cls-1" d="M238.56,81.63c.09-.38.48-.57.89-.57.35,0,.62.13.98.5l.42.42-.53.3-.36-.3c.9-.44,1.44-1.37,1.78-2.32l.42-1.17,2.07-5.73h.73l-2.4,6.31c-.92,2.43-1.67,3.45-2.78,3.45-.66,0-1.23-.36-1.23-.89ZM239.94,73.44l-1.32-.2v-.47h3.21v.48l-1.62.19h-.27ZM241.94,79.85l-2.82-7.09h1.25l2.12,5.74-.55,1.35ZM244.23,73.44l-1.43-.2v-.47h2.64v.47l-.94.2h-.27Z"/>
      <path class="cls-1" d="M244.49,82.19l-.19-.44c1.06-.53,1.87-1.28,2.1-2.59l.04.58-.65-.51c-.35-.28-.5-.63-.5-.96,0-.46.27-.84.81-.84.24,0,.5.08.83.39.09.34.15.65.15.97,0,1.62-1.31,2.91-2.6,3.4Z"/>
      <path class="cls-1" d="M252.05,75.99c0-2.24,1.52-3.4,3.07-3.4s3.07,1.16,3.07,3.4-1.55,3.34-3.07,3.34-3.07-1.1-3.07-3.34ZM256.99,75.99c0-1.81-.69-2.79-1.86-2.79s-1.86.98-1.86,2.79.66,2.74,1.86,2.74,1.86-.93,1.86-2.74Z"/>
      <path class="cls-1" d="M260.37,79.15c.03-.61.04-1.99.04-2.83v-.63c0-.74-.01-1.16-.04-1.7l-1.08-.12v-.47l1.83-.81.2.13.16,1.56v2.03c0,.84.01,2.22.04,2.83h-1.16ZM262.47,78.68v.47h-3.1v-.47l1.48-.27h.27l1.35.27ZM265.59,75.09v1.24c0,.86.01,2.22.04,2.83h-1.16c.03-.61.04-1.97.04-2.83v-1.13c0-1.25-.32-1.66-1.13-1.66-.67,0-1.23.27-1.99.93h-.28v-.61h.69l-.58.24c.63-.85,1.71-1.51,2.67-1.51,1.16,0,1.71.71,1.71,2.49ZM265.22,78.41l1.35.27v.47h-3.1v-.47l1.48-.27h.27Z"/>
      <path class="cls-1" d="M273.16,75.17c0,.31-.04.58-.09.75h-4.97v-.57h3.21c.65,0,.79-.31.79-.69,0-.77-.65-1.47-1.5-1.47s-1.86.73-1.86,2.65c0,1.71.86,2.63,2.21,2.63.86,0,1.4-.39,1.89-.96l.31.24c-.48.96-1.35,1.56-2.57,1.56-1.81,0-2.98-1.25-2.98-3.3s1.4-3.44,3.07-3.44c1.39,0,2.49.94,2.49,2.57Z"/>
      <path class="cls-1" d="M278.69,75.85c0,1.7.9,2.63,2.17,2.63.78,0,1.47-.38,1.89-1.05l.32.16c-.36,1.12-1.23,1.74-2.49,1.74-1.85,0-3-1.29-3-3.35s1.48-3.38,3.08-3.38c1.2,0,2.2.74,2.37,1.74-.07.34-.27.5-.61.5-.44,0-.62-.27-.71-.61l-.34-1.19.62.5c-.46-.24-.92-.34-1.29-.34-1.17,0-2.01.93-2.01,2.65Z"/>
      <path class="cls-1" d="M284.17,75.99c0-2.24,1.52-3.4,3.07-3.4s3.07,1.16,3.07,3.4-1.55,3.34-3.07,3.34-3.07-1.1-3.07-3.34ZM289.1,75.99c0-1.81-.69-2.79-1.86-2.79s-1.86.98-1.86,2.79.66,2.74,1.86,2.74,1.86-.93,1.86-2.74Z"/>
      <path class="cls-1" d="M293.2,69.18l.19.11-.05,1.91v5.12c0,.94.01,1.89.04,2.83h-1.16c.03-.94.04-1.89.04-2.83v-5.93l-1.12-.13v-.47l2.06-.61ZM294.45,78.68v.47h-3.31v-.47l1.52-.27h.27l1.52.27Z"/>
      <path class="cls-1" d="M295.41,75.99c0-2.24,1.52-3.4,3.07-3.4s3.07,1.16,3.07,3.4-1.55,3.34-3.07,3.34-3.07-1.1-3.07-3.34ZM300.34,75.99c0-1.81-.69-2.79-1.86-2.79s-1.86.98-1.86,2.79.66,2.74,1.86,2.74,1.86-.93,1.86-2.74Z"/>
      <path class="cls-1" d="M303.77,76.32v-.63c0-.74-.01-1.16-.04-1.7l-1.08-.12v-.47l1.83-.81.2.13.16,1.68v1.91c0,.84.01,2.22.04,2.83h-1.16c.03-.61.04-1.99.04-2.83ZM302.76,78.68l1.48-.27h.27l1.48.27v.47h-3.23v-.47ZM304.31,74.51h.77l-.34.09c.43-1.25,1.25-2.01,2.05-2.01.39,0,.79.19.96.46,0,.63-.24.98-.78.98-.31,0-.57-.12-.81-.32l-.36-.31.66-.13c-.84.43-1.32,1.1-1.63,2.14h-.51v-.9Z"/>
      <path class="cls-1" d="M313.82,75.62c.57-.2,1.41-.44,2.09-.57v.48c-.61.12-1.4.38-1.81.54-1.21.47-1.35.98-1.35,1.37,0,.71.47,1,1.09,1,.47,0,.74-.18,1.59-.78l.27-.2.19.28-.39.39c-.81.81-1.27,1.19-2.09,1.19-.98,0-1.81-.57-1.81-1.68,0-.75.4-1.36,2.21-2.02ZM315.37,77.91v-3.07c0-1.32-.38-1.64-1.27-1.64-.31,0-.71.04-1.21.24l.54-.42-.35,1.16c-.12.39-.32.61-.69.61s-.58-.2-.61-.54c.26-1.02,1.25-1.66,2.6-1.66s2.06.63,2.06,2.33v2.86c0,.61.19.82.5.82.23,0,.38-.12.53-.3l.27.3c-.32.51-.69.69-1.15.69-.74,0-1.23-.54-1.23-1.37Z"/>
      <path class="cls-1" d="M320.93,78.66c.3,0,.57-.12.92-.38l.31.36c-.34.43-.89.69-1.56.69-.93,0-1.51-.49-1.51-1.52,0-.32.01-.61.01-1.13v-3.21h-1.13v-.58l1.67-.22-.54.44.4-2.18h.78l-.11,2.36v4.37c0,.7.3,1,.75,1ZM322.03,72.77v.7h-2.4v-.7h2.4Z"/>
      <path class="cls-1" d="M328.18,75.62c.57-.2,1.41-.44,2.09-.57v.48c-.61.12-1.4.38-1.81.54-1.21.47-1.35.98-1.35,1.37,0,.71.47,1,1.09,1,.47,0,.74-.18,1.59-.78l.27-.2.19.28-.39.39c-.81.81-1.27,1.19-2.09,1.19-.98,0-1.81-.57-1.81-1.68,0-.75.4-1.36,2.21-2.02ZM329.73,77.91v-3.07c0-1.32-.38-1.64-1.27-1.64-.31,0-.71.04-1.21.24l.54-.42-.35,1.16c-.12.39-.32.61-.69.61s-.58-.2-.61-.54c.26-1.02,1.25-1.66,2.6-1.66s2.06.63,2.06,2.33v2.86c0,.61.19.82.5.82.23,0,.38-.12.53-.3l.27.3c-.32.51-.69.69-1.15.69-.74,0-1.23-.54-1.23-1.37Z"/>
      <path class="cls-1" d="M338.44,78.66c.3,0,.57-.12.92-.38l.31.36c-.34.43-.89.69-1.56.69-.93,0-1.51-.49-1.51-1.52,0-.32.01-.61.01-1.13v-3.21h-1.13v-.58l1.67-.22-.54.44.4-2.18h.78l-.11,2.36v4.37c0,.7.3,1,.75,1ZM339.54,72.77v.7h-2.4v-.7h2.4Z"/>
      <path class="cls-1" d="M341.2,79.15c.03-.61.04-1.99.04-2.83v-.63c0-.74-.01-1.16-.04-1.7l-1.1-.12v-.47l2.03-.81.2.13-.04,1.82v1.78c0,.84.01,2.22.04,2.83h-1.13ZM343.28,78.68v.47h-3.1v-.47l1.48-.27h.27l1.35.27ZM340.87,70.22c0-.51.39-.85.89-.85s.89.34.89.85-.39.85-.89.85-.89-.35-.89-.85Z"/>
      <path class="cls-1" d="M345.26,79.15c.03-.61.04-1.99.04-2.83v-.63c0-.74-.01-1.16-.04-1.7l-1.08-.12v-.47l1.83-.81.2.13.16,1.56v2.03c0,.84.01,2.22.04,2.83h-1.16ZM347.36,78.68v.47h-3.1v-.47l1.48-.27h.27l1.35.27ZM350.42,75.09v1.24c0,.86.01,2.22.04,2.83h-1.16c.03-.61.04-1.97.04-2.83v-1.13c0-1.25-.32-1.66-1.13-1.66-.66,0-1.19.27-1.94.93h-.28v-.61h.69l-.58.24c.63-.85,1.67-1.51,2.61-1.51,1.16,0,1.71.71,1.71,2.49ZM350.06,78.41l1.35.27v.47h-3.1v-.47l1.48-.27h.27ZM354.46,74.94v1.39c0,.86.01,2.22.04,2.83h-1.16c.03-.61.04-1.97.04-2.83v-1.16c0-1.27-.35-1.63-1.15-1.63-.61,0-1.17.24-1.93.93h-.32v-.47h.73l-.62.11c.7-1,1.7-1.51,2.65-1.51,1.08,0,1.71.67,1.71,2.34ZM354.1,78.41l1.35.27v.47h-3.1v-.47l1.48-.27h.27Z"/>
      <path class="cls-1" d="M362.04,75.17c0,.31-.04.58-.09.75h-4.97v-.57h3.21c.65,0,.79-.31.79-.69,0-.77-.65-1.47-1.5-1.47s-1.86.73-1.86,2.65c0,1.71.86,2.63,2.21,2.63.86,0,1.4-.39,1.89-.96l.31.24c-.48.96-1.35,1.56-2.57,1.56-1.81,0-2.98-1.25-2.98-3.3s1.4-3.44,3.07-3.44c1.39,0,2.49.94,2.49,2.57Z"/>
      <path class="cls-1" d="M363.39,78.39c0-.53.42-.96.94-.96s.94.43.94.96-.42.94-.94.94-.94-.43-.94-.94Z"/>
    </g>
  </g>
</svg>