<?xml version="1.0" encoding="UTF-8"?>
<svg id="Layer_2" data-name="Layer 2" xmlns="http://www.w3.org/2000/svg" viewBox="0 0 488.91 93">
  <defs>
    <style>
      .cls-1 {
        fill: #fff;
      }

      .cls-2 {
        fill: #f43f5e;
      }
    </style>
  </defs>
  <g id="logo">
    <g>
      <path id="icon" class="cls-2" d="M17.44,0C7.81,0,0,7.81,0,17.44v58.13c0,9.63,7.81,17.44,17.44,17.44h58.13c3.22,0,5.81-2.6,5.81-5.81s-2.6-5.81-5.81-5.81v-11.62c3.22,0,5.81-2.6,5.81-5.81V5.81c0-3.22-2.6-5.81-5.81-5.81H17.44ZM17.13,68.5h45.67v11.42H17.13c-3.16,0-5.71-2.55-5.71-5.71s2.55-5.71,5.71-5.71ZM22.83,25.69c0-1.57,1.28-2.85,2.85-2.85h34.25c1.57,0,2.85,1.28,2.85,2.85s-1.28,2.85-2.85,2.85H25.69c-1.57,0-2.85-1.28-2.85-2.85ZM25.69,34.25h34.25c1.57,0,2.85,1.28,2.85,2.85s-1.28,2.85-2.85,2.85H25.69c-1.57,0-2.85-1.28-2.85-2.85s1.28-2.85,2.85-2.85Z"/>
      <g id="Type">
        <g>
          <path class="cls-2" d="M149.19,38.2c-2.22,7.48-7.75,13.14-17.73,13.14-13.55,0-20.69-10.78-20.69-24.06s7.01-24.33,20.76-24.33c10.18,0,16.18,5.66,17.73,13.55h-3.64c-2.16-6.13-6.13-10.18-14.29-10.18-11.73,0-16.65,10.72-16.65,20.89s4.85,20.76,16.92,20.76c7.68,0,11.59-3.98,13.95-9.77h3.64Z"/>
          <path class="cls-2" d="M185.39,33.88c0,9.37-5.19,17.73-15.23,17.73-9.1,0-14.76-7.48-14.76-17.66,0-9.64,5.32-17.66,15.1-17.66,8.96,0,14.9,7.01,14.9,17.59ZM158.97,33.95c0,8.02,4.31,14.49,11.46,14.49s11.39-6,11.39-14.49c0-7.95-4.04-14.49-11.53-14.49s-11.32,6.4-11.32,14.49Z"/>
          <path class="cls-2" d="M193.75,50.8V1.13h3.37v49.67h-3.37Z"/>
          <path class="cls-2" d="M235.47,33.88c0,9.37-5.19,17.73-15.23,17.73-9.1,0-14.76-7.48-14.76-17.66,0-9.64,5.32-17.66,15.1-17.66,8.96,0,14.9,7.01,14.9,17.59ZM209.05,33.95c0,8.02,4.31,14.49,11.46,14.49s11.39-6,11.39-14.49c0-7.95-4.04-14.49-11.53-14.49s-11.32,6.4-11.32,14.49Z"/>
          <path class="cls-2" d="M243.83,26.27c0-5.66-.07-8.09-.07-9.17h3.3c.07,1.08.13,3.24.13,7.55,1.95-5.05,6.27-8.09,11.73-8.36v3.64c-7.01.47-11.73,5.32-11.73,13.34v17.52h-3.37v-24.53Z"/>
          <path class="cls-2" d="M265.13,1.13h3.37v6.54h-3.37V1.13ZM265.13,17.1h3.37v33.7h-3.37V17.1Z"/>
          <path class="cls-2" d="M279.55,25.59c0-2.97,0-5.8-.07-8.49h3.3c.13,1.08.2,5.46.13,6.4,1.48-3.44,4.25-7.21,11.19-7.21,6,0,11.32,3.37,11.32,12.67v21.84h-3.37v-21.3c0-6-2.49-9.91-8.36-9.91-8.02,0-10.78,6.67-10.78,14.02v17.19h-3.37v-25.21Z"/>
          <path class="cls-2" d="M342.24,48.51c0,10.78-4.79,16.45-14.56,16.45-8.76,0-12.4-4.92-13.21-10.04h3.44c1.21,4.65,5.06,6.87,9.91,6.87,8.76,0,11.19-5.66,11.19-14.22v-3.5c-1.82,4.38-5.12,6.74-11.26,6.74-7.89,0-13.95-6.4-13.95-16.85,0-11.32,6.47-17.66,14.42-17.66,6.87,0,9.84,3.24,10.78,5.93.07-1.95.13-4.31.2-5.12h3.17c0,1.21-.13,6.54-.13,9.77v21.63ZM317.37,33.82c0,8.02,4.25,13.82,10.72,13.82,8.42,0,10.99-5.59,10.99-14.36s-2.7-13.82-10.78-13.82-10.92,6.67-10.92,14.36Z"/>
          <path class="cls-2" d="M353.29,1.13h3.37v21.63c1.62-3.37,4.92-6.47,11.52-6.47,7.95,0,13.82,6.54,13.82,16.92s-5.26,18.4-14.69,18.4c-5.66,0-8.9-2.29-10.65-6.13,0,2.16-.07,4.38-.13,5.32h-3.3c.07-3.84.07-7.68.07-11.52V1.13ZM378.43,33.28c0-8.42-4.18-13.82-10.58-13.82-8.42,0-11.39,5.73-11.39,14.56,0,7.95,2.63,14.42,10.99,14.42,6.81,0,10.99-5.66,10.99-15.16Z"/>
          <path class="cls-2" d="M418.07,33.88c0,9.37-5.19,17.73-15.23,17.73-9.1,0-14.76-7.48-14.76-17.66,0-9.64,5.32-17.66,15.1-17.66,8.96,0,14.9,7.01,14.9,17.59ZM391.65,33.95c0,8.02,4.31,14.49,11.46,14.49s11.39-6,11.39-14.49c0-7.95-4.04-14.49-11.53-14.49s-11.32,6.4-11.32,14.49Z"/>
          <path class="cls-2" d="M454.13,33.88c0,9.37-5.19,17.73-15.23,17.73-9.1,0-14.76-7.48-14.76-17.66,0-9.64,5.32-17.66,15.1-17.66,8.96,0,14.9,7.01,14.9,17.59ZM427.71,33.95c0,8.02,4.31,14.49,11.46,14.49s11.39-6,11.39-14.49c0-7.95-4.04-14.49-11.53-14.49s-11.32,6.4-11.32,14.49Z"/>
          <path class="cls-2" d="M465.86,34.49c3.1-3.3,12.54-12.87,17.05-17.39h4.31l-13.34,13.41,15.03,20.29h-4.18l-13.28-18.13-5.59,5.39v12.74h-3.37V1.13h3.37v33.36Z"/>
        </g>
        <g>
          <path class="cls-1" d="M114.15,71.65v8.92c0,3.91,2.21,4.92,4.29,4.92,2.46,0,4.29-1.03,4.29-4.92v-8.92h1.16v8.85c0,4.6-2.44,6.03-5.49,6.03s-5.42-1.58-5.42-5.84v-9.04h1.18Z"/>
          <path class="cls-1" d="M127.29,78.5c0-.93,0-1.81-.02-2.65h1.03c.04.34.06,1.7.04,2,.46-1.07,1.32-2.25,3.49-2.25,1.87,0,3.53,1.05,3.53,3.95v6.81h-1.05v-6.64c0-1.87-.78-3.09-2.61-3.09-2.5,0-3.36,2.08-3.36,4.37v5.36h-1.05v-7.86Z"/>
          <path class="cls-1" d="M138.81,86.37v-15.5h1.05v15.5h-1.05Z"/>
          <path class="cls-1" d="M143.54,81.24c.02,2.71,1.39,4.39,3.41,4.39s2.65-1.12,3.03-1.98h1.07c-.44,1.39-1.56,2.96-4.14,2.96-3.2,0-4.44-2.75-4.44-5.42,0-3.01,1.49-5.59,4.56-5.59,3.24,0,4.27,2.8,4.27,4.77,0,.29,0,.59-.02.86h-7.74ZM150.21,80.31c-.02-2.08-1.16-3.72-3.22-3.72-2.17,0-3.15,1.51-3.39,3.72h6.6Z"/>
          <path class="cls-1" d="M161.08,84.37c0,.92.08,1.66.15,2h-1.01c-.08-.25-.15-.71-.19-1.62-.36.78-1.28,1.87-3.45,1.87-2.44,0-3.49-1.58-3.49-3.15,0-2.31,1.79-3.36,4.94-3.36h2v-1.07c0-1.05-.31-2.46-2.71-2.46-2.12,0-2.44,1.11-2.67,1.98h-1.05c.13-1.16.84-2.94,3.74-2.94,2.4,0,3.74,1.01,3.74,3.32v5.45ZM160.05,81.01h-2.06c-2.33,0-3.78.61-3.78,2.42,0,1.32.95,2.23,2.42,2.23,3.01,0,3.43-2,3.43-4.27v-.38Z"/>
          <path class="cls-1" d="M164.44,83.47c.36,1.37,1.32,2.19,2.99,2.19,1.87,0,2.63-.86,2.63-2.04s-.5-1.79-2.86-2.36c-2.71-.65-3.39-1.47-3.39-2.86s1.09-2.8,3.47-2.8,3.51,1.45,3.68,2.94h-1.05c-.19-.88-.88-1.98-2.67-1.98s-2.35.9-2.35,1.75c0,.97.5,1.45,2.59,1.96,2.96.71,3.7,1.68,3.7,3.26,0,1.91-1.56,3.09-3.76,3.09-2.4,0-3.74-1.26-4.04-3.15h1.07Z"/>
          <path class="cls-1" d="M174.66,70.87v6.75c.59-1.09,1.62-2.02,3.47-2.02,1.49,0,3.55.76,3.55,4.08v6.69h-1.05v-6.48c0-2.08-.95-3.26-2.69-3.26-2.08,0-3.28,1.28-3.28,3.87v5.87h-1.05v-15.5h1.05Z"/>
          <path class="cls-1" d="M190.32,75.85c2.12,6.01,3.05,8.49,3.41,9.63h.02c.42-1.28,1.26-3.72,3.3-9.63h1.09l-3.95,11.12c-1.11,3.11-1.87,3.81-3.76,3.81-.38,0-.63-.02-.97-.06v-1.05c.32.04.61.06.95.06,1.51,0,2-.74,2.78-2.9l-4.02-10.98h1.16Z"/>
          <path class="cls-1" d="M208.78,81.09c0,2.92-1.62,5.53-4.75,5.53-2.84,0-4.6-2.33-4.6-5.51,0-3.01,1.66-5.51,4.71-5.51,2.8,0,4.65,2.19,4.65,5.49ZM200.54,81.11c0,2.5,1.35,4.52,3.57,4.52s3.55-1.87,3.55-4.52c0-2.48-1.26-4.52-3.6-4.52s-3.53,2-3.53,4.52Z"/>
          <path class="cls-1" d="M219.25,83.3c0,1.03.02,2.67.02,3.07h-1.01c-.04-.27-.06-.97-.06-1.83-.44,1.24-1.51,2.08-3.39,2.08-1.51,0-3.45-.59-3.45-3.81v-6.96h1.03v6.71c0,1.54.48,3.03,2.57,3.03,2.35,0,3.24-1.33,3.24-4.33v-5.4h1.05v7.44Z"/>
          <path class="cls-1" d="M222.7,78.71c0-1.77-.02-2.52-.02-2.86h1.03c.02.34.04,1.01.04,2.35.61-1.58,1.96-2.52,3.66-2.61v1.14c-2.19.15-3.66,1.66-3.66,4.16v5.47h-1.05v-7.65Z"/>
          <path class="cls-1" d="M242.71,83.28c-.5,1.85-1.72,3.34-4.08,3.34-2.63,0-4.5-1.96-4.5-5.47,0-2.88,1.53-5.55,4.63-5.55,2.67,0,3.76,1.89,3.95,3.36h-1.07c-.32-1.22-1.11-2.38-2.9-2.38-2.23,0-3.49,1.89-3.49,4.52s1.18,4.52,3.39,4.52c1.54,0,2.46-.78,3.01-2.36h1.07Z"/>
          <path class="cls-1" d="M245.15,78.71c0-1.77-.02-2.52-.02-2.86h1.03c.02.34.04,1.01.04,2.35.61-1.58,1.96-2.52,3.66-2.61v1.14c-2.19.15-3.66,1.66-3.66,4.16v5.47h-1.05v-7.65Z"/>
          <path class="cls-1" d="M252.03,81.24c.02,2.71,1.39,4.39,3.41,4.39s2.65-1.12,3.03-1.98h1.07c-.44,1.39-1.56,2.96-4.14,2.96-3.2,0-4.44-2.75-4.44-5.42,0-3.01,1.49-5.59,4.56-5.59,3.24,0,4.27,2.8,4.27,4.77,0,.29,0,.59-.02.86h-7.74ZM258.69,80.31c-.02-2.08-1.16-3.72-3.22-3.72-2.17,0-3.15,1.51-3.39,3.72h6.6Z"/>
          <path class="cls-1" d="M269.56,84.37c0,.92.08,1.66.15,2h-1.01c-.08-.25-.15-.71-.19-1.62-.36.78-1.28,1.87-3.45,1.87-2.44,0-3.49-1.58-3.49-3.15,0-2.31,1.79-3.36,4.94-3.36h2v-1.07c0-1.05-.31-2.46-2.71-2.46-2.12,0-2.44,1.11-2.67,1.98h-1.05c.13-1.16.84-2.94,3.74-2.94,2.4,0,3.74,1.01,3.74,3.32v5.45ZM268.53,81.01h-2.06c-2.33,0-3.78.61-3.78,2.42,0,1.32.95,2.23,2.42,2.23,3.01,0,3.43-2,3.43-4.27v-.38Z"/>
          <path class="cls-1" d="M271.35,75.85h1.96v-3.28h1.05v3.28h2.5v.99h-2.5v6.83c0,1.18.25,1.85,1.26,1.85.32,0,.76-.02,1.09-.13v.92c-.36.15-.86.19-1.3.19-1.35,0-2.1-.67-2.1-2.36v-7.32h-1.96v-.99Z"/>
          <path class="cls-1" d="M279,70.87h1.05v2.04h-1.05v-2.04ZM279,75.85h1.05v10.51h-1.05v-10.51Z"/>
          <path class="cls-1" d="M283.33,75.85c1.7,4.81,2.88,8.09,3.28,9.44h.02c.23-.78,1.41-3.91,3.45-9.44h1.11l-3.97,10.51h-1.26l-3.74-10.51h1.11Z"/>
          <path class="cls-1" d="M293.31,70.87h1.05v2.04h-1.05v-2.04ZM293.31,75.85h1.05v10.51h-1.05v-10.51Z"/>
          <path class="cls-1" d="M296.38,75.85h1.96v-3.28h1.05v3.28h2.5v.99h-2.5v6.83c0,1.18.25,1.85,1.26,1.85.32,0,.76-.02,1.09-.13v.92c-.36.15-.86.19-1.3.19-1.35,0-2.1-.67-2.1-2.36v-7.32h-1.96v-.99Z"/>
          <path class="cls-1" d="M304.39,75.85c2.12,6.01,3.05,8.49,3.41,9.63h.02c.42-1.28,1.26-3.72,3.3-9.63h1.09l-3.95,11.12c-1.11,3.11-1.87,3.81-3.76,3.81-.38,0-.63-.02-.97-.06v-1.05c.32.04.61.06.95.06,1.51,0,2-.74,2.78-2.9l-4.02-10.98h1.16Z"/>
          <path class="cls-1" d="M311.67,88.76c1.03-2.04,1.41-3.91,1.47-5.09h1.05c-.15,1.75-.82,3.83-1.58,5.09h-.95Z"/>
          <path class="cls-1" d="M330.88,81.09c0,2.92-1.62,5.53-4.75,5.53-2.84,0-4.6-2.33-4.6-5.51,0-3.01,1.66-5.51,4.71-5.51,2.8,0,4.65,2.19,4.65,5.49ZM322.64,81.11c0,2.5,1.35,4.52,3.57,4.52s3.55-1.87,3.55-4.52c0-2.48-1.26-4.52-3.6-4.52s-3.53,2-3.53,4.52Z"/>
          <path class="cls-1" d="M333.49,78.5c0-.93,0-1.81-.02-2.65h1.03c.04.34.06,1.7.04,2,.46-1.07,1.32-2.25,3.49-2.25,1.87,0,3.53,1.05,3.53,3.95v6.81h-1.05v-6.64c0-1.87-.78-3.09-2.61-3.09-2.5,0-3.36,2.08-3.36,4.37v5.36h-1.05v-7.86Z"/>
          <path class="cls-1" d="M345.24,81.24c.02,2.71,1.39,4.39,3.41,4.39s2.65-1.12,3.03-1.98h1.07c-.44,1.39-1.56,2.96-4.14,2.96-3.2,0-4.44-2.75-4.44-5.42,0-3.01,1.49-5.59,4.56-5.59,3.24,0,4.27,2.8,4.27,4.77,0,.29,0,.59-.02.86h-7.74ZM351.91,80.31c-.02-2.08-1.16-3.72-3.22-3.72-2.17,0-3.15,1.51-3.39,3.72h6.6Z"/>
          <path class="cls-1" d="M368.77,83.28c-.5,1.85-1.72,3.34-4.08,3.34-2.63,0-4.5-1.96-4.5-5.47,0-2.88,1.53-5.55,4.63-5.55,2.67,0,3.76,1.89,3.95,3.36h-1.07c-.32-1.22-1.11-2.38-2.9-2.38-2.23,0-3.49,1.89-3.49,4.52s1.18,4.52,3.39,4.52c1.54,0,2.46-.78,3.01-2.36h1.07Z"/>
          <path class="cls-1" d="M379.83,81.09c0,2.92-1.62,5.53-4.75,5.53-2.84,0-4.6-2.33-4.6-5.51,0-3.01,1.66-5.51,4.71-5.51,2.8,0,4.65,2.19,4.65,5.49ZM371.58,81.11c0,2.5,1.35,4.52,3.57,4.52s3.55-1.87,3.55-4.52c0-2.48-1.26-4.52-3.6-4.52s-3.53,2-3.53,4.52Z"/>
          <path class="cls-1" d="M382.43,86.37v-15.5h1.05v15.5h-1.05Z"/>
          <path class="cls-1" d="M395.45,81.09c0,2.92-1.62,5.53-4.75,5.53-2.84,0-4.6-2.33-4.6-5.51,0-3.01,1.66-5.51,4.71-5.51,2.8,0,4.65,2.19,4.65,5.49ZM387.21,81.11c0,2.5,1.35,4.52,3.57,4.52s3.55-1.87,3.55-4.52c0-2.48-1.26-4.52-3.6-4.52s-3.53,2-3.53,4.52Z"/>
          <path class="cls-1" d="M398.05,78.71c0-1.77-.02-2.52-.02-2.86h1.03c.02.34.04,1.01.04,2.35.61-1.58,1.96-2.52,3.66-2.61v1.14c-2.19.15-3.66,1.66-3.66,4.16v5.47h-1.05v-7.65Z"/>
          <path class="cls-1" d="M417.54,84.37c0,.92.08,1.66.15,2h-1.01c-.08-.25-.15-.71-.19-1.62-.36.78-1.28,1.87-3.45,1.87-2.44,0-3.49-1.58-3.49-3.15,0-2.31,1.79-3.36,4.94-3.36h2v-1.07c0-1.05-.32-2.46-2.71-2.46-2.12,0-2.44,1.11-2.67,1.98h-1.05c.13-1.16.84-2.94,3.74-2.94,2.4,0,3.74,1.01,3.74,3.32v5.45ZM416.51,81.01h-2.06c-2.33,0-3.78.61-3.78,2.42,0,1.32.95,2.23,2.42,2.23,3.01,0,3.43-2,3.43-4.27v-.38Z"/>
          <path class="cls-1" d="M419.33,75.85h1.96v-3.28h1.05v3.28h2.5v.99h-2.5v6.83c0,1.18.25,1.85,1.26,1.85.32,0,.76-.02,1.09-.13v.92c-.36.15-.86.19-1.3.19-1.35,0-2.1-.67-2.1-2.36v-7.32h-1.96v-.99Z"/>
          <path class="cls-1" d="M439.66,84.37c0,.92.08,1.66.15,2h-1.01c-.08-.25-.15-.71-.19-1.62-.36.78-1.28,1.87-3.45,1.87-2.44,0-3.49-1.58-3.49-3.15,0-2.31,1.79-3.36,4.94-3.36h2v-1.07c0-1.05-.31-2.46-2.71-2.46-2.12,0-2.44,1.11-2.67,1.98h-1.05c.13-1.16.84-2.94,3.74-2.94,2.4,0,3.74,1.01,3.74,3.32v5.45ZM438.63,81.01h-2.06c-2.33,0-3.78.61-3.78,2.42,0,1.32.95,2.23,2.42,2.23,3.01,0,3.43-2,3.43-4.27v-.38Z"/>
          <path class="cls-1" d="M447.02,75.85h1.96v-3.28h1.05v3.28h2.5v.99h-2.5v6.83c0,1.18.25,1.85,1.26,1.85.32,0,.76-.02,1.09-.13v.92c-.36.15-.86.19-1.3.19-1.35,0-2.1-.67-2.1-2.36v-7.32h-1.96v-.99Z"/>
          <path class="cls-1" d="M454.67,70.87h1.05v2.04h-1.05v-2.04ZM454.67,75.85h1.05v10.51h-1.05v-10.51Z"/>
          <path class="cls-1" d="M459.17,78.57c0-.9,0-1.89-.02-2.71h1.03c.02.36.06,1.26.04,1.87.44-1.05,1.41-2.12,3.15-2.12,1.47,0,2.63.74,3.05,2.08.53-1.09,1.58-2.08,3.43-2.08,1.62,0,3.3.93,3.3,3.85v6.92h-1.05v-6.79c0-1.41-.5-2.94-2.46-2.94s-2.96,1.64-2.96,3.68v6.06h-1.03v-6.77c0-1.54-.46-2.96-2.4-2.96-2.04,0-3.03,1.81-3.03,3.95v5.78h-1.05v-7.8Z"/>
          <path class="cls-1" d="M476.83,81.24c.02,2.71,1.39,4.39,3.41,4.39s2.65-1.12,3.03-1.98h1.07c-.44,1.39-1.56,2.96-4.14,2.96-3.2,0-4.44-2.75-4.44-5.42,0-3.01,1.49-5.59,4.56-5.59,3.24,0,4.27,2.8,4.27,4.77,0,.29,0,.59-.02.86h-7.74ZM483.49,80.31c-.02-2.08-1.16-3.72-3.22-3.72-2.17,0-3.15,1.51-3.39,3.72h6.6Z"/>
          <path class="cls-1" d="M486.69,86.37v-2.71h1.05v2.71h-1.05Z"/>
        </g>
      </g>
    </g>
  </g>
</svg>