<?xml version="1.0" encoding="UTF-8"?>
<svg id="Layer_2" data-name="Layer 2" xmlns="http://www.w3.org/2000/svg" viewBox="0 0 1025.5 769.5">
  <g id="Layer_1-2" data-name="Layer 1">
    <g id="pxm4qq">
      <g>
        <path d="M1.5,201.5c1.26-4.49,5.5-6.35,8.6-8.87,26.95-21.95,52.48-45.46,77.95-69.07,14.79-13.71,29.22-27.79,44.23-42.06,5.37,4.82,10.07,10.15,15.22,15,18.53,17.47,35.91,36.1,54.51,53.49,20.53,19.19,40.42,39.1,62.98,56.03,13.88,10.42,29.51,17.13,46.02,21.96,18.94,5.54,38.07,10.4,56.99,16.03,6.17,1.83,12.07,4.55,18.5,5.5" style="fill: none; stroke: #000; stroke-linecap: round; stroke-linejoin: round; stroke-width: 2px;"/>
        <path d="M133.5,64c2.39,5.5,6.79,9.57,10.6,13.91,33.65,38.3,68.71,75.25,106.97,109.01,13.52,11.93,27.82,23,44.43,30.59,12.21,5.57,25.15,8.93,38.02,12.44,13.9,3.79,27.56,8.35,41.43,12.27,2.4.68,4.84.04,7.07,1.26,5.26,2.88,6.92,8.25,4.41,15.24-18.07-5.89-36.51-10.54-54.94-15.15-16.87-4.21-33.78-8.21-50.49-13.06-4.48-1.3-8.63-3.5-12.88-5.28-2.35-.98-3.8-4.17-6.52-5.88-10-6.27-19.7-13-28.62-20.82-16.78-14.73-34.78-28.11-50.38-44.12-15.47-15.87-30.85-31.85-45.76-48.86-11.75,9.81-23.92,18.86-34.84,29.44-8.94,8.66-19.39,15.56-28.43,24.08-8.68,8.18-17.62,16.07-26.67,23.8-5.22,4.46-10.37,9.08-15.19,13.83-9.1,8.96-19.21,16.76-28.2,25.8-1.12,1.13-2.24,2.22-1.99,4.01" style="fill: none; stroke: #000; stroke-linecap: round; stroke-linejoin: round; stroke-width: 2px;"/>
        <path d="M868.5,55.5c10.27,2,21.04,12.52,22.49,24.5.26,2.17-.23,4.19-1.59,5.9,10.33,10.9,8.98,23.7,1.36,33.39,2.82,2.39,4.99,5.43,5.15,9.21.17,3.77-1.96,7.1-4.04,9.91-3.66,4.96-6.08,9.58-4.07,16.15,1.22,3.97-.77,8.02-2.66,12.01-6.35,13.48-18.64,20.29-30.21,27.84-8.07,5.27-17.64,5.66-26.94,6.02-7.99.31-16.01.28-24-.43" style="fill: none; stroke: #000; stroke-linecap: round; stroke-linejoin: round; stroke-width: 2px;"/>
        <path d="M5.5,241.5H1.44c.4,9-.32,17.98.48,27.01.59,6.63.2,13.33.43,20,.29,8.49.93,16.98.67,25.5-.35,11-.07,22.06.71,32.98.96,13.34,1.61,26.76,3.71,40.02.32,2.04.24,4.2-.45,6.24" style="fill: none; stroke: #000; stroke-linecap: round; stroke-linejoin: round; stroke-width: 2px;"/>
        <path d="M225,193.5c-1.97.5-3.94,1.08-6,.99-8.34-.34-16.66.47-25,.53-19.52.15-39,1.47-58.5,1.7-6.15.07-12.35-.04-18.49.36-7.85.51-15.66,1.72-23.51,2.37-8.15.67-16.14,2.56-24.51,1.71-7.77-.79-15.67-.03-23.48.84" style="fill: none; stroke: #000; stroke-linecap: round; stroke-linejoin: round; stroke-width: 2px;"/>
        <path d="M267,226.5c-1.99,1.76-2.11,4.11-1.99,6.5.37,7.16-.48,14.34.44,21.51.34,2.62.09,5.33.05,7.99-.49,30.03,1.03,60.01,2.13,90,.45,12.17.89,24.38,2.37,36.51-2.36,4.68-7.22,4.52-10.99,4.31-18.19-1.01-36.34,1-54.51.19-1.68-.07-3.4.3-5-.5" style="fill: none; stroke: #000; stroke-linecap: round; stroke-linejoin: round; stroke-width: 2px;"/>
        <path d="M186,556.5c10.32,4.21,20.54,8.99,31.1,12.16,14.7,4.41,28.94,10.15,43.77,14.31,14.67,4.12,29.76,6.81,44.14,12,8.77,3.16,17.99,4.7,26.94,7.21,1.92.54,4.13-1.78,5.55.81" style="fill: none; stroke: #000; stroke-linecap: round; stroke-linejoin: round; stroke-width: 2px;"/>
        <path d="M951.5,361.5c-9.3-2.97-18.96-4.21-28.5-6-14.95-2.8-29.9-5.59-45-7.49-12.98-1.63-25.96-3.33-38.98-4.67-10-1.03-19.98-2.18-30.02-2.84" style="fill: none; stroke: #000; stroke-linecap: round; stroke-linejoin: round; stroke-width: 2px;"/>
        <path d="M834.5,153c-12.02-4.01-30.35,3.48-35.5,14.5-.84,1.8-.87,3.75-.21,5.48,3.76,9.86,3.8,20.27,4.09,30.52.43,15.49.07,31-.31,46.5-.39,15.75,2.32,31.33,3.36,47,.53,7.98.59,16.02.8,24,.23,8.35,1.12,16.66,1.52,24.98.64,13.34,1.71,26.68,2.68,40.02.23,3.11,1.44,5.72,2.49,8.52,2.67,7.08,9.4,10.61,16.58,8.51,3.33-.98,6.77.2,9.94.76,2.19.39,4.39.32,6.55.71" style="fill: none; stroke: #000; stroke-linecap: round; stroke-linejoin: round; stroke-width: 2px;"/>
        <path d="M259,394c-2.99,3.37-7.22,1.76-10.5,1.75-25.46-.05-49.39,5.42-72.59,16.06-21.38,9.8-42.26,20.33-61.82,33.33-4.44,2.95-8.9,2.26-13.06,1.65-8.34-1.22-16.78-.04-25.03-1.79" style="fill: none; stroke: #000; stroke-linecap: round; stroke-linejoin: round; stroke-width: 2px;"/>
        <path d="M388.5,443c3.53-3.16,7.94-5,11.12-8.9,10.19-12.55,4.06-29.57-8.54-34.29-8.47-3.17-16.41-3.6-24.55-.25-8.58,3.53-11.6,11.16-13.52,19.45-1.1,4.77-1.47,9.26.83,14.08,1.97,4.12,4.58,7.07,8.69,8.35,7.85,2.45,15.83,4.23,24.56,1.18,5.48,4.49,12.99,4.62,19.94,6.3,5.9,1.42,11.96,2.23,17.95,3.25,2.01.34,5.57.58,4.98,4.34-.56,3.52-3.01,5.28-6.45,4.96-9.96-.93-19.83-2.36-28.5-7.95-1.99-1.28-3.9-2.87-6.5-1.5" style="fill: none; stroke: #000; stroke-linecap: round; stroke-linejoin: round; stroke-width: 2px;"/>
        <path d="M379.5,242.5c.05-1.79-1.15-2.55-2.46-3.55-10.69-8.22-20.97-16.88-30.63-26.35-16.36-16.04-32.76-32.23-51.55-45.39-13.42-9.39-26.74-18.9-39.84-28.72-11.79-8.84-25.05-15.25-37.52-22.98-24.36-15.11-48.41-30.71-71.93-47.1-2.27-1.58-4.18-3.91-6.61-5.33-2.51-1.47-5.13-.94-7.46.92-17.28,13.79-33.16,29.12-49.01,44.49-15.88,15.39-32.51,29.94-49.96,43.55-7.64,5.96-14.65,12.64-21.54,19.46-3.46,3.43-8.4,5.55-9.48,11.02" style="fill: none; stroke: #000; stroke-linecap: round; stroke-linejoin: round; stroke-width: 2px;"/>
        <path d="M668,725c-2.02-4.94-7.21-5.61-11.06-7.9-19.26-11.5-39.39-21.43-60.52-28.88-11.83-4.18-23.26-9.21-34.94-13.66-13.63-5.2-26.97-11.09-40.51-16.49-25.28-10.08-50.35-20.75-76.95-27.15-7.73-1.86-15.19-4.84-23.02-6.41" style="fill: none; stroke: #000; stroke-linecap: round; stroke-linejoin: round; stroke-width: 2px;"/>
        <path d="M682,441c.98,1.49,2.24,1.1,3.5.49,4.08-1.99,7.21-8.02,6.5-12.49-.67-4.22-6.08-8.67-11.5-8.95-6.83-.36-13.79-.67-19.93,3.07-1.26.77-2.26.72-3.04.32-6.24-3.22-11.27-1.53-15.52,3.57-1.72,2.06-3.9,2.71-6.5,3.07-4.77.65-8.55,2.95-9.95,7.94-.15.53-.42,1.01-.61,1.46-4.18,9.99-2.94,13.26,7.09,17.96.43.2.83.83,1.47.56" style="fill: none; stroke: #000; stroke-linecap: round; stroke-linejoin: round; stroke-width: 2px;"/>
        <path d="M746.5,164c6.82.66,13.7-1.23,20.5.5,6.05,1.54,11.48,4.26,16.55,7.93,2.42,1.75,3.57,3.75,3.44,6.57-.44,9.16.55,18.32-.75,27.53-.58,4.11-.18,8.67.32,12.96,1.93,16.65.61,33.34.89,50.01.24,14.33.45,28.68-.07,42.99-.44,12.19-.97,24.37-2.65,36.54-1.67,12.1-2.75,24.32-4.22,36.47-.47,3.87-1.34,7.68-2.13,11.47-.7,3.37-2.62,5.74-6.19,7.83-5.7,3.34-10.79,7.21-17.66,8.33-7,1.15-14.04,2.1-21.02,3.36" style="fill: none; stroke: #000; stroke-linecap: round; stroke-linejoin: round; stroke-width: 2px;"/>
        <path d="M353.5,250c-1.43,2.5.11,5,.1,7.5-.1,17.87-2.24,35.66-2.47,53.5-.15,11.52-1.91,22.98-1.06,34.49.27,3.74-2.15,7.26-.56,11" style="fill: none; stroke: #000; stroke-linecap: round; stroke-linejoin: round; stroke-width: 2px;"/>
        <path d="M834.75,516.5c7.46.52,14.94,1.25,22.24-1.02,9.29-2.89,17.63-7.61,24.46-14.52,18.59-18.8,12.42-44.42-9-55.88-9.12-4.88-18.81-7.51-29.5-5.28-2.93.61-6.26-.2-9.48.63-5.11,1.33-9.29,4.86-14.06,6.31-7.77,2.36-11.42,8.05-14.9,14.28-8.72,15.63-1.49,34.99,11.47,44.99,5.16,3.98,11.02,6.59,17.01,8.99" style="fill: none; stroke: #000; stroke-linecap: round; stroke-linejoin: round; stroke-width: 2px;"/>
        <path d="M439.5,404.5c1.67-.67,3.32-.64,5,0,3.91,1.46,5.58-.69,7.07-3.96,2.07-4.55.28-8.81-.74-12.99-.53-2.17-.61-4.43-1.51-6.51,4.91-4.32,10.03-8.26,13.13-14.22,12.88,3.17,25.59,6.33,37.6,12.1,11.61,5.58,24.23,7.74,36.93,5.91,12.35-1.78,24.86-2.79,37.03-5.81" style="fill: none; stroke: #000; stroke-linecap: round; stroke-linejoin: round; stroke-width: 2px;"/>
        <path d="M409.5,650c.06-1.18-.16-2.38.49-3.5,6.78-11.56,5.88-23.96,4.06-36.5-.58-3.97-1.63-7.91-.91-11.82-5.12-.68-9.93.66-14.93-.74-2.65,9.48-4.74,19.17-9.17,28.09-1.79,3.61-4.07,6.81-6.41,10.07-3.51,4.88-7.68,5.02-12.62,3.41-6.42-2.09-12.75-4.41-19.03-6.93-5.28-2.12-10.9-4.25-16.47-4.36-10.53-.2-20.52,2.45-26.85,11.88-1.67,2.49-3.05,5.88-1.69,9.42.66,1.73,1.04,3.65.05,5.48" style="fill: none; stroke: #000; stroke-linecap: round; stroke-linejoin: round; stroke-width: 2px;"/>
        <path d="M464,363.5c8.32.13,16.2,2.52,23.98,5.05,12.61,4.1,25.46,4.49,38.52,3.49,12.16-.93,24.27-2.57,36.5-2.55" style="fill: none; stroke: #000; stroke-linecap: round; stroke-linejoin: round; stroke-width: 2px;"/>
        <path d="M222.5,190.5c-4.26,1.15-8.7,1.47-13,1.39-16.86-.32-33.66.98-50.5,1.24-9.5.14-19.05.57-28.5,1.87" style="fill: none; stroke: #000; stroke-linecap: round; stroke-linejoin: round; stroke-width: 2px;"/>
        <path d="M197.5,394c-.13,3.75-1.81,6.13-5.48,7.55-21.39,8.29-42.02,18.24-61.96,29.55-6.89,3.91-13.72,8.05-20.06,12.9" style="fill: none; stroke: #000; stroke-linecap: round; stroke-linejoin: round; stroke-width: 2px;"/>
        <path d="M833.5,517c-6.72,4.54-10.25,11.46-13.46,18.52-3.74,8.22-7.51,16.46-9.05,25.48-.3,1.74.11,3.47.63,4.96.6,1.75,2.73,2.16,4.38,1.96,2.69-.32,3.59-2.69,3.96-4.93,1.21-7.4,3.07-14.64,6.13-21.45,2.26-5.02,5.35-9.69,7.71-14.64,1.26-2.65,2.95-5.6,2.71-8.9" style="fill: none; stroke: #000; stroke-linecap: round; stroke-linejoin: round; stroke-width: 2px;"/>
        <path d="M108,448c-3.48,6.4-4.22,13.6-6.13,20.46-1.16,4.2-.46,8.4-1.3,12.55-.86,4.28,1.31,8.04,3.48,11.45,9.39,14.77,21.39,27.08,35.39,37.62,7.08,5.33,13.45,11.58,20.52,16.98,1.63,1.25,3.4,2.25,5.05,3.44" style="fill: none; stroke: #000; stroke-linecap: round; stroke-linejoin: round; stroke-width: 2px;"/>
        <path d="M784.5,342.5c-14.08,1.02-28.03,3-42.02,4.88-10.84,1.46-21.61,3.41-32.48,4.68-4.67.55-9.24,1.96-14.01,1.94" style="fill: none; stroke: #000; stroke-linecap: round; stroke-linejoin: round; stroke-width: 2px;"/>
        <path d="M641,480.5c-12.42,8.12-18.44,21.38-26.48,33.02-1.07,1.54-.56,3.32-.27,5.23,4.61.77,7.69-.53,9.79-4.73,5.34-10.65,10.32-21.51,18.35-30.61,2.18-2.47-.97-4.78-2.5-6.31-3.58-3.58-5.73-7.56-6.46-12.59-.94-6.43-.34-7.17,5.51-9.62,4.45-1.87,9.21-2.77,13.55-4.89" style="fill: none; stroke: #000; stroke-linecap: round; stroke-linejoin: round; stroke-width: 2px;"/>
        <path d="M428,361c-6.65-1.08-13.39-1.5-20.03-2.88-3.55-.74-7.31-.56-10.99-.98-14.6-1.64-29.31-1.11-43.98-1.15-1.26,0-2.52-.15-3.51.99-7.75,8.93-18.68,12.79-29.09,16.76-13.94,5.31-27.75,11.01-41.91,15.74-2.92.98-5.8,2.46-9,1.01" style="fill: none; stroke: #000; stroke-linecap: round; stroke-linejoin: round; stroke-width: 2px;"/>
        <path d="M591.5,687.5c1.13,3,4.18,3.41,6.53,4.42,22.23,9.53,43.25,21.53,65.06,31.89,27.12,12.88,52.4,28.91,78.37,43.76,2.43,1.39,4.72.51,7.04.92" style="fill: none; stroke: #000; stroke-linecap: round; stroke-linejoin: round; stroke-width: 2px;"/>
        <path d="M690,164.5c.23,8.67,3.55,13.28,12,16.49,3.72,1.41,7.51,2.77,11.5,2.93,2.09.08,2.88,1.4,4,2.58,5.64,5.98,11.55,11.6,19.49,14.51,6.32,2.31,12.71,3.56,19.51,2.57,2.91-.42,5.76-.2,8.56,1.82,6.16,4.44,13.03,4.19,19.93,1.6" style="fill: none; stroke: #000; stroke-linecap: round; stroke-linejoin: round; stroke-width: 2px;"/>
        <path d="M248.5,92c9.38-2.11,19-2.02,28.51-2.91,4.81-.45,9.62-1.42,14.49-1.06,1.01.07,1.87-.95,3.03-.06,2.77,2.11,5.66,12.52,3.94,15.51-2.34,4.06-3.08,8.57-3.38,13.03-.93,13.64-.52,27.33-.6,40.99-.02,3.02,1.93,5.91.52,9" style="fill: none; stroke: #000; stroke-linecap: round; stroke-linejoin: round; stroke-width: 2px;"/>
        <path d="M694.5,294c-.13-3.29.78-6.93-3-9-2.73.27-1.97,4.03-4.5,4.5-2.47-.85-2.22-6.1-6.56-3.98.53,1.61.53,3.35,1.21,4.86-2.33,1.65-3.23-.42-4.69-1.34-4.09-2.59-7.6-.44-8.03,4.45-.38,4.29,1.74,7.76,3.32,11.64-4.5,1.48-8.61-.31-12.76-.68-10.05-.9-18.31,5.62-20.09,12.02-1.81,6.51,1.41,11.76,8.09,12.01,8.01.3,15.99-.6,24-.53,3.92.03,5.66,1.58,4.44,5.02-2.84,8-4.37,16.33-6.5,24.5-.59,2.27-.24,4.35.06,6.52" style="fill: none; stroke: #000; stroke-linecap: round; stroke-linejoin: round; stroke-width: 2px;"/>
        <path d="M377.5,445c1.08,5.27-1.92,8.8-4.95,12.54-7.47,9.2-16.14,17.01-26.07,23.42-1.48.96-2.53,2.15-3.55,3.35.86,1.98,1.89,3.64,3.29,5.46,7.13-7.95,17.39-12.12,24.21-20.34,2.72-3.28,7.32-5.39,7.54-10.43.09-1.99.44-4.06-.46-6" style="fill: none; stroke: #000; stroke-linecap: round; stroke-linejoin: round; stroke-width: 2px;"/>
        <path d="M735,29c-7.4-.86-12.77,2.21-16.51,8.5-4.61,7.75-10.6,14.88-10.97,24.5-.08,2.06-1.88,2.15-3.03,2.99-2.79,2.03-5.34,4.39-7.43,7.06-3.42,4.39-2.69,10.28,1.43,15.95" style="fill: none; stroke: #000; stroke-linecap: round; stroke-linejoin: round; stroke-width: 2px;"/>
        <path d="M590.5,362.5c.35-.62-.7-1.62.5-1.99,8.29-2.56,10.3-4.26,9.97-9-.49-6.84-3.42-9.13-10.99-11.93-4.07-1.5-8.45-.66-12.45.52-6.27,1.86-8.39,11.3-4,16.88,1.16,1.47,2.65,2.68,3.97,4.02" style="fill: none; stroke: #000; stroke-linecap: round; stroke-linejoin: round; stroke-width: 2px;"/>
        <path d="M288.5,89c.85,4.17.2,8-1.35,12.06-1.92,5.02-1.98,10.58-2.08,15.94-.22,12.33-.07,24.67-.07,37,0,1.85.19,3.71-.49,5.5" style="fill: none; stroke: #000; stroke-linecap: round; stroke-linejoin: round; stroke-width: 2px;"/>
        <path d="M67.5,396.5c13.01-.12,26,.39,39,.94,7.32.31,14.66,0,22,.09,1.66.02,3.42-.6,5,.46" style="fill: none; stroke: #000; stroke-linecap: round; stroke-linejoin: round; stroke-width: 2px;"/>
        <path d="M522,473.5c6.07-3.41,8.92-8.71,7.91-15.49-1.09-7.22-5.56-11.02-12.83-13.24-10.87-3.33-20.6.61-25.02,9.25-1.16,2.27-2.25,5.18-1.39,7.42,2.04,5.35-.29,8.49-4.11,11.61-2.73,2.22-5.04,4.95-7.54,7.45" style="fill: none; stroke: #000; stroke-linecap: round; stroke-linejoin: round; stroke-width: 2px;"/>
        <path d="M793.5,76.5c.5,14.25-1.73,28.33-2.71,42.49-.33,4.78-.29,9.88-2.29,14.51" style="fill: none; stroke: #000; stroke-linecap: round; stroke-linejoin: round; stroke-width: 2px;"/>
        <path d="M393,613c-6.9-1.72-14.02-1.8-21.01-2.93-10.09-1.62-20.07-3.81-29.91-6.37-2.6-.67-3.76.47-5.58.79" style="fill: none; stroke: #000; stroke-linecap: round; stroke-linejoin: round; stroke-width: 2px;"/>
        <path d="M670,489c-.78,5.42,1.37,10.76,4.32,14.23,3.75,4.4,6.62,9.32,10.07,13.86,1.79,2.36,3.98,4.05,5.8,6.12,3.49-1.53,2.76-4.37,1.71-6.14-6.12-10.4-10.95-21.82-21.83-28.66-.93-.58-2.2-2.14-1.56-3.9" style="fill: none; stroke: #000; stroke-linecap: round; stroke-linejoin: round; stroke-width: 2px;"/>
        <path d="M660,358c-6.01-.06-11.68,2.07-17.46,3.21-9.48,1.86-18.99,3.39-28.52,4.95-3.15.51-6.9-.54-9.52,2.35" style="fill: none; stroke: #000; stroke-linecap: round; stroke-linejoin: round; stroke-width: 2px;"/>
        <path d="M964.5,361.5c-6.79,5.5-12.63,11.64-16.07,19.97-6.05,14.66.69,26.75,13.6,30.42,3.49.99,7.29,1.18,10.97,1.61" style="fill: none; stroke: #000; stroke-linecap: round; stroke-linejoin: round; stroke-width: 2px;"/>
        <path d="M991,366.5c2.83-3.9,7.89-4.95,10.95-1.95,2.08,2.05,2.67,4.59.06,6.95-1.76,1.59-3.87,2.75-5.7,4.69,4.23,12.15.5,22.53-8.39,31.21-2.99,2.92-6.97,5.1-11.41,4.98-2.6-.07-3.68,1.51-4.43,3.13-4.11,8.85-10.22,16.31-16.14,23.68.43,1.78,1.11,3.12,2.08,4.28,1.7,2.03,3.3,1.04,4.46-.52,3.52-4.7,7.31-9.24,9.96-14.51.99-1.97,2.57-3.14,3.87-4.64,2.47-2.86,3.55-6.79,2.2-10.82" style="fill: none; stroke: #000; stroke-linecap: round; stroke-linejoin: round; stroke-width: 2px;"/>
        <path d="M133.5,399c-13.82,4.62-28.07,7.75-42.03,11.91-4.15,1.23-7.85,3.41-11.97,4.59" style="fill: none; stroke: #000; stroke-linecap: round; stroke-linejoin: round; stroke-width: 2px;"/>
        <path d="M176.5,535c-.17,10.52.73,21.08-1.59,31.44,6.08,4.08,12.63,3.18,14.76-2.38-4.76-1.26-5.24-4.48-4.84-9.08.63-7.31.56-14.75-1.32-21.98" style="fill: none; stroke: #000; stroke-linecap: round; stroke-linejoin: round; stroke-width: 2px;"/>
        <path d="M866,515.5c2.22,10.58,7.82,19.63,13.63,28.42,4.04,6.12,7.94,12.42,13.26,17.69,1.74,1.72,3.37,3.11,5.88,3.97,3.3-2.77,2.85-6.32,1.16-9.55-3.57-6.8-8.55-12.66-13.46-18.51-5.41-6.44-11.11-12.65-15.91-19.56-1.47-2.12-4.21-2.36-5.55-4.46" style="fill: none; stroke: #000; stroke-linecap: round; stroke-linejoin: round; stroke-width: 2px;"/>
        <path d="M402,599c1.08,14.42-5.02,26.65-12.08,38.45-3.57,5.95-9.15,9.02-16.42,8.05" style="fill: none; stroke: #000; stroke-linecap: round; stroke-linejoin: round; stroke-width: 2px;"/>
        <path d="M68,392.5c20.97,1.86,41.99,1.38,63,1.57,3.49.03,7.16-1.08,10.5.93" style="fill: none; stroke: #000; stroke-linecap: round; stroke-linejoin: round; stroke-width: 2px;"/>
        <path d="M151.5,308c.59,10.83-.02,21.7.36,32.49.27,7.69.18,15.34.21,23.01.04,9.34-.91,18.66-.57,28" style="fill: none; stroke: #000; stroke-linecap: round; stroke-linejoin: round; stroke-width: 2px;"/>
        <path d="M197.5,452.5c2.62.3,2.28-1.78,1.91-2.97-.65-2.06-1.86-3.94-3.33-5.51-1.2-.05-2.09.41-3.13.86-3.01,1.3-5.83,1.65-9.54.4-8.78-2.96-19.36,3.04-23.35,12.26-1.05,2.44-1.69,3.99-5.05,4.17-5.02.28-8.63,8.14-6.51,12.8,1.66,3.64,4.05,3.86,7,1.5" style="fill: none; stroke: #000; stroke-linecap: round; stroke-linejoin: round; stroke-width: 2px;"/>
        <path d="M758.5,70.5c1.28,16.58,10.34,29.84,18.45,43.53,1.23,2.07,3.5,4.03,2.05,6.97" style="fill: none; stroke: #000; stroke-linecap: round; stroke-linejoin: round; stroke-width: 2px;"/>
        <path d="M305,304c2.35-2.17,5.28-1.3,8.5-1.57v48.07" style="fill: none; stroke: #000; stroke-linecap: round; stroke-linejoin: round; stroke-width: 2px;"/>
        <path d="M196,394c-1.06.14-1.68,1.12-3,1.07-14-.56-28,1.48-41.99-.1-1.53-.17-3,1.54-4.5.03" style="fill: none; stroke: #000; stroke-linecap: round; stroke-linejoin: round; stroke-width: 2px;"/>
        <path d="M704.5,89.5c-7.16-2.49-12.86-.46-17.01,6-4.91,7.64-8.71,15.58-8.6,25.01.03,2.78.16,6.12,1.36,7.82,2.63,3.74,2.19,7.31,1.74,11.18-1.08,9.39,3.06,16.92,8.5,24" style="fill: none; stroke: #000; stroke-linecap: round; stroke-linejoin: round; stroke-width: 2px;"/>
        <path d="M193.5,306c-1.28-1.32-2.95-1.14-4.5-.97-11.14,1.17-22.27,2.38-33.5,1.98-1.51-.05-3.04.31-4.5.37-2.29.1-3.54.83-3.48,3.11.27,9.83.25,19.69.23,29.5-.02,9.98,1.49,20-.59,30.03-.96,4.63-.51,9.66-.09,14.46.81,9.13-3.06,10.62-10.11,13.43-.69.28-1.54.9-2.47.58" style="fill: none; stroke: #000; stroke-linecap: round; stroke-linejoin: round; stroke-width: 2px;"/>
        <path d="M310.5,303.5c.02,15.17-.09,30.34.46,45.5.19,5.36-.89,5.92-6.46,4" style="fill: none; stroke: #000; stroke-linecap: round; stroke-linejoin: round; stroke-width: 2px;"/>
        <path d="M861,516.5c6.49,15.93,12.93,31.88,17.51,48.5.3,1.07.54,2.3,1.99,2.5" style="fill: none; stroke: #000; stroke-linecap: round; stroke-linejoin: round; stroke-width: 2px;"/>
        <path d="M838,613.5c1.54-.8,2.88-1.73,3.52-3.49,2.34-6.47,3.6-13.6,2.51-19.92-.94-5.46.25-10.42-.31-16-2.7-1.74-6.93-1.73-8.93-5.43-1.29,1.3-1.83,2.38-1.82,3.85.05,12-.06,24,.1,36,.03,2.44-.34,5.8,3.93,5.5" style="fill: none; stroke: #000; stroke-linecap: round; stroke-linejoin: round; stroke-width: 2px;"/>
        <path d="M801,28.5c-1.54,6.75-1.32,13.73-2.45,20.59-1.15,7.01-2.25,14.24-3,21.42-.19,1.82-.54,3.48-1.55,4.99" style="fill: none; stroke: #000; stroke-linecap: round; stroke-linejoin: round; stroke-width: 2px;"/>
        <path d="M872,54.5c5.34-5.48,4.49-11.72,1.97-17.99-4.59-11.41-12.16-19.76-24.47-23.01" style="fill: none; stroke: #000; stroke-linecap: round; stroke-linejoin: round; stroke-width: 2px;"/>
        <path d="M850.5,116.5c-11.17.24-22.43-1.16-33.09,4.33-4.61,2.38-8.55,5.82-13.41,7.67" style="fill: none; stroke: #000; stroke-linecap: round; stroke-linejoin: round; stroke-width: 2px;"/>
        <path d="M756,140.5c-.26-2.54-2.23-2.13-3.98-2.57-9.76-2.42-19.17-.22-28.49,2.16-4.32,1.1-8.63,1.91-13.02,2.4" style="fill: none; stroke: #000; stroke-linecap: round; stroke-linejoin: round; stroke-width: 2px;"/>
        <path d="M150.5,576c-1.21,2.03-3.23,1.28-5,1.52-13.75,1.84-27.31,4.79-41,6.98" style="fill: none; stroke: #000; stroke-linecap: round; stroke-linejoin: round; stroke-width: 2px;"/>
        <path d="M398.5,485c4.74,11.88,7.15,24.17,6.49,37-.16,3.23-2.17,5.58-3.99,8" style="fill: none; stroke: #000; stroke-linecap: round; stroke-linejoin: round; stroke-width: 2px;"/>
        <path d="M870,569c3,8.07,3.73,16.6,4.91,25.01.67,4.8,1.15,9.66,1.77,14.46.34,2.6-.6,4.17-1.28,6.34-4.56-3.6-4.59-3.59-6.39-12.32-2.06-9.93-3.84-19.92-5.07-30.03-4.75-2.29-13.34-2.06-18.43.53" style="fill: none; stroke: #000; stroke-linecap: round; stroke-linejoin: round; stroke-width: 2px;"/>
        <path d="M674,504.5c-.12,2.33-.51,4.83.1,6.97,2.33,8.11-.53,15.95-3.05,22.87-3.23,8.86-4.56,17.51-4.56,26.66,0,4.05-2.78,6.41-7,6-4.69-.45-9.46-.13-13.97.66-9.7,1.71-19.37.44-29.03.83" style="fill: none; stroke: #000; stroke-linecap: round; stroke-linejoin: round; stroke-width: 2px;"/>
        <path d="M147.5,391c.84,1.48,2.27.98,3.5.99,13.67.06,27.34-.18,41,.48,1.76.09,3.45.1,5,1.03" style="fill: none; stroke: #000; stroke-linecap: round; stroke-linejoin: round; stroke-width: 2px;"/>
        <path d="M112,336.5c.79,7.31,1.03,14.65,1,22-.01,3-1.5,4.49-4.5,4.5-9.68.03-19.34-.28-29-.97-2.99-.21-6-.03-9.49-.03,0-4.99,0-9.99,0-15,0-9.67.14-19.34-.1-29-.06-2.52,1.53-5,.1-7.5" style="fill: none; stroke: #000; stroke-linecap: round; stroke-linejoin: round; stroke-width: 2px;"/>
        <path d="M166,491.5c-5.47-1.78-10.15-.11-12.89,4.56-5.95,10.15-12.11,20.38-11.15,32.94.02.31-.62.66-.96,1" style="fill: none; stroke: #000; stroke-linecap: round; stroke-linejoin: round; stroke-width: 2px;"/>
        <path d="M526.5,472c4.18,9.03,4.4,18.41,2.53,28.01-.31,1.58-1.5,2.76-1.86,4.04-.7,2.45-2.64,2.72-4.18,2.8-1.66.09-2.19-1.97-3.04-3.32-1.82-2.91-1.9-5.86-.97-9.03,1.33-4.57,1.81-9.24,1.53-14-.07-1.26-.22-2.58.99-3.5" style="fill: none; stroke: #000; stroke-linecap: round; stroke-linejoin: round; stroke-width: 2px;"/>
        <path d="M992.5,404.5c2.22,3.72,6.43,5.64,8.51,9.5,3.9,7.23,3.72,15.18,3.88,23.01.05,2.27-.74,4.63-.95,6.99-.22,2.57-.96,5.78-3.48,6.33-5.35,1.17-5.63,5.52-6.34,9.2-1.59,8.25-3.49,16.34-7.04,24.01-.65,1.41.22,3.36-.58,4.96" style="fill: none; stroke: #000; stroke-linecap: round; stroke-linejoin: round; stroke-width: 2px;"/>
        <path d="M646.5,483c-7.45,12-12.13,24.97-14.15,38.98-.31,2.16.12,4.36,1.22,4.85,3.76,1.67,2.92,5.05,2.23,7.11-1.88,5.64-1.61,11.39-1.66,17.07-.03,4.25-1.05,8.31-1.15,12.5" style="fill: none; stroke: #000; stroke-linecap: round; stroke-linejoin: round; stroke-width: 2px;"/>
        <path d="M737,93c6.64,7.67,15.74,11.6,24.51,15.97,6.74,3.36,12.41,8.14,17.94,13.08,3.56,3.18,4.83,9.86,3.03,12.94-.04.07-.35.07-.48,0-.2-.12-.34-.32-.51-.49" style="fill: none; stroke: #000; stroke-linecap: round; stroke-linejoin: round; stroke-width: 2px;"/>
        <path d="M67.5,227c6.15-2.26,12.72-1.31,18.99-2.54,4.32-.85,8.73.11,13.56-1.09,1.33,17.44.83,34.79.97,52.03-11.1,2.19-21.89.9-32.83,2.67-1.62-17.18-.75-33.91-1.69-50.57" style="fill: none; stroke: #000; stroke-linecap: round; stroke-linejoin: round; stroke-width: 2px;"/>
        <path d="M834,527.5c1.78,2.31,1.17,5.05.91,7.49-.82,7.67-.24,15.34-.38,23.01-.06,3.33,2.06,6.58.46,10" style="fill: none; stroke: #000; stroke-linecap: round; stroke-linejoin: round; stroke-width: 2px;"/>
        <path d="M191.5,310.5c-.05,16.01.37,32.02-1,48" style="fill: none; stroke: #000; stroke-linecap: round; stroke-linejoin: round; stroke-width: 2px;"/>
        <path d="M190.5,489c6.31,11.28,13.47,22.07,19.43,33.54,1.06,2.03,2.5,4.38,1.07,6.96" style="fill: none; stroke: #000; stroke-linecap: round; stroke-linejoin: round; stroke-width: 2px;"/>
        <path d="M997,410.5c-1.64,3.38,1.54,5.59,2.11,8.48,1.66,8.44.89,16.7-.55,25.03-.37,2.15-.74,4.32-1.07,6.49" style="fill: none; stroke: #000; stroke-linecap: round; stroke-linejoin: round; stroke-width: 2px;"/>
        <path d="M328,306.5c-.75.86-1.03,1.84-1.02,3,.04,9.17.04,18.33.01,27.5,0,3.4.84,5.84,5.42,4.82,1.06-8.78.43-17.81.57-26.82.04-2.72-.06-5.43,1.02-8" style="fill: none; stroke: #000; stroke-linecap: round; stroke-linejoin: round; stroke-width: 2px;"/>
        <path d="M841.5,66.5c-3.3,8.24-10.06,13.52-16.55,18.94-3.1,2.6-5.51,5.56-7.48,9.04-4.76,8.46-10.37,16.7-12.75,26.07-2.95,11.63-8.43,22.74-8.49,34.94-.02,3.21-1.28,6.84.77,10" style="fill: none; stroke: #000; stroke-linecap: round; stroke-linejoin: round; stroke-width: 2px;"/>
        <path d="M150.5,141c-3.67-1.81-7.31.27-11.01.14-4.65-.16-9.36.58-14.5,1.1,0,10.43,0,20.6,0,31.02,8.3-1.45,15.64-2.42,23-3.21,1.6-.17,2.5-1.08,3.5-2.05" style="fill: none; stroke: #000; stroke-linecap: round; stroke-linejoin: round; stroke-width: 2px;"/>
        <path d="M40,438c-7.88,7.15-17.63,11.39-26.54,16.94-4,2.49-8.52,4.17-11.96,7.56" style="fill: none; stroke: #000; stroke-linecap: round; stroke-linejoin: round; stroke-width: 2px;"/>
        <path d="M327.5,303.5c1.37,3.82,5.1,2.06,7.57,2.77,4.94,1.42,5.36,1.54,4.99,6.73-.67,9.49-1.25,18.99-1.56,28.5" style="fill: none; stroke: #000; stroke-linecap: round; stroke-linejoin: round; stroke-width: 2px;"/>
        <path d="M403.5,555.5c1.38.58,2.29,1.84,3.99,2.06,6.25.8,9.73,5.15,11.94,10.47,2.14,5.17,5.9,7.99,11.06,9.5,3.36.98,6.89,1.91,7.77,6.59-2.08,5.02-6.33,6.51-12.26,6.58-6.49.07-12.98,1.15-19.5.31" style="fill: none; stroke: #000; stroke-linecap: round; stroke-linejoin: round; stroke-width: 2px;"/>
        <path d="M199,453c.85,1.24.89,2.83,1.98,4.02,8.78,9.63,3.13,27.4-10.96,31.54-4.01,1.18-8.06,1.27-12,.8-3.4-.41-6.29,1.37-9.52,1.14-2.16-.15-2.58,2.02-2.85,3.04-.79,3.04-2.84,5.28-4.15,7.96" style="fill: none; stroke: #000; stroke-linecap: round; stroke-linejoin: round; stroke-width: 2px;"/>
        <path d="M293.5,358c2.45.25,4.18-1.64,6.45-2.21,4.15-1.04,4.82-4.85,4.57-8.79-.74-11.82-.33-23.67-.62-35.5-.07-2.98,2.04-6.46-.5-8.9-2.19-2.11-5.58-.73-8.39-1.19-1.41-.23-3.12.32-3.94-.07-4.74-2.24-4.24,1.04-4.03,3.65.81,10,.11,20.01.53,30,.29,6.84.49,13.67.38,20.5-.03,2.08.2,3.73,2.55,3.96,1.6.15,2.68-.64,1.98-2.45-2.53-6.53-1.12-13.33-1.48-20.01" style="fill: none; stroke: #000; stroke-linecap: round; stroke-linejoin: round; stroke-width: 2px;"/>
        <path d="M490.5,466.5c-6.11,3-10.8,7.48-14.43,13.35,1.66,1.59,2.31,3.61,4.71,4.28,6.04-3.46,10.75-8.7,15.72-13.63" style="fill: none; stroke: #000; stroke-linecap: round; stroke-linejoin: round; stroke-width: 2px;"/>
        <path d="M150.5,575c-3.4-2.37-7.19-.81-10.47-.3-8.82,1.37-17.76,1.65-26.53,3.3" style="fill: none; stroke: #000; stroke-linecap: round; stroke-linejoin: round; stroke-width: 2px;"/>
        <path d="M200.5,217c-10.5.55-20.98,1.24-31.5,1.6-10.67.36-21.35.27-32.46.46,1.44,21.44-.68,42.5,1.28,63.58,10.59-2.03,20.92-.36,30.67-3.63" style="fill: none; stroke: #000; stroke-linecap: round; stroke-linejoin: round; stroke-width: 2px;"/>
        <path d="M646.5,532c-2.5,7.3-3.98,14.84-4.41,22.51-.22,3.95-1.08,7.04-5.09,8.49-2.78,1.01-5.39,2.59-8.5,2.5" style="fill: none; stroke: #000; stroke-linecap: round; stroke-linejoin: round; stroke-width: 2px;"/>
        <path d="M647.5,486.5c-5.29,11.08-6.77,23.14-8.93,35.01-.35,1.92-.09,3.92-1.57,5.49" style="fill: none; stroke: #000; stroke-linecap: round; stroke-linejoin: round; stroke-width: 2px;"/>
        <path d="M386,499.5c-2.56,5.2-2.32,11.07-3.92,16.52-1.58,5.37-2.2,11-5.04,16-.93,1.64-.51,3.63-.54,5.48" style="fill: none; stroke: #000; stroke-linecap: round; stroke-linejoin: round; stroke-width: 2px;"/>
        <path d="M376.5,486.5c-1.94,4.86-1.02,10.03-1.33,15.01-.47,7.64-1.89,15.02-4.84,21.92-1.76,4.12-2.37,7.88-1.33,12.07" style="fill: none; stroke: #000; stroke-linecap: round; stroke-linejoin: round; stroke-width: 2px;"/>
        <path d="M247,91c3.33,6.25,5.84,12.82,5.43,20-.47,8.18,1.52,16.34.07,24.5" style="fill: none; stroke: #000; stroke-linecap: round; stroke-linejoin: round; stroke-width: 2px;"/>
        <path d="M673.5,329c-4.64,9.64-6.28,20.02-7.46,30.5-.19,1.68-.5,3.55.96,5" style="fill: none; stroke: #000; stroke-linecap: round; stroke-linejoin: round; stroke-width: 2px;"/>
        <path d="M786,172.5c3.5-13.66-.8-21.21-14.44-27.62-8.14-3.82-16.53-3.61-25.05-3.94-5.66-.22-11.12.55-16.49,2.1-3.82,1.1-7.52,2.58-9.51,6.46" style="fill: none; stroke: #000; stroke-linecap: round; stroke-linejoin: round; stroke-width: 2px;"/>
        <path d="M287,98.5c-11.84-.54-23.69-1.42-35.5.5" style="fill: none; stroke: #000; stroke-linecap: round; stroke-linejoin: round; stroke-width: 2px;"/>
        <path d="M838,572.5c-2.91,4.06-1.51,8.71-1.35,12.99.27,7.01.35,14.01.3,21.01-.02,3.03.82,5.98.55,9" style="fill: none; stroke: #000; stroke-linecap: round; stroke-linejoin: round; stroke-width: 2px;"/>
        <path d="M59,408.5c.67,5.43,3.67,10,5.57,14.97,3.66,9.57,4.57,19.78,7.38,29.54.65,2.26,1.57,4.43,2.04,6.74" style="fill: none; stroke: #000; stroke-linecap: round; stroke-linejoin: round; stroke-width: 2px;"/>
        <path d="M633.25,527c-4.1,2.9-3.23,7.46-3.71,11.5-.91,7.56-1.67,15.16,2.96,22" style="fill: none; stroke: #000; stroke-linecap: round; stroke-linejoin: round; stroke-width: 2px;"/>
        <path d="M202,244c0,11.01,0,22.02,0,32.65-9.24,2.14-17.71,1.34-26.02,2.73-5.56.93-6.92-1.13-4.93-6.37.71-1.87.72-3.8.36-5.5-1.5-6.98.48-14.07-.91-21.02" style="fill: none; stroke: #000; stroke-linecap: round; stroke-linejoin: round; stroke-width: 2px;"/>
        <path d="M290.5,302c1.15,8.65.16,17.34.51,26,.11,2.67-.49,5.38.49,8" style="fill: none; stroke: #000; stroke-linecap: round; stroke-linejoin: round; stroke-width: 2px;"/>
        <path d="M405,655.5c1.85,5,1.42,10.4,2.84,15.54,1.68,6.1,3.1,12.3,4.66,18.46" style="fill: none; stroke: #000; stroke-linecap: round; stroke-linejoin: round; stroke-width: 2px;"/>
        <path d="M684,455c6.91,7.5,4.34,13.15-.52,18.48-9.96,10.92-22.13,13.25-36,9.12-1.57-.47-2.17-2.37-3.97-2.09" style="fill: none; stroke: #000; stroke-linecap: round; stroke-linejoin: round; stroke-width: 2px;"/>
        <path d="M330,306c-1.01,9.49-.25,19-.53,28.5-.05,1.66.59,3.42-.47,5" style="fill: none; stroke: #000; stroke-linecap: round; stroke-linejoin: round; stroke-width: 2px;"/>
        <path d="M656.5,532.5c.38,10.72.2,21.5,2.98,32,.14.53.12,1.14-.48,1.5" style="fill: none; stroke: #000; stroke-linecap: round; stroke-linejoin: round; stroke-width: 2px;"/>
        <path d="M689.5,329c1.96,10.93,2.54,21.93,1.5,33" style="fill: none; stroke: #000; stroke-linecap: round; stroke-linejoin: round; stroke-width: 2px;"/>
        <path d="M45.5,404.5c-.61,7.47-3.16,14.57-4.05,21.99-.44,3.66-1.93,7.66-.69,10.91,1.29,3.37,3.71,7.25,8.91,6.01-1.92,6.29-.56,11.73,1.36,17.08,1.21,3.39,4.14,3.48,6.97,2.96,5.53-1.01,11.09-1.88,16.52-3.41,1.99-.56,2.9-1.75,2.44-3.53-2.69-10.42-2.56-21.42-6.75-31.6-.86-2.1-3.87-3.92-2.21-6.92" style="fill: none; stroke: #000; stroke-linecap: round; stroke-linejoin: round; stroke-width: 2px;"/>
        <path d="M390.5,565c-7.86,7.56-9.22,23.18,2.53,29.95,1.27.73,2.77,1.12,3.97,2.05" style="fill: none; stroke: #000; stroke-linecap: round; stroke-linejoin: round; stroke-width: 2px;"/>
        <path d="M24.5,383.75c3.26.14,2.33-2.75,1.87-3.68-1.92-3.89.27-6.35,2.67-8.52,6.78-6.12,14.31-10,23.97-8.09,12.47,2.47,20.84,19,14.49,29.05-4.94,7.8-17.84,12.45-27.52,10.61-5.76-1.09-10.31-3.83-14.48-7.61-2.36-2.14-5.01-2.72-8-1.5-2.61,1.07-5.77,1.2-7.89.26-2.77-1.22-4.77.04-7.11.24" style="fill: none; stroke: #000; stroke-linecap: round; stroke-linejoin: round; stroke-width: 2px;"/>
        <path d="M71,312.5c11.18.24,22.35-.09,33.5-.99,5.04-.41,5.74.05,5.43,4.99-.35,5.58,2.12,11.09.93,16.47-1.82,8.24.07,16.37-.32,24.53-.05.97-.58,2.14.46,3" style="fill: none; stroke: #000; stroke-linecap: round; stroke-linejoin: round; stroke-width: 2px;"/>
        <path d="M414,600c3.86,3.11,3.51,7.88,4.41,12.02,2,9.3,2.89,18.67-.36,28-1.67,4.77-3.96,8.44-8.98,10.63-4.98,2.18-7.29,6.6-6.59,12.35,1.14,9.42,2.57,18.75,6.53,27.5" style="fill: none; stroke: #000; stroke-linecap: round; stroke-linejoin: round; stroke-width: 2px;"/>
        <path d="M199,245c-.37,10.51.79,20.99.5,31.5" style="fill: none; stroke: #000; stroke-linecap: round; stroke-linejoin: round; stroke-width: 2px;"/>
        <path d="M853.5,163.5c-3.73-2.41-7.83-4.05-11.2-7.29-1.84-1.76-5-3.23-8.93-1.52-3.21,1.4-7.68.59-11.32,1.48-5.63,1.37-11.24,3.33-16,6.88-1.45,1.08-2.85,1.5-4.54,1.45" style="fill: none; stroke: #000; stroke-linecap: round; stroke-linejoin: round; stroke-width: 2px;"/>
        <path d="M386,498.75c1.18-4.47.55-8.48-3.32-11.94-4.1,10.58-3.46,22.14-7.18,32.69" style="fill: none; stroke: #000; stroke-linecap: round; stroke-linejoin: round; stroke-width: 2px;"/>
        <path d="M387,499.5c3.27,5.23,2.5,11.31,3.45,17.01.81,4.88.44,9.99,3.05,14.49" style="fill: none; stroke: #000; stroke-linecap: round; stroke-linejoin: round; stroke-width: 2px;"/>
        <path d="M159.5,502.5c-5.62,3.69-7.15,10.02-10,15.5-2.43,4.66-2.94,10.1-6,14.5" style="fill: none; stroke: #000; stroke-linecap: round; stroke-linejoin: round; stroke-width: 2px;"/>
        <path d="M781.5,44.5c.91,5.4,4.67,9.49,6.6,14.46,2.1,5.41,2.51,11.26,4.9,16.54" style="fill: none; stroke: #000; stroke-linecap: round; stroke-linejoin: round; stroke-width: 2px;"/>
        <path d="M337.5,642.5c-10.08,2.97-20.19,5.15-30.5,1" style="fill: none; stroke: #000; stroke-linecap: round; stroke-linejoin: round; stroke-width: 2px;"/>
        <path d="M401.5,658.5c-6.54,7.19-14.1,13.3-23.06,16.84-12.33,4.88-25.23,7-38.44,3.17-.46-.13-1-.02-1.69-.02-2.92,4.36-.2,10.13-3.3,14.5" style="fill: none; stroke: #000; stroke-linecap: round; stroke-linejoin: round; stroke-width: 2px;"/>
        <path d="M573.5,576.5c-6.76.62-13.37,2.12-20,3.48-3.3.67-6.57,1.63-10,1.52" style="fill: none; stroke: #000; stroke-linecap: round; stroke-linejoin: round; stroke-width: 2px;"/>
        <path d="M171,492c.97,1.63.22,2.99-.47,4.51-3.55,7.87-8.12,15.41-8.04,24.49.02,2.17.03,4.33.01,6.5-.03,4.65-.14,4.72-4.5,2.5" style="fill: none; stroke: #000; stroke-linecap: round; stroke-linejoin: round; stroke-width: 2px;"/>
        <path d="M279.5,628.5c-1.37,6.55.89,12.54,3.11,18.46.5,1.33,1.29,2.52,1.41,4.04.55,7.14,5.04,10.89,11.49,12.44,5.23,1.25,10.57,2.96,15.98.56" style="fill: none; stroke: #000; stroke-linecap: round; stroke-linejoin: round; stroke-width: 2px;"/>
        <path d="M670,329c-4.47,8.33-7.44,17.21-8.93,26.51-.84,5.24.26,10.18,4.55,14.43,2.65-7.15,7.83-6.34,13.4-4.99,5.04,1.22,9.67-1.35,13.83-3.29,2.39-1.11,1.78-5.98,2.08-9.17.75-7.91-1.53-15.64-1.92-23.49" style="fill: none; stroke: #000; stroke-linecap: round; stroke-linejoin: round; stroke-width: 2px;"/>
        <path d="M980,421.5c1.47,8.98.45,18.01.73,26.99.3,9.88-1.19,19.4-2.72,29.01-.23,1.46.43,2.59,1.5,3.49,1.79,1.51,2.93,3.48,3.99,5.51" style="fill: none; stroke: #000; stroke-linecap: round; stroke-linejoin: round; stroke-width: 2px;"/>
        <path d="M864,109c-8.14,1.47-16.34,2.62-24.51,3.96-1.52.25-2.96.27-3.49,2.04" style="fill: none; stroke: #000; stroke-linecap: round; stroke-linejoin: round; stroke-width: 2px;"/>
        <path d="M51,461.5c-9.63,5.05-20.28,7.15-30.5,10.5" style="fill: none; stroke: #000; stroke-linecap: round; stroke-linejoin: round; stroke-width: 2px;"/>
        <path d="M142,220c-1.03,7.48-.62,15.01-.42,22.5.33,12.83.4,25.67.42,38.5" style="fill: none; stroke: #000; stroke-linecap: round; stroke-linejoin: round; stroke-width: 2px;"/>
        <path d="M91.5,313c.1,15.37,1.72,30.66,2.52,46,.06,1.07-.15,2.04-.52,3" style="fill: none; stroke: #000; stroke-linecap: round; stroke-linejoin: round; stroke-width: 2px;"/>
        <path d="M87,225.5c-.4,16.85.87,33.66,1,50.5" style="fill: none; stroke: #000; stroke-linecap: round; stroke-linejoin: round; stroke-width: 2px;"/>
        <path d="M186.5,490.5c.39,2.09,1.02,4.14,2.03,5.99,4.65,8.57,3.98,17.81,3.44,27.01-.19,3.24-2.07,5.26-4.89,7.11-6.2,4.07-12.96,3.16-19.55,2.63-1.6-.13-3.93.15-5.52-1.24" style="fill: none; stroke: #000; stroke-linecap: round; stroke-linejoin: round; stroke-width: 2px;"/>
        <path d="M1024.5,387.5c-1.77-2.41-4.53-1.93-6.97-2.6-6.52-1.76-12.91-3.96-19.53-5.4" style="fill: none; stroke: #000; stroke-linecap: round; stroke-linejoin: round; stroke-width: 2px;"/>
        <path d="M987.5,453c-1.74,9.27-2.45,18.78-6.5,27.5" style="fill: none; stroke: #000; stroke-linecap: round; stroke-linejoin: round; stroke-width: 2px;"/>
        <path d="M159.5,526.5c-.71-6.76.89-13.19,3.05-19.48.83-2.4.01-3.98-1.52-5.66-.65,5.34-3.31,9.92-4.43,15.06-1.12,5.13,1.24,9.79.53,14.3-2.42,1.29-3.91-.6-5.63-.21" style="fill: none; stroke: #000; stroke-linecap: round; stroke-linejoin: round; stroke-width: 2px;"/>
        <path d="M977,424.5c1.44,3.78,1.57,7.68.44,11.48-1.08,3.63.22,7.41-1.29,11.08-.83,2.01,1.88,2.58,3.35,3.44" style="fill: none; stroke: #000; stroke-linecap: round; stroke-linejoin: round; stroke-width: 2px;"/>
        <path d="M71.5,227c.86,5.13.76,10.34.93,15.5.36,11.36.85,22.7,2.07,34" style="fill: none; stroke: #000; stroke-linecap: round; stroke-linejoin: round; stroke-width: 2px;"/>
        <path d="M166.5,219c.99,16.99.19,34.02,1.49,51,.1,1.25-.2,2.58,1.01,3.5" style="fill: none; stroke: #000; stroke-linecap: round; stroke-linejoin: round; stroke-width: 2px;"/>
        <path d="M805.5,136.5c-1.38,5.91-3.87,11.54-4.9,17.52-.53,3.08-2.58,6.2-.6,9.48" style="fill: none; stroke: #000; stroke-linecap: round; stroke-linejoin: round; stroke-width: 2px;"/>
        <path d="M827,486.5c-1.67,3.51-1.41,6.81,1.53,9.47,2.58,2.33,5.83,2.7,8.94,1.46,2.96-1.18,5.63-2.98,5.03-6.93" style="fill: none; stroke: #000; stroke-linecap: round; stroke-linejoin: round; stroke-width: 2px;"/>
        <path d="M843.5,156c1.23-.12,2.27-1.37,3.49-.96,8.91,2.96,18.43,4.2,26.51,9.46" style="fill: none; stroke: #000; stroke-linecap: round; stroke-linejoin: round; stroke-width: 2px;"/>
        <path d="M692.5,295c4.19-1.27,7.48.88,9.91,3.58,5.54,6.16,7.34,13.83,6.49,21.91-.51,4.93-5.47,5.04-8.92,6.46-4.65,1.9-9.63.95-14.48,1.05" style="fill: none; stroke: #000; stroke-linecap: round; stroke-linejoin: round; stroke-width: 2px;"/>
        <path d="M201.5,212.5c.71,10.16.44,20.33.52,30.86-10.29,2.81-21.1,1.21-31.52,3.14" style="fill: none; stroke: #000; stroke-linecap: round; stroke-linejoin: round; stroke-width: 2px;"/>
        <path d="M75,313.5c-.36,14.34.61,28.66.46,43-.02,1.56.65,2.97.54,4.5" style="fill: none; stroke: #000; stroke-linecap: round; stroke-linejoin: round; stroke-width: 2px;"/>
        <path d="M198.5,218c1.02,6.65.23,13.34.52,20,.08,1.83-.54,3.75.48,5.5" style="fill: none; stroke: #000; stroke-linecap: round; stroke-linejoin: round; stroke-width: 2px;"/>
        <path d="M500,474c-2.99,5.42-5.33,11.22-8.62,16.43-2.98,4.72.04,6.19,3.12,8.07" style="fill: none; stroke: #000; stroke-linecap: round; stroke-linejoin: round; stroke-width: 2px;"/>
        <path d="M151.5,156c-8.5.38-16.98,1.14-25.5,1" style="fill: none; stroke: #000; stroke-linecap: round; stroke-linejoin: round; stroke-width: 2px;"/>
        <path d="M592.5,361c3.73,4.11,8.31,7.33,12.03,11.47,1.5,1.67,2.53,3.5,3.58,5.47,1.75,3.27.83,5.1-1.91,6.53-4.27-.81-4.79-5.95-8.71-6.97" style="fill: none; stroke: #000; stroke-linecap: round; stroke-linejoin: round; stroke-width: 2px;"/>
        <path d="M502,476.5c-3.15,6.9-4.17,14.48-6.92,21.53-2.87,7.37.8,14.14,2.97,20.96.28.88,1.35,1.25,1.53,2.5.78,5.38,4.14,6.08,8.96,5.17,2.19-.41,5.46-1.73,6.51,2.63,4.27-4.55,4.69-8.94,3.02-13.81-.17-.49-.53-.87-.6-1.47-.93-7.3-3.75-11.7-12.5-10.32-2.83.45-6.18-2.9-9.45-4.19" style="fill: none; stroke: #000; stroke-linecap: round; stroke-linejoin: round; stroke-width: 2px;"/>
        <path d="M70.5,203c-8.33.83-16.67.83-25,0" style="fill: none; stroke: #000; stroke-linecap: round; stroke-linejoin: round; stroke-width: 2px;"/>
        <path d="M234.5,389.5h-25" style="fill: none; stroke: #000; stroke-linecap: round; stroke-linejoin: round; stroke-width: 2px;"/>
        <path d="M522,500c3.71-6.94,2.22-14.29,1.33-21.48-.2-1.64-1.58-3.7-4.31-4.13-4.67-.73-9.39.17-14.02-.86-1.41-.31-2.65.06-2.49,1.97" style="fill: none; stroke: #000; stroke-linecap: round; stroke-linejoin: round; stroke-width: 2px;"/>
        <path d="M818.5,448c-2.1,5.54-7.14,9.26-9.09,14.97-1.08,3.15-2.6,6.15-2.91,9.53" style="fill: none; stroke: #000; stroke-linecap: round; stroke-linejoin: round; stroke-width: 2px;"/>
        <path d="M211.5,530.5c-3.83-1.66-5.21-5.51-7.45-8.54-3.69-4.98-5.64-11.24-11.05-14.96" style="fill: none; stroke: #000; stroke-linecap: round; stroke-linejoin: round; stroke-width: 2px;"/>
        <path d="M170,247c-7,.15-14.03-.52-20.99.55-2.18.34-4.33.42-6.51.45" style="fill: none; stroke: #000; stroke-linecap: round; stroke-linejoin: round; stroke-width: 2px;"/>
        <path d="M376,536c-11.98.87-23.35,5.7-35.5,5.5" style="fill: none; stroke: #000; stroke-linecap: round; stroke-linejoin: round; stroke-width: 2px;"/>
        <path d="M341,276.5c1.4-3.4.9-6.98,1.03-10.93-2.83-.23-5.41-2.18-9.03-1.25v20.16c2.26.8,3.95.85,5.5-.48" style="fill: none; stroke: #000; stroke-linecap: round; stroke-linejoin: round; stroke-width: 2px;"/>
        <path d="M383,444.5c5.04,9.24,11.46,17.59,17.04,26.48,3.84,6.12,4,6.02-.07,11.57-1.28-.24-2.2-2.49-2.88-1.94-4.03,3.3-10.04,2.24-13.59,6.39" style="fill: none; stroke: #000; stroke-linecap: round; stroke-linejoin: round; stroke-width: 2px;"/>
        <path d="M285.5,654c6.68,5.97,14.52,7.08,23,5.5" style="fill: none; stroke: #000; stroke-linecap: round; stroke-linejoin: round; stroke-width: 2px;"/>
        <path d="M833.5,613c-2.02,1.72-4.23,2.4-6.99,2.6-11.38.83-22.64,2.89-34.01,3.9" style="fill: none; stroke: #000; stroke-linecap: round; stroke-linejoin: round; stroke-width: 2px;"/>
        <path d="M871.5,612.5c-6.28,2.77-13.02,1.01-19.52,1.87-4.25.56-8.6,1.81-12.98.63" style="fill: none; stroke: #000; stroke-linecap: round; stroke-linejoin: round; stroke-width: 2px;"/>
        <path d="M592,365.5c6.49,7.74,5.35,17.54,6.82,26.53.94,5.76-1.66,7.26-7.33,6.02-3.11-.68-6.32-2.19-9.49-.04" style="fill: none; stroke: #000; stroke-linecap: round; stroke-linejoin: round; stroke-width: 2px;"/>
        <path d="M164,533.5c1.57,9.6,2.89,19.24,1.96,29-.29,3.05-1.69,5.95-1.9,9.01-.22,3.14-2.02,3.69-4.56,3.49-2.69-.21-5.34.31-8,.51" style="fill: none; stroke: #000; stroke-linecap: round; stroke-linejoin: round; stroke-width: 2px;"/>
        <path d="M49,417.5c-.79,8.51-1.16,17.01.25,25.5" style="fill: none; stroke: #000; stroke-linecap: round; stroke-linejoin: round; stroke-width: 2px;"/>
        <path d="M631,569.5c-6.16,2.12-12.69,1.5-19.01,2.4-3.43.49-6.94,1.42-10.49.6" style="fill: none; stroke: #000; stroke-linecap: round; stroke-linejoin: round; stroke-width: 2px;"/>
        <path d="M504.5,504.5c1.68,5.78,2.99,11.7,6.02,16.99,1.38,2.42.93,4.97.99,8.1-2.76-.51-5.33.49-8.01.91" style="fill: none; stroke: #000; stroke-linecap: round; stroke-linejoin: round; stroke-width: 2px;"/>
        <path d="M292.5,263.5c-1.09,4.5-.16,9-.66,13.82,5.64.42,10.58,1.44,16.16,1.09,0-8.58,0-17.25,0-25.84-5.24-1.42-10.33-.82-16.02-2.95.19,4.69-.43,9,.52,13.38" style="fill: none; stroke: #000; stroke-linecap: round; stroke-linejoin: round; stroke-width: 2px;"/>
        <path d="M391,459.5c.26,6.17,4.31,11.11,5.57,16.98.29,1.33,1.04,2.57.93,4.02" style="fill: none; stroke: #000; stroke-linecap: round; stroke-linejoin: round; stroke-width: 2px;"/>
        <path d="M753.5,15c-10.97.41-19.74,11.58-16.5,21" style="fill: none; stroke: #000; stroke-linecap: round; stroke-linejoin: round; stroke-width: 2px;"/>
        <path d="M830,536.5c.09,8.21,1.67,16.31,1.99,24.5.06,1.51.19,3.06-.49,4.5" style="fill: none; stroke: #000; stroke-linecap: round; stroke-linejoin: round; stroke-width: 2px;"/>
        <path d="M284.5,649.5c1.78-.35,3.24.63,4.46,1.55,3.01,2.29,6.75,3.34,10.03,3.21,5.61-.22,8.58,1.62,11.16,6.66,5.08,9.91,14.48,14.2,24.86,16.5,1.2.26,1.7,1,2.48,1.58" style="fill: none; stroke: #000; stroke-linecap: round; stroke-linejoin: round; stroke-width: 2px;"/>
        <path d="M278.5,240.5c-11.26-2.07-22.65-1.38-34-1.5" style="fill: none; stroke: #000; stroke-linecap: round; stroke-linejoin: round; stroke-width: 2px;"/>
        <path d="M170,219c-.03,9.01.59,18,1,27" style="fill: none; stroke: #000; stroke-linecap: round; stroke-linejoin: round; stroke-width: 2px;"/>
        <path d="M314.5,668c-2.78,7.46-4.7,15.22-7.93,22.53-.49,1.12-.07,2.64-.07,3.97" style="fill: none; stroke: #000; stroke-linecap: round; stroke-linejoin: round; stroke-width: 2px;"/>
        <path d="M443.5,380.5c-3.86-.88-6.32.78-6.91,4.51-.4,2.54-1.34,4.91-1.76,7.46-.53,3.26-.4,6.01,1.69,8.51,1.87,2.23,3.13,4.53,1.98,7.52" style="fill: none; stroke: #000; stroke-linecap: round; stroke-linejoin: round; stroke-width: 2px;"/>
        <path d="M192.5,308c-6.33.81-12.67.81-19,0" style="fill: none; stroke: #000; stroke-linecap: round; stroke-linejoin: round; stroke-width: 2px;"/>
        <path d="M436.5,384c-6.7-.05-12.9,2.02-19,4.5" style="fill: none; stroke: #000; stroke-linecap: round; stroke-linejoin: round; stroke-width: 2px;"/>
        <path d="M594,399.5c-2.38,9.51-7.69,16.32-17.5,19" style="fill: none; stroke: #000; stroke-linecap: round; stroke-linejoin: round; stroke-width: 2px;"/>
        <path d="M455,345.5c1.94-2.36,2.52-1.49,3.6.96,2.86,6.51,4.12,13.27,4.4,20.29" style="fill: none; stroke: #000; stroke-linecap: round; stroke-linejoin: round; stroke-width: 2px;"/>
        <path d="M873.5,616c-8.9,1.94-17.95,2.22-27,2.5" style="fill: none; stroke: #000; stroke-linecap: round; stroke-linejoin: round; stroke-width: 2px;"/>
        <path d="M61,400c5.15,5.23,11.01,9.65,16.48,14.52,1.72,1.53,4.64,3.2,2.41,5.89-1.98,2.39-5.24,1.56-7.33,0-6.79-5.06-12.44-11.29-17.06-18.41" style="fill: none; stroke: #000; stroke-linecap: round; stroke-linejoin: round; stroke-width: 2px;"/>
        <path d="M829,547.5c-1.73,7.43-3.71,14.91,4,20.5" style="fill: none; stroke: #000; stroke-linecap: round; stroke-linejoin: round; stroke-width: 2px;"/>
        <path d="M306,691.5c-1.96-1.2-3.68.08-5.5.49-7.58,1.72-15.22,3.1-23,3.51" style="fill: none; stroke: #000; stroke-linecap: round; stroke-linejoin: round; stroke-width: 2px;"/>
        <path d="M787.5,391.5c.36,6.11-1.11,12.03-2,18" style="fill: none; stroke: #000; stroke-linecap: round; stroke-linejoin: round; stroke-width: 2px;"/>
        <path d="M715,110c1.73,7.22,7.28,11.92,11.5,17.5" style="fill: none; stroke: #000; stroke-linecap: round; stroke-linejoin: round; stroke-width: 2px;"/>
        <path d="M24.5,261.5c-6,.37-12.09-.91-18,1" style="fill: none; stroke: #000; stroke-linecap: round; stroke-linejoin: round; stroke-width: 2px;"/>
        <path d="M393.5,562c-2.79-.69-5.25-2.72-8.56-1.13-1.45.7-3.45.16-3.43,2.63.02,2.91,2.17,2.56,4,2.46.93-.05,1.67.34,2.5.54" style="fill: none; stroke: #000; stroke-linecap: round; stroke-linejoin: round; stroke-width: 2px;"/>
        <path d="M664,371c-5.65,2.22-11.36,4.17-17.5,4.5" style="fill: none; stroke: #000; stroke-linecap: round; stroke-linejoin: round; stroke-width: 2px;"/>
        <path d="M668.5,373c-5.42,3.2-11.6,4.19-17.5,6" style="fill: none; stroke: #000; stroke-linecap: round; stroke-linejoin: round; stroke-width: 2px;"/>
        <path d="M86.5,387.5c-5.86.17-11.68-.38-17.5-1" style="fill: none; stroke: #000; stroke-linecap: round; stroke-linejoin: round; stroke-width: 2px;"/>
        <path d="M764,411c.11,1.05,2.28,1.97-.45,3.11-4.57,1.91-9.23,2.42-14.05,2.39" style="fill: none; stroke: #000; stroke-linecap: round; stroke-linejoin: round; stroke-width: 2px;"/>
        <path d="M376,465c1.12,6.14-3.14,11.17-3.32,17.61,1.96,2.62,5.18,4.1,8.82,4.89" style="fill: none; stroke: #000; stroke-linecap: round; stroke-linejoin: round; stroke-width: 2px;"/>
        <path d="M18.5,236.5c-5.72-.16-11.28,1.56-17,1.5" style="fill: none; stroke: #000; stroke-linecap: round; stroke-linejoin: round; stroke-width: 2px;"/>
        <path d="M69,444.5c-6.33,1.95-12.67,3.41-19,0" style="fill: none; stroke: #000; stroke-linecap: round; stroke-linejoin: round; stroke-width: 2px;"/>
        <path d="M879.5,90.5c-6.49.34-11.44,4.41-17,7" style="fill: none; stroke: #000; stroke-linecap: round; stroke-linejoin: round; stroke-width: 2px;"/>
        <path d="M428.5,591.5c-1.26,3.66-4.78,3.12-7.51,3.97-2.73.85-5.85.64-7.99,3.03" style="fill: none; stroke: #000; stroke-linecap: round; stroke-linejoin: round; stroke-width: 2px;"/>
        <path d="M995.5,362c1.37-3.35,3.14-6.73-1-9.5-2.55-1.71-7.09-.83-10,2.01-1.35,1.31-2.67,2.66-4,4-1.87-.96-1.12-3.1-2.13-4.42-.7-1.08-2.08-.23-2.28,0-2.92,3.22-5.88,4.51-10.13,2-4.1-2.43-8.21-1.27-11.4,1.97-3.56,3.61-3.27,8.02-1.55,12.45" style="fill: none; stroke: #000; stroke-linecap: round; stroke-linejoin: round; stroke-width: 2px;"/>
        <path d="M574,387c-5.06,3.69-9.75,8.09-16.5,8.5" style="fill: none; stroke: #000; stroke-linecap: round; stroke-linejoin: round; stroke-width: 2px;"/>
        <path d="M797,393.5c.08,6.43,1.72,12.66,2.5,19" style="fill: none; stroke: #000; stroke-linecap: round; stroke-linejoin: round; stroke-width: 2px;"/>
        <path d="M109,341c-5.33.27-10.69-.57-16,.5" style="fill: none; stroke: #000; stroke-linecap: round; stroke-linejoin: round; stroke-width: 2px;"/>
        <path d="M92,341c-6.97-1.02-14.02-.18-21-1" style="fill: none; stroke: #000; stroke-linecap: round; stroke-linejoin: round; stroke-width: 2px;"/>
        <path d="M391.5,669c1.91,7.24,2.64,14.84,6.5,21.5" style="fill: none; stroke: #000; stroke-linecap: round; stroke-linejoin: round; stroke-width: 2px;"/>
        <path d="M650.5,446.5c3.32,4.62,8.78,4.89,13.54,6.36,2.04.63,3.94,1.11,5.46,2.64" style="fill: none; stroke: #000; stroke-linecap: round; stroke-linejoin: round; stroke-width: 2px;"/>
        <path d="M792.5,31.5c.6,5.43,1.94,10.64,4.5,15.5" style="fill: none; stroke: #000; stroke-linecap: round; stroke-linejoin: round; stroke-width: 2px;"/>
        <path d="M29,201.5c5.11,1.27,10.39-.25,15.5,1" style="fill: none; stroke: #000; stroke-linecap: round; stroke-linejoin: round; stroke-width: 2px;"/>
        <path d="M157,470.5c-1.34,7.6.62,11.14,7.94,15.6,1.36.83,3.69.62,4.06,2.9" style="fill: none; stroke: #000; stroke-linecap: round; stroke-linejoin: round; stroke-width: 2px;"/>
        <path d="M671.5,527.5c-10.65,4.41-21.43,6.04-32.51,1.53-.57-.23-1.32-.03-1.99-.03" style="fill: none; stroke: #000; stroke-linecap: round; stroke-linejoin: round; stroke-width: 2px;"/>
        <path d="M764.5,2c-7.02,3.7-11.69,12.66-10.52,20,.42,2.68,2.31,4.25,4.02,6" style="fill: none; stroke: #000; stroke-linecap: round; stroke-linejoin: round; stroke-width: 2px;"/>
        <path d="M393.5,532c5.31,6.38,8.41,7.34,14.5,4.5" style="fill: none; stroke: #000; stroke-linecap: round; stroke-linejoin: round; stroke-width: 2px;"/>
        <path d="M343.5,680c-2.2,5.11-.08,11.16-3.66,15.91-7.6-3.6-15.49-1.19-23.34-.41" style="fill: none; stroke: #000; stroke-linecap: round; stroke-linejoin: round; stroke-width: 2px;"/>
        <path d="M783,135.5c-.07,3.8,1.37,7.34,2.13,10.97.54,2.55.11,4.5-1.13,6.53" style="fill: none; stroke: #000; stroke-linecap: round; stroke-linejoin: round; stroke-width: 2px;"/>
        <path d="M454.5,346.5c-2.6,1.61-2.45,5.77-6.64,6.11-2.58-1.53.81-5.52-1.94-7.68-3.78.8-3.53,5.06-5.91,7.07-7.77-3.83-11.74-.64-11.4,9.5.06,1.69.09,3.31,0,5.01-.32,6.41,2.88,10.96,8.39,13.99" style="fill: none; stroke: #000; stroke-linecap: round; stroke-linejoin: round; stroke-width: 2px;"/>
        <path d="M577.5,362c-.86,7.66-2.97,15.2-2.49,23,.29,4.69-1.76,9.41,1.32,14.11,1.59,2.42-1.89,5.37-1.33,8.39" style="fill: none; stroke: #000; stroke-linecap: round; stroke-linejoin: round; stroke-width: 2px;"/>
        <path d="M581.5,361c-3.08-.35-6.11.47-8.97,1.13-8.9,2.07-10.93,9.35-5.03,16.87" style="fill: none; stroke: #000; stroke-linecap: round; stroke-linejoin: round; stroke-width: 2px;"/>
        <path d="M152,142c0,8.5.58,17,.5,25.5" style="fill: none; stroke: #000; stroke-linecap: round; stroke-linejoin: round; stroke-width: 2px;"/>
        <path d="M824.5,73.5c-1.23,3.26-1.18,6.98-3.08,9.95-1.03,1.62.27,2.72.08,4.05" style="fill: none; stroke: #000; stroke-linecap: round; stroke-linejoin: round; stroke-width: 2px;"/>
        <path d="M627.5,565c-4.67.02-9.31.88-14,.5" style="fill: none; stroke: #000; stroke-linecap: round; stroke-linejoin: round; stroke-width: 2px;"/>
        <path d="M100,247c-9.01.54-18.05.63-27,2" style="fill: none; stroke: #000; stroke-linecap: round; stroke-linejoin: round; stroke-width: 2px;"/>
        <path d="M197,471.5c-.68,8.08-7.93,11.02-16,6.5" style="fill: none; stroke: #000; stroke-linecap: round; stroke-linejoin: round; stroke-width: 2px;"/>
        <path d="M844.5,139.5c-.19,5.45-4.12,9.1-6.5,13.5" style="fill: none; stroke: #000; stroke-linecap: round; stroke-linejoin: round; stroke-width: 2px;"/>
        <path d="M761,163.5c.15-1.82-1.24-2.4-2.5-2.44-3.48-.1-6.57-1.86-10-2.06" style="fill: none; stroke: #000; stroke-linecap: round; stroke-linejoin: round; stroke-width: 2px;"/>
        <path d="M368.5,428.5c2.16,5.54,4.26,6.95,8.49,5.47,2.28-.8,3.3-2.94,3.93-5,.54-1.79-.96-2.09-2.42-1.98" style="fill: none; stroke: #000; stroke-linecap: round; stroke-linejoin: round; stroke-width: 2px;"/>
        <path d="M299,252c1.03,8.31-.04,16.69,1,25" style="fill: none; stroke: #000; stroke-linecap: round; stroke-linejoin: round; stroke-width: 2px;"/>
        <path d="M800.5,175.5c4.3.24,5.47,4.64,8.55,6.42,1.29.75,2.21,3.32,4.45,1.58" style="fill: none; stroke: #000; stroke-linecap: round; stroke-linejoin: round; stroke-width: 2px;"/>
        <path d="M838.5,1.5c5.94,1.34,7.69,6.68,10.5,11" style="fill: none; stroke: #000; stroke-linecap: round; stroke-linejoin: round; stroke-width: 2px;"/>
        <path d="M27,389c2.41.85,2.91,3.45,4.55,4.95,1.83,1.68,2.81,4.57,5.95,4.55" style="fill: none; stroke: #000; stroke-linecap: round; stroke-linejoin: round; stroke-width: 2px;"/>
        <path d="M842,588.5c-1.78,4.19-1.47,8.61-1.5,13" style="fill: none; stroke: #000; stroke-linecap: round; stroke-linejoin: round; stroke-width: 2px;"/>
        <path d="M395,685c-1.09.5-1.8.96-2.11,2.48-.72,3.55-2.79,6.59-4.89,9.52" style="fill: none; stroke: #000; stroke-linecap: round; stroke-linejoin: round; stroke-width: 2px;"/>
        <path d="M689,366.5c.46,3.14-.52,5.45-4,5.44-3.45-.01-6.7.69-10.02,1.48-3.21.76-6.23.19-6.98-3.92" style="fill: none; stroke: #000; stroke-linecap: round; stroke-linejoin: round; stroke-width: 2px;"/>
        <path d="M978.5,480.5c-2.49,4.29-7.17,5.56-11.27,7.84,1.58,2.53,3.68,2.9,6.25,3.28,6.34.96,12.67.85,19.02.88" style="fill: none; stroke: #000; stroke-linecap: round; stroke-linejoin: round; stroke-width: 2px;"/>
        <path d="M399.5,483c-3.59,4.56-9.46,3.33-14,5.5" style="fill: none; stroke: #000; stroke-linecap: round; stroke-linejoin: round; stroke-width: 2px;"/>
        <path d="M52,446.5c.31,4.33.96,8.58,3,12.5" style="fill: none; stroke: #000; stroke-linecap: round; stroke-linejoin: round; stroke-width: 2px;"/>
        <path d="M324.5,698c-7.56,3.77-16.03,3.55-24,5.5" style="fill: none; stroke: #000; stroke-linecap: round; stroke-linejoin: round; stroke-width: 2px;"/>
        <path d="M684.5,442.5c2.28,2.26,4.34,4.4,2.05,8.03-2.94,4.64-6.04,6.1-12.05,4.97" style="fill: none; stroke: #000; stroke-linecap: round; stroke-linejoin: round; stroke-width: 2px;"/>
        <path d="M385.5,684.5c0,2.67-.09,5.34.02,8,.12,2.96,1.05,5.45,4.9,6.05,2.37-1.95,4.6-4.69,8.07-5.58.61-.16,1.01-1.41.49-.99-.02.02-.31-.31-.48-.48" style="fill: none; stroke: #000; stroke-linecap: round; stroke-linejoin: round; stroke-width: 2px;"/>
        <path d="M436,405c-4.57,1.29-8.74,3.78-13.5,4.5" style="fill: none; stroke: #000; stroke-linecap: round; stroke-linejoin: round; stroke-width: 2px;"/>
        <path d="M303.5,332.5c-5.09,1-9.64,4.02-15,4" style="fill: none; stroke: #000; stroke-linecap: round; stroke-linejoin: round; stroke-width: 2px;"/>
        <path d="M174,568c-1.35,1.17-2.44,2.64-3.42,4.05-1.88,2.7-3.95,2.95-6.58,1.45" style="fill: none; stroke: #000; stroke-linecap: round; stroke-linejoin: round; stroke-width: 2px;"/>
        <path d="M418.5,688.5c-6.57,1-12.59,4.68-19.5,4" style="fill: none; stroke: #000; stroke-linecap: round; stroke-linejoin: round; stroke-width: 2px;"/>
        <path d="M374.5,678c2.18,3.75.13,8.1,1.88,12.05,1.17,2.65,2.1,5.32,4.17,7.5-2.63,2.48-5.91,1.89-9.05,1.94" style="fill: none; stroke: #000; stroke-linecap: round; stroke-linejoin: round; stroke-width: 2px;"/>
        <path d="M321.5,674c-3.3,4.48-3.53,10.19-6,15" style="fill: none; stroke: #000; stroke-linecap: round; stroke-linejoin: round; stroke-width: 2px;"/>
        <path d="M338,265.5c-.62,4.08-1.4,8.15.98,12.01,1.15,1.86.28,3.99.52,5.99" style="fill: none; stroke: #000; stroke-linecap: round; stroke-linejoin: round; stroke-width: 2px;"/>
        <path d="M572.5,380c-.29,5.04-5.21,5.13-8,7.5" style="fill: none; stroke: #000; stroke-linecap: round; stroke-linejoin: round; stroke-width: 2px;"/>
        <path d="M778,404c2.16,3.58-.21,6.71-1,10" style="fill: none; stroke: #000; stroke-linecap: round; stroke-linejoin: round; stroke-width: 2px;"/>
        <path d="M981.5,385.5c-2.29,1.36-2.71,3.97-4.02,5.99-2.81,4.34,1.6,6.15,3.02,9.01" style="fill: none; stroke: #000; stroke-linecap: round; stroke-linejoin: round; stroke-width: 2px;"/>
        <path d="M314.5,686.5c.4,2.85,1.12,5.65,1.53,8.7-2.76,1.62-5.62,2.45-8.51.27-2.05-1.54-2.93.92-4.5,1.14-1.92.26-3.84.92-5.77,1.39" style="fill: none; stroke: #000; stroke-linecap: round; stroke-linejoin: round; stroke-width: 2px;"/>
        <path d="M385,534.75c3.77-2.59,8.28-3.06,12.52-4.18,5.25-1.38,7.93,3.7,11.98,5.43" style="fill: none; stroke: #000; stroke-linecap: round; stroke-linejoin: round; stroke-width: 2px;"/>
        <path d="M580,400c1.4,4.9.44,10.12,2,15" style="fill: none; stroke: #000; stroke-linecap: round; stroke-linejoin: round; stroke-width: 2px;"/>
        <path d="M804.5,411.5c1.39,5.78,5.95,7.69,11,9" style="fill: none; stroke: #000; stroke-linecap: round; stroke-linejoin: round; stroke-width: 2px;"/>
        <path d="M845.5,409.5c-2.75-.04-5.46-.32-8-1.5" style="fill: none; stroke: #000; stroke-linecap: round; stroke-linejoin: round; stroke-width: 2px;"/>
        <path d="M828.5,405c2.19,2.35,5.36,1.59,8,2.5" style="fill: none; stroke: #000; stroke-linecap: round; stroke-linejoin: round; stroke-width: 2px;"/>
        <path d="M391.5,560.5c-.52-2.11-1.41-4.32,2.17-5.44,1.47.18,2.25,1.98,3.3,3.4,1.53,1.03,3.03-2.71,4.53.04" style="fill: none; stroke: #000; stroke-linecap: round; stroke-linejoin: round; stroke-width: 2px;"/>
        <path d="M391.5,535.5c-4.84.05-9.69-.39-14.5.5" style="fill: none; stroke: #000; stroke-linecap: round; stroke-linejoin: round; stroke-width: 2px;"/>
        <path d="M403.5,654.5c-2.53-1.02-4.6,1.15-7,1" style="fill: none; stroke: #000; stroke-linecap: round; stroke-linejoin: round; stroke-width: 2px;"/>
        <path d="M982,451.5c4.26,1.16,8.83.26,13,2" style="fill: none; stroke: #000; stroke-linecap: round; stroke-linejoin: round; stroke-width: 2px;"/>
        <path d="M602.5,377.5c-1.22-2.34-2.04-5.12-5.5-5" style="fill: none; stroke: #000; stroke-linecap: round; stroke-linejoin: round; stroke-width: 2px;"/>
        <path d="M307,688c-2.01-2.15-4.35-.14-6.5-.5" style="fill: none; stroke: #000; stroke-linecap: round; stroke-linejoin: round; stroke-width: 2px;"/>
        <path d="M190,447.5c2.02,1.72,4.99,2.05,6.5,4.5" style="fill: none; stroke: #000; stroke-linecap: round; stroke-linejoin: round; stroke-width: 2px;"/>
        <path d="M290,96c2.09,1.64,3.55,3.82,5,6" style="fill: none; stroke: #000; stroke-linecap: round; stroke-linejoin: round; stroke-width: 2px;"/>
        <path d="M655,470.5c-.57,2.89,1.2,4.58,3.52,4.81,1.35.14,4.47,0,3.48-3.31" style="fill: none; stroke: #000; stroke-linecap: round; stroke-linejoin: round; stroke-width: 2px;"/>
        <path d="M307,264c-4.58-1.5-9.32-.86-14-1" style="fill: none; stroke: #000; stroke-linecap: round; stroke-linejoin: round; stroke-width: 2px;"/>
        <path d="M515.5,467c-3.57-1.19-7.52.36-11-1.5" style="fill: none; stroke: #000; stroke-linecap: round; stroke-linejoin: round; stroke-width: 2px;"/>
        <path d="M776.5,128.5c2.58.69,2.39,3.88,4.5,5" style="fill: none; stroke: #000; stroke-linecap: round; stroke-linejoin: round; stroke-width: 2px;"/>
        <path d="M491.5,467c3.91,1.95,7.3,4.71,11,7" style="fill: none; stroke: #000; stroke-linecap: round; stroke-linejoin: round; stroke-width: 2px;"/>
        <path d="M680,366c.39,1.88-.67,3.64-.5,5.5" style="fill: none; stroke: #000; stroke-linecap: round; stroke-linejoin: round; stroke-width: 2px;"/>
        <path d="M576.5,364c-1.43,1.31-3.89.56-5,2.5" style="fill: none; stroke: #000; stroke-linecap: round; stroke-linejoin: round; stroke-width: 2px;"/>
        <path d="M19.5,472.5h-5" style="fill: none; stroke: #000; stroke-linecap: round; stroke-linejoin: round; stroke-width: 2px;"/>
        <path d="M378.5,698.5c-3.05-1.96-6.88-1.72-10-3.5" style="fill: none; stroke: #000; stroke-linecap: round; stroke-linejoin: round; stroke-width: 2px;"/>
        <path d="M57,464c0,1.76.5,3.88-2.5,3.5" style="fill: none; stroke: #000; stroke-linecap: round; stroke-linejoin: round; stroke-width: 2px;"/>
        <path d="M430,355.5c1.54.94,3.6,1.1,4.5,3" style="fill: none; stroke: #000; stroke-linecap: round; stroke-linejoin: round; stroke-width: 2px;"/>
        <path d="M672,453.5c-2.54,1.88-5.07,3.76-4.5,7.5" style="fill: none; stroke: #000; stroke-linecap: round; stroke-linejoin: round; stroke-width: 2px;"/>
        <path d="M355.5,687c-1.58-1.06-3.34-.23-5-.5" style="fill: none; stroke: #000; stroke-linecap: round; stroke-linejoin: round; stroke-width: 2px;"/>
        <path d="M222,569c-1.1-1.55-2.5-2.56-4.5-2.5" style="fill: none; stroke: #000; stroke-linecap: round; stroke-linejoin: round; stroke-width: 2px;"/>
        <path d="M986.5,485.5c-3.11.97-5.18,3.08-6.5,6" style="fill: none; stroke: #000; stroke-linecap: round; stroke-linejoin: round; stroke-width: 2px;"/>
        <path d="M878,564.5c-3.69,2.42-8.32,2.56-12,5" style="fill: none; stroke: #000; stroke-linecap: round; stroke-linejoin: round; stroke-width: 2px;"/>
        <path d="M668.5,532.5c.15,1.34-1.06,2.84.5,4" style="fill: none; stroke: #000; stroke-linecap: round; stroke-linejoin: round; stroke-width: 2px;"/>
        <path d="M969,358c-.45,2.17-2.19,1.33-3.5,1.5" style="fill: none; stroke: #000; stroke-linecap: round; stroke-linejoin: round; stroke-width: 2px;"/>
        <path d="M459.5,362.5c-.54,1.77-1.93,2.04-3.5,2" style="fill: none; stroke: #000; stroke-linecap: round; stroke-linejoin: round; stroke-width: 2px;"/>
        <path d="M295.5,699c-1.22,1.06-2.68.23-4,.5" style="fill: none; stroke: #000; stroke-linecap: round; stroke-linejoin: round; stroke-width: 2px;"/>
        <path d="M374.5,521.5c-.72,2.45-1.31,4.96-3,7" style="fill: none; stroke: #000; stroke-linecap: round; stroke-linejoin: round; stroke-width: 2px;"/>
        <path d="M336,686c-1.78-.77-3.66-.43-5.5-.5" style="fill: none; stroke: #000; stroke-linecap: round; stroke-linejoin: round; stroke-width: 2px;"/>
        <path d="M378.5,431.5c-1.06-1.44-2.58-1.01-4-1" style="fill: none; stroke: #000; stroke-linecap: round; stroke-linejoin: round; stroke-width: 2px;"/>
      </g>
    </g>
  </g>
</svg>